<?xml version="1.0" encoding="utf-8"?>
<svg width="202px" height="21.643555px" viewBox="0 0 202 21.643555" version="1.1" xmlns:xlink="http://www.w3.org/1999/xlink" xmlns="http://www.w3.org/2000/svg">
  <defs>
    <path d="M0 0L23.5604 0L23.5604 20.6408L0 20.6408L0 0Z" id="path_1" />
    <path d="M0 21.6437L202 21.6437L202 0L0 0L0 21.6437Z" id="path_2" />
    <clipPath id="mask_1">
      <use xlink:href="#path_1" />
    </clipPath>
    <clipPath id="mask_2">
      <use xlink:href="#path_2" />
    </clipPath>
  </defs>
  <g id="Group-16">
    <g id="Group-3" transform="translate(0 0.50153303)">
      <path d="M0 0L23.5604 0L23.5604 20.6408L0 20.6408L0 0Z" id="Clip-2" fill="none" fill-rule="evenodd" stroke="none" />
      <g clip-path="url(#mask_1)">
        <path d="M9.93744 12.1191L13.535 12.1191L12.8272 9.52415C12.5324 8.43297 12.0604 6.72306 11.7364 5.24894L11.7072 5.24894C11.3238 6.92959 10.9989 8.22643 10.6452 9.52415L9.93744 12.1191ZM15.8942 20.6408L15.0095 17.3973L8.52226 17.3973L7.63762 20.6408L-0.000218324 20.6408L7.01845 0L16.5727 0L23.5604 20.6408L15.8942 20.6408Z" id="Fill-1" fill="#A182BB" fill-rule="evenodd" stroke="none" />
      </g>
    </g>
    <path d="M34.0784 9.55432C35.8774 9.55432 36.9974 9.19976 36.9974 7.48942C36.9974 5.6913 35.8774 5.45508 34.0784 5.45508L31.9554 5.45508L31.9554 9.55432L34.0784 9.55432ZM45.2544 21.0543L45.2544 21.1421L37.6166 21.1421C36.8205 20.0806 36.6441 18.6951 36.6441 16.9847C36.6441 14.9797 35.7887 14.3605 33.9609 14.3605L31.9554 14.3605L31.9554 21.1421L24.7018 21.1421L24.7018 0.501751L35.8481 0.501751C41.008 0.501751 44.5164 1.85754 44.5164 6.7231C44.5164 9.46568 43.0423 11.028 40.8901 11.883C42.807 12.5021 43.9864 13.9767 43.9864 16.4542C43.9864 18.1637 44.1925 19.5204 45.2544 21.0543L45.2544 21.0543Z" id="Fill-4" fill="#A182BB" fill-rule="evenodd" stroke="none" />
    <path d="M77.8072 15.5694C77.04 15.5694 74.7402 15.5991 73.2953 15.6869L73.2953 15.6576C74.0914 14.8908 75.0943 13.9477 76.1266 12.8862L83.0562 5.75051L83.0562 0.501577L66.2029 0.501577L65.3632 0.501577L45.3683 0.501577L45.3683 6.0208L51.6202 6.0208L51.6202 21.1423L58.9917 21.1423L58.9917 6.0208L65.3632 6.0208L70.6711 6.0745C72.0863 6.0745 73.2953 6.04481 74.6223 5.9863L74.6223 6.01512C73.6202 7.07661 72.588 8.05033 71.6143 8.99349L64.8331 15.9231L64.8331 21.1423L83.3505 21.1423L83.3505 15.5694L77.8072 15.5694Z" id="Fill-6" fill="#1E0C3A" fill-rule="evenodd" stroke="none" />
    <path d="M0 21.6437L202 21.6437L202 0L0 0L0 21.6437Z" id="Clip-9" fill="none" fill-rule="evenodd" stroke="none" />
    <g clip-path="url(#mask_2)">
      <path d="M85.6846 21.142L93.0565 21.142L93.0565 0.501708L85.6846 0.501708L85.6846 21.142Z" id="Fill-8" fill="#1E0C3A" fill-rule="evenodd" stroke="none" />
      <path d="M109.264 15.0974C110.03 14.1543 110.237 12.6208 110.237 10.7633C110.237 8.93415 110.001 7.40152 109.234 6.51687C108.615 5.77981 107.731 5.45538 106.58 5.45538C105.371 5.45538 104.487 5.77981 103.868 6.48718C103.072 7.37183 102.835 8.93415 102.835 10.7633C102.835 12.6505 103.072 14.1831 103.839 15.0974C104.458 15.8637 105.371 16.1886 106.551 16.1886C107.76 16.1886 108.645 15.8349 109.264 15.0974M95.022 10.7633C95.022 4.21662 99.1793 -8.73294e-05 106.551 -8.73294e-05C113.864 -8.73294e-05 118.022 4.24631 118.022 10.7633C118.022 17.368 113.805 21.6436 106.551 21.6436C99.2675 21.6436 95.022 17.9286 95.022 10.7633" id="Fill-10" fill="#1E0C3A" fill-rule="evenodd" stroke="none" />
      <path d="M120.018 21.1422L120.018 0.501839L128.924 0.501839L132.078 7.57858C132.756 9.17016 133.7 11.2936 134.467 13.2105L134.526 13.2105C134.407 11.2342 134.349 8.3449 134.349 7.13582L134.349 0.501839L141.278 0.501839L141.278 21.1422L132.343 21.1422L128.982 13.7999C128.303 12.3551 127.449 10.291 126.801 8.46323L126.741 8.46323C126.859 10.7334 126.948 13.6231 126.948 14.2126L126.948 21.1422L120.018 21.1422Z" id="Fill-11" fill="#1E0C3A" fill-rule="evenodd" stroke="none" />
      <path d="M143.511 21.1422L143.511 0.501839L160.732 0.501839L160.732 5.69139L150.883 5.69139L150.883 8.3152L159.729 8.3152L159.729 13.2105L150.883 13.2105L150.883 15.9526L160.732 15.9526L160.732 21.1422L143.511 21.1422Z" id="Fill-12" fill="#1E0C3A" fill-rule="evenodd" stroke="none" />
      <path d="M162.698 21.1422L162.698 0.501839L179.918 0.501839L179.918 5.69139L170.07 5.69139L170.07 8.3152L178.916 8.3152L178.916 13.2105L170.07 13.2105L170.07 15.9526L179.918 15.9526L179.918 21.1422L162.698 21.1422Z" id="Fill-13" fill="#1E0C3A" fill-rule="evenodd" stroke="none" />
      <path d="M190.824 9.55432C192.623 9.55432 193.743 9.19976 193.743 7.48942C193.743 5.6913 192.623 5.45508 190.824 5.45508L188.701 5.45508L188.701 9.55432L190.824 9.55432ZM202 21.0543L202 21.1421L194.362 21.1421C193.566 20.0806 193.39 18.6951 193.39 16.9847C193.39 14.9797 192.535 14.3605 190.707 14.3605L188.701 14.3605L188.701 21.1421L181.448 21.1421L181.448 0.501751L192.594 0.501751C197.754 0.501751 201.262 1.85754 201.262 6.7231C201.262 9.46568 199.789 11.028 197.636 11.883C199.553 12.5021 200.732 13.9767 200.732 16.4542C200.732 18.1637 200.938 19.5204 202 21.0543L202 21.0543Z" id="Fill-14" fill="#1E0C3A" fill-rule="evenodd" stroke="none" />
      <path d="M51.6203 21.1422L51.6203 6.02106L45.3684 6.02106L45.3684 0.501839L66.2026 0.501839L66.2026 6.02106L58.9914 6.02106L58.9914 21.1422L51.6203 21.1422Z" id="Fill-15" fill="#A182BB" fill-rule="evenodd" stroke="none" />
    </g>
  </g>
</svg>