<svg width="180" height="38" viewBox="0 0 180 38" fill="none" xmlns="http://www.w3.org/2000/svg"><g clip-path="url(#clip0_4497_7887)"><path d="M56.6097 26.2833C54.9432 26.2833 53.4234 25.8918 52.0505 25.0999C50.6776 24.308 49.6069 23.2203 48.8298 21.828C48.0526 20.4357 47.6641 18.8955 47.6641 17.19C47.6641 14.5881 48.5189 12.4214 50.2286 10.6723C51.9383 8.92328 54.0624 8.0531 56.6097 8.0531C58.7252 8.0531 60.5471 8.69703 62.0841 9.9762C63.6211 11.2554 64.5968 12.9435 65.0113 15.0232H61.2465C61.0134 14.3445 60.6766 13.7441 60.2276 13.2394C59.7786 12.7347 59.2519 12.3431 58.6302 12.0646C58.0085 11.7862 57.335 11.6556 56.6097 11.6556C55.1418 11.6556 53.9156 12.1865 52.9313 13.2394C51.9469 14.2923 51.4547 15.615 51.4547 17.19C51.4547 18.765 51.9469 20.079 52.9313 21.1232C53.9156 22.1761 55.1418 22.6982 56.6097 22.6982C57.7494 22.6982 58.7338 22.3762 59.5628 21.7236C60.3917 21.071 60.9616 20.1921 61.2724 19.0783H65.0631C64.6659 21.245 63.6988 22.9854 62.1532 24.308C60.6076 25.6307 58.7597 26.292 56.6097 26.292" fill="#3A475F"/><path d="M78.4466 12.3953H81.1493V25.8831H78.2998L78.0062 24.6822C76.7801 25.7439 75.3381 26.2834 73.6716 26.2834C71.651 26.2834 69.9845 25.6046 68.6548 24.2471C67.325 22.8897 66.6602 21.1841 66.6602 19.1392C66.6602 17.0943 67.325 15.4148 68.6548 14.0661C69.9845 12.7173 71.6597 12.0472 73.6716 12.0472C75.3726 12.0472 76.8319 12.5955 78.058 13.6919L78.4552 12.3953H78.4466ZM71.3488 21.7845C72.031 22.4807 72.9031 22.8375 73.9479 22.8375C74.9927 22.8375 75.8648 22.4894 76.5642 21.7845C77.255 21.0884 77.609 20.2008 77.609 19.1392C77.609 18.0776 77.2636 17.19 76.5642 16.4939C75.8734 15.7977 75.0013 15.4409 73.9652 15.4409C73.2744 15.4409 72.644 15.6063 72.0914 15.9282C71.5388 16.2502 71.1071 16.694 70.7876 17.2509C70.4767 17.8078 70.3213 18.4344 70.3213 19.1392C70.3213 20.2095 70.6667 21.0884 71.3488 21.7845Z" fill="#3A475F"/><path d="M89.3779 26.2834C88.2727 26.2834 87.2883 26.0832 86.4421 25.6829C85.5873 25.2827 84.931 24.717 84.4561 23.9861C83.9812 23.2551 83.748 22.4111 83.748 21.4626H87.271C87.2883 21.8629 87.3919 22.2022 87.5819 22.472C87.7718 22.7504 88.0309 22.9419 88.359 23.0724C88.6871 23.1942 89.0671 23.2638 89.4988 23.2638C89.8442 23.2638 90.1637 23.2116 90.44 23.1159C90.7249 23.0115 90.9494 22.8636 91.1308 22.6547C91.3121 22.4459 91.4071 22.2022 91.4071 21.9151C91.4071 21.4974 91.1912 21.1928 90.7595 20.9927C90.3277 20.7925 89.6888 20.6185 88.8253 20.4706C88.2813 20.3836 87.8323 20.3052 87.4783 20.2182C87.1242 20.1312 86.7011 19.992 86.2176 19.7831C85.734 19.5743 85.3455 19.3393 85.0519 19.0696C84.7583 18.7998 84.5079 18.4344 84.292 17.9732C84.0762 17.5033 83.9726 16.9637 83.9726 16.3459C83.9726 15.0842 84.4647 14.0487 85.4577 13.2481C86.4507 12.4475 87.7546 12.0472 89.3606 12.0472C90.9667 12.0472 92.2705 12.4562 93.2549 13.2829C94.2393 14.1096 94.7315 15.1973 94.7315 16.5461H91.2862C91.2862 15.4844 90.6127 14.9449 89.2829 14.9449C88.7217 14.9449 88.2813 15.0581 87.9704 15.293C87.6596 15.528 87.5042 15.8412 87.5042 16.2415C87.5042 16.4068 87.5473 16.5635 87.6423 16.7027C87.7287 16.8419 87.8409 16.955 87.9618 17.0421C88.0827 17.1291 88.2813 17.2074 88.5403 17.277C88.808 17.3553 89.0239 17.4075 89.2138 17.4423C89.3952 17.4772 89.6715 17.5294 90.0341 17.5903C90.345 17.6599 90.5695 17.7034 90.7077 17.7295C90.8372 17.7556 91.0617 17.7991 91.3812 17.8687C91.692 17.9384 91.9338 17.9993 92.0892 18.0602C92.2446 18.1211 92.4605 18.1994 92.7368 18.2951C93.0131 18.3995 93.2117 18.504 93.3585 18.6084C93.5053 18.7128 93.6694 18.8433 93.8766 18.9913C94.0838 19.1392 94.2479 19.3045 94.3602 19.4873C94.4724 19.67 94.5933 19.8701 94.7055 20.0877C94.8178 20.3052 94.8955 20.5576 94.9387 20.836C94.9819 21.1232 94.9991 21.4191 94.9991 21.7323C94.9991 23.1159 94.4897 24.221 93.4621 25.039C92.4346 25.8657 91.079 26.2747 89.3952 26.2747" fill="#3A475F"/><path d="M104.946 12.0472C106.958 12.0472 108.633 12.726 109.963 14.0661C111.293 15.4148 111.958 17.1117 111.958 19.1653C111.958 21.2189 111.284 22.9158 109.955 24.2733C108.616 25.6307 106.95 26.3095 104.946 26.3095C103.574 26.3095 102.347 25.9353 101.251 25.1869V30.7822H97.6328V12.4214H100.033L100.655 13.6484C101.847 12.5868 103.271 12.0472 104.946 12.0472ZM102.037 21.8106C102.719 22.5068 103.591 22.8636 104.636 22.8636C105.68 22.8636 106.553 22.5155 107.252 21.8106C107.943 21.1145 108.297 20.2269 108.297 19.1653C108.297 18.4692 108.141 17.8339 107.822 17.2683C107.511 16.7027 107.071 16.2589 106.518 15.9456C105.965 15.6324 105.344 15.467 104.644 15.467C103.945 15.467 103.323 15.6237 102.762 15.9456C102.201 16.2589 101.769 16.7027 101.458 17.2683C101.156 17.8339 101 18.4692 101 19.1653C101 20.2356 101.346 21.1145 102.028 21.8106" fill="#3A475F"/><path d="M114.54 7.21777H118.158V10.6115H114.54V7.21777ZM114.54 12.4127H118.158V25.9005H114.54V12.4214V12.4127Z" fill="#3A475F"/><path d="M132.561 12.3953H135.264V25.8831H132.414L132.12 24.6822C130.894 25.7439 129.452 26.2834 127.786 26.2834C125.765 26.2834 124.099 25.6046 122.769 24.2471C121.439 22.8897 120.774 21.1841 120.774 19.1392C120.774 17.0943 121.439 15.4148 122.769 14.0661C124.099 12.7173 125.774 12.0472 127.786 12.0472C129.487 12.0472 130.946 12.5955 132.172 13.6919L132.569 12.3953H132.561ZM125.463 21.7845C126.145 22.4807 127.017 22.8375 128.062 22.8375C129.107 22.8375 129.979 22.4894 130.678 21.7845C131.369 21.0884 131.723 20.2008 131.723 19.1392C131.723 18.0776 131.378 17.19 130.678 16.4939C129.988 15.7977 129.116 15.4409 128.079 15.4409C127.389 15.4409 126.758 15.6063 126.206 15.9282C125.653 16.2502 125.221 16.694 124.902 17.2509C124.591 17.8078 124.436 18.4344 124.436 19.1392C124.436 20.2095 124.781 21.0884 125.463 21.7845Z" fill="#3A475F"/><path d="M146.367 12.0908C147.887 12.0908 149.087 12.6042 149.977 13.631C150.858 14.6578 151.307 16.024 151.307 17.7383V25.9093H147.689V18.3126C147.689 16.2938 146.911 15.2931 145.357 15.2931C144.744 15.2931 144.209 15.4323 143.76 15.7195C143.302 16.0066 142.957 16.4069 142.715 16.9464C142.473 17.4772 142.352 18.1038 142.352 18.8173V25.9093H138.734V12.4215H141.213L141.929 14.0922C142.18 13.779 142.465 13.5005 142.784 13.2569C143.104 13.0132 143.458 12.8044 143.838 12.6303C144.217 12.4563 144.615 12.3258 145.038 12.23C145.461 12.143 145.901 12.0908 146.367 12.0908Z" fill="#3A475F"/><path d="M158.413 22.3849H165.33V25.9092H154.648V8.41858H165.053V11.9167H158.413V15.3626H164.414V18.7911H158.413V22.3849Z" fill="#3A475F"/><path d="M180 25.9093H175.915L173.256 21.4366L170.536 25.9093H166.538L171.106 18.9914L166.84 12.4215H170.933L173.256 16.3112L175.743 12.4215H179.732L175.389 18.7912L180 25.9093Z" fill="#3A475F"/><path d="M35.8172 13.2742C35.8172 13.2742 35.774 13.2742 35.7481 13.2742H18.4354C15.301 13.2742 12.7451 15.8412 12.7451 19.0086C12.7451 22.1761 15.2924 24.7431 18.4354 24.7431H35.7395C35.7395 24.7431 35.7913 24.7431 35.8085 24.7431C36.3871 22.9419 36.7065 21.0188 36.7065 19.0174C36.7065 17.0159 36.3871 15.0928 35.8085 13.2916" fill="#3A475F"/><path d="M10.3008 18.9999C10.3008 23.5162 13.9533 27.197 18.4347 27.197H34.8148C35.0739 26.6749 35.2984 26.1441 35.5056 25.6046H18.4347C14.8254 25.6046 11.8809 22.646 11.8809 18.9999C11.8809 15.3539 14.8168 12.3953 18.4347 12.3953H35.5056C35.2984 11.8471 35.0652 11.3163 34.8148 10.8029H18.4347C13.9446 10.8029 10.3008 14.4837 10.3008 18.9999Z" fill="#3A475F"/><path d="M32.6997 30.5386H18.4351C12.1231 30.5386 6.98543 25.361 6.98543 19C6.98543 12.639 12.1231 7.46145 18.4351 7.46145H32.6997C32.2593 6.91323 31.8017 6.38242 31.3009 5.88642C31.0937 5.87772 30.8864 5.86902 30.6706 5.86902H18.4351C11.251 5.86902 5.40527 11.7601 5.40527 19C5.40527 26.2399 11.251 32.131 18.4351 32.131H30.6706C30.8864 32.131 31.0937 32.1223 31.3009 32.1136C31.7931 31.6176 32.2593 31.0868 32.6997 30.5386Z" fill="#3A475F"/><path d="M18.3575 35.4638C9.3428 35.4638 2.02053 28.076 2.02053 19C2.02053 9.92404 9.3428 2.53622 18.3575 2.53622H26.7159C24.2118 1.23965 21.371 0.5 18.3575 0.5C8.22028 0.5 0 8.7841 0 19C0 29.2159 8.22028 37.5 18.3575 37.5C21.371 37.5 24.2118 36.7603 26.7159 35.4638H18.3575Z" fill="#3A475F"/><path d="M7.85727 19C7.85727 24.8824 12.6064 29.6684 18.4435 29.6684H33.3557C33.7183 29.155 34.0551 28.6242 34.3573 28.0673H18.4348C13.4699 28.0673 9.43743 24.0035 9.43743 19C9.43743 13.9965 13.4785 9.93276 18.4348 9.93276H34.3487C34.0378 9.38455 33.7097 8.85374 33.347 8.34033H18.4348C12.5977 8.34033 7.84863 13.1263 7.84863 19.0087" fill="#3A475F"/><path d="M2.875 19C2.875 27.5973 9.81734 34.6023 18.3485 34.6023H28.218C28.9692 34.1237 29.6773 33.5842 30.3421 33.0099H18.4348C10.7758 33.0099 4.54151 26.7272 4.54151 19.0087C4.54151 11.2902 10.7758 4.9988 18.4348 4.9988H30.3421C29.6773 4.41578 28.9606 3.88497 28.218 3.40637H18.3485C9.82597 3.40637 2.875 10.4026 2.875 19Z" fill="#3A475F"/></g><defs><clipPath id="clip0_4497_7887"><rect width="180" height="37" fill="white" transform="translate(0 0.5)"/></clipPath></defs></svg>