<?xml version="1.0" encoding="utf-8"?>
<!-- Generator: Adobe Illustrator 20.0.0, SVG Export Plug-In . SVG Version: 6.00 Build 0)  -->
<svg version="1.1" id="Layer_1" xmlns="http://www.w3.org/2000/svg" xmlns:xlink="http://www.w3.org/1999/xlink" x="0px" y="0px"
	 viewBox="0 0 458 363.7" style="enable-background:new 0 0 458 363.7;" xml:space="preserve">
<style type="text/css">
	.st0{fill-rule:evenodd;clip-rule:evenodd;}
	.st1{fill-rule:evenodd;clip-rule:evenodd;fill:#B16F11;}
	.st2{fill-rule:evenodd;clip-rule:evenodd;fill:#E20A17;}
	.st3{fill-rule:evenodd;clip-rule:evenodd;fill:#ED8001;}
	.st4{fill-rule:evenodd;clip-rule:evenodd;fill:#024621;}
	.st5{fill-rule:evenodd;clip-rule:evenodd;fill:#874515;}
	.st6{fill-rule:evenodd;clip-rule:evenodd;fill:#BB8E53;}
	.st7{fill-rule:evenodd;clip-rule:evenodd;fill:#825B34;}
	.st8{fill-rule:evenodd;clip-rule:evenodd;fill:#D9A750;}
	.st9{fill-rule:evenodd;clip-rule:evenodd;fill:#F66014;}
	.st10{fill-rule:evenodd;clip-rule:evenodd;fill:#FE8C08;}
	.st11{fill-rule:evenodd;clip-rule:evenodd;fill:#521D19;}
	.st12{fill-rule:evenodd;clip-rule:evenodd;fill:#FFFFFF;}
	.st13{fill-rule:evenodd;clip-rule:evenodd;fill:#541A18;}
	.st14{fill-rule:evenodd;clip-rule:evenodd;fill:#FFFCDF;}
	.st15{fill-rule:evenodd;clip-rule:evenodd;fill:#B36E11;}
	.st16{fill-rule:evenodd;clip-rule:evenodd;fill:#511811;}
</style>
<g>
	<g>
		<g>
			<path class="st0" d="M197.2,157.4l-0.1,1.7l24.1,4.5c0,0-29.5,5.4-29.6,5.4c-1.9,0.6-0.9,2.5,0.5,2.2l0,0l35.9-6.4l36.4,6.5
				c0,0,0,0,0,0c2,0.3,2.7-2.1,0.3-2.5l-29.2-5.2c0,0,31.2-5.5,31.4-5.5c5.1-0.5,5.3,0.2,7.7,2.4c1.8,1.5,3.6,1,5.3,0.1
				c2.5-1.3,4.9-3.6,4.3-6.8c-0.1-0.7-0.4-1.3-0.9-1.9c-1-1.4-3-2.4-5.3-2.8c-2.9-0.5-4.2,0.4-5.2,2.1c-1.9,3.1-1.2,2.9-5.5,4.6
				c-0.2,0.1-0.2,0.1-0.2,0.1l-39.1,6.8L197.2,157.4L197.2,157.4z M165.8,153l22.7,0c0,0,0.1,0.1,0.4,0.4c1.7,2,5.3,2.9,7.1,3.7
				c0.5,0.2,0.6,0.2,0.6,0.2l-27-3.7l26.5,5.8c0,0-0.1,0-0.6,0c-1.9-0.1-3.1-0.3-4.3-0.1c0,0-0.1,0-0.1,0c-2,0.2-2.8,0.7-4,1.4
				c0,0-0.1,0-0.1,0L165.8,153L165.8,153z"/>
		</g>
		<g>
			<polygon class="st1" points="205.2,133.8 187.9,133.8 210.4,143.7 205.2,133.8 			"/>
		</g>
		<g>
			<polygon class="st1" points="226.4,133.8 210.2,133.8 223.9,143.3 226.4,133.8 			"/>
		</g>
		<g>
			<polygon class="st1" points="246.4,133.8 230.3,133.8 232.9,143.4 246.4,133.8 			"/>
		</g>
		<g>
			<polygon class="st1" points="268,133.8 251.2,133.8 246.3,143.6 268,133.8 			"/>
		</g>
		<g>
			<path class="st2" d="M217.4,124.7L217.4,124.7l22,0l0.1-0.1l-11-8.7L217.4,124.7L217.4,124.7z M216.7,113.3L216.7,113.3l22,0
				l0.1-0.1l-11-8.7L216.7,113.3L216.7,113.3z"/>
		</g>
		<g>
			<polygon class="st0" points="216.8,113.3 216.7,113.3 216.6,113.3 216.8,113.3 			"/>
		</g>
		<g>
			<polygon class="st0" points="238.8,113.2 238.7,113.3 238.9,113.3 238.8,113.2 			"/>
		</g>
		<g>
			<polygon class="st0" points="250.1,122.1 250.1,122.2 250.1,122.2 250.1,122.1 			"/>
		</g>
		<g>
			<polygon class="st0" points="228,122.2 227.8,122.1 227.7,122.2 228,122.2 			"/>
		</g>
		<g>
			<polygon class="st0" points="205.6,122.2 205.5,122.1 205.4,122.2 205.6,122.2 			"/>
		</g>
		<g>
			<path class="st3" d="M216.8,113.3l11.1,8.8l10.9-8.8H216.8L216.8,113.3z M216.7,131l11-8.8h-22.1l10.9,8.8H216.7L216.7,131z
				 M239.2,131l10.9-8.8H228l11.1,8.8H239.2L239.2,131z"/>
		</g>
		<g>
			<polygon class="st0" points="239.1,131 228,122.2 227.7,122.2 216.7,131 239.1,131 			"/>
		</g>
		<g>
			<path class="st4" d="M227.8,122.1l-11.1-8.8h-0.1l-11.2,8.8l0.1,0.1h22.1L227.8,122.1L227.8,122.1z M250.1,122.2L250.1,122.2
				l-11.2-8.9h-0.2l-10.9,8.8l0.1,0.1H250.1L250.1,122.2z M250.1,122.2l-10.9,8.8h22.1L250.1,122.2L250.1,122.2L250.1,122.2z
				 M216.5,131l-10.9-8.8h-0.2l-11.2,8.8H216.5L216.5,131z"/>
		</g>
		<g>
			<path class="st0" d="M226.7,70.1c-0.1,0.7,0.5,1.2,1,1.1c0.7-0.2,0.8-0.9,0.5-1.4c-0.2-0.3-0.4-0.3-0.8-0.3
				C227,69.6,226.8,69.7,226.7,70.1L226.7,70.1z M220.4,72c-0.1,0.7,0.5,1.2,1,1.1c0.7-0.2,0.8-0.9,0.5-1.4
				c-0.2-0.3-0.4-0.3-0.8-0.3C220.7,71.5,220.4,71.6,220.4,72L220.4,72z"/>
		</g>
		<g>
			<path class="st5" d="M237.3,93c0,0,0-0.5,0-1c0-1.3-0.8-4.6-1.2-5.4c-0.4-0.7-2.1-2.2-2.9-2.7c-1.5-1-4.3-2.3-4.3-2.3
				s0.1,1.1,0.3,1.9c0.7,3.1,2.7,5.2,4.5,7.2c0.5,0.6,2.8,2.2,3.1,2.3C237.1,93.1,237.3,93,237.3,93L237.3,93z M233.9,107.2
				c0,0,0.6-0.8,1-1.5c0.9-1.6,2.4-7.4,2.5-8.6c0.1-1.3,0-2.7,0-2.7s-1.9-0.2-3.3-0.6c-2.2-0.5-4.6-2.1-5.9-3.8
				c-1.1-1.4-2.6-3.7-2.6-3.7s-0.1,2.9-0.3,4.9c-0.2,2-1,4.6-1.6,6c-0.8,1.7-4.8,6.6-6.1,8.9c-0.1,0.1-1.9,3.8-2,5.1
				c0,0.2,0,0.4,0,0.4l12.1-9.2L233.9,107.2L233.9,107.2z M242.5,113.8l13.5,10.6l1.1-1.5c0,0,3.6,2.5,6.1,4c0.7,0.4,5.4,2,6.2,2.1
				c2.8,0.3,6.6,0.7,9.4-1c0.6-0.3,1.2-0.8,1.2-0.8s-1.5-0.9-3-1.8c-3.3-2.2-6.7-4.8-6.7-4.8l1.5-0.7c0,0,2.2,1.7,3.8,2.8
				c1.5,1,4.4,2.5,5.6,2.7c1.7,0.3,4.8,0,4.8,0s3,5.4,5.2,9.6c4.9,9.5,9,21.6,10.6,31.7c3,17.6,2.3,33.8-2.7,51.6
				c-1.3,4.8-5.2,15.5-8.1,19.9c-1.1,1.6-2.5,4-2.6,4.4c-0.1,0.6,0.2,1,0.8,1.3c0.7,0.4,7.5,2.4,8.6,2.5c4.7,0.7,11.5-0.2,17.1-2.3
				c0.4-0.2,0.5-0.2,0.7-0.6c8.1-16.5,12.5-26.3,14.4-43.5c1.7-15.7-0.1-32.3-4.8-48.1c-0.7-2.5-3.5-10-4.6-12.4
				c-1.1-2.4-8.5-16.9-10.3-19.9c-0.4-0.7-0.8-1.4-1.7-2.5c-0.8-1-2-2.2-2-2.2l1.7-1.4c0,0-2.2-0.8-4.5-1.9
				c-3.7-1.7-7.9-4.3-7.9-4.3s0.5-0.5,0.8-0.8c0.1-0.1,0.2-0.1,0.3-0.2c0.1,0,0.2,0,0.6,0.2c5.7,2.7,11.2,6.3,15.2,4
				c1.4-0.8,3.9-2.6,3.9-2.6s-3.2-0.9-6.5-2c-4.4-1.6-8.8-3.6-8.8-3.6l1.2-1.2c0,0,4.2,1.8,7.3,2.8c3.9,1.3,8.8,2.2,11.3-0.2
				c0.9-0.8,2.1-2.3,2.1-2.3s-4.4-0.8-8.6-1.9c-4.2-1.1-8.4-2.4-8.4-2.4s0.3-0.7,0.6-1c0.1-0.1,0.1-0.1,0.2-0.2
				c0.1-0.1,0.2,0,0.6,0.1c3.9,1,10.3,2.6,11.7,2.8c1.7,0.2,5.2,0,6.7-0.9c0.7-0.4,1.8-1.4,2.9-2.7c0.6-0.6,1.2-1.4,1.2-1.4
				l-19.9-2.2c0,0,0-0.5,0-0.6c0-0.1,0.1,0,0.2-0.1c0.1-0.1,0.2-0.2,0.3-0.4c0.1-0.2,0.2-0.2,0.6-0.2c5.4,0.1,13.8,0.9,18.2-0.4
				c3.4-1,5.1-1.9,6.6-4.8c0.7-1.4,1.7-3.7,1.7-3.7s-6.8,1.6-10.5,2c-4.5,0.5-9,1.2-9.1,1.4c-0.1,0.1-0.1,0.2-0.2,0.3
				c-0.2,0.2-0.7,0.3-1.3,0.4c-2.2,0.4-17.2,1.2-21.5,0.3c-1.3-0.3-2.9-0.6-3.3-0.5c-0.7,0.2-1.2,0.8-2,1.3
				c-1.5,0.9-5.4,2.1-7.2,2.1c-0.6,0-1.3,0-1.3,0s-0.1,0.7-0.2,1.1c-0.5,1.8-2.8,3.3-4.4,3.8c-1.8,0.6-4.3,1.4-4.4,1.6
				c-0.1,0.3,0.2,0.6,0.1,1.2c-0.2,2.5-3.8,5-5.9,6.1c-1.4,0.7-3.4,1.6-3.4,1.6s0.1,1.1,0.1,1.8c0,3.2-4,4.6-6.8,5.4
				c-1.6,0.5-11.3,2.2-12.3,2.3C243.3,113.8,242.5,113.8,242.5,113.8L242.5,113.8z M159.8,106.3l1.2,1c0,0-4.2,2.8-6.4,3.7
				c-2.7,1.2-5.4,2.1-5.7,2.4c-0.4,0.7,0.6,0.8,1.2,1.4c0.1,0.1-4.5,6.8-6.1,8.8c-2.6,3.3-7.3,14.4-9,18.6
				c-8.5,21.2-11.2,46.1-6.8,67.4c1.4,6.9,2.9,11.1,5.1,17.4c0.5,1.5,7.5,16.2,7.8,16.5c2.1,2,8.5,2.9,11.9,3.1
				c1.9,0.1,3.9,0.1,6-0.1c0.9-0.1,8.3-2.3,8.6-2.5c0.6-0.5,0.8-0.8,0.7-1.3c-0.1-0.5-1.9-3.4-3.1-5.3c-0.6-0.9-4.4-9.5-5.1-11.4
				c-3-8.6-4.9-15.2-6.1-24.9c-0.3-1.9-0.9-14.7-0.8-17c0.1-2.2,1.3-14.9,1.6-16.7c0.6-3.2,1.9-8.3,2.9-12.1
				c0.5-2,4.4-12.6,5.1-14.2c2.7-5.7,8.2-15.6,8.2-15.6l4,0.1c0.4,0,0.5,0,1-0.1c1.6-0.4,3.9-1.5,4.9-2.3c1.5-1.1,3.4-2.9,4-3
				c0.3-0.1,1.2,0.3,1.3,0.5c0,0.1,0,0.2,0,0.2c0,0.1-0.1,0.2-0.4,0.4l-8.9,6.3c0,0,0.6,0.4,1.2,0.7c3.8,1.9,9.7,1.1,12.6,0
				c1.7-0.6,4.3-1.7,5.7-2.7c0.9-0.6,3-2.8,3.6-2.3c0.3,0.3,0.2,0.4,0.5,0.4c0.1,0,0.1,0,0.5-0.3l12-9.4c0,0-12.3-2.2-14.2-2.9
				c-2.1-0.8-4.8-2.4-4.8-4.8c0-0.7,0.1-1.8,0.1-1.8s-2.8-1.3-4.4-2.1c-1.6-0.9-4.1-2.9-4.6-4.5c-0.3-0.8,0-1.5-0.3-2
				c-0.2-0.4-4.9-2-7-3.4c-0.7-0.4-1.2-0.9-1.5-1.8c-0.4-1-0.4-1.4-0.7-1.6c-0.7-0.4-3.7-0.5-5.7-1c-1.4-0.4-3.7-2.2-4.7-2.4
				c-0.5-0.1-2.3,0.4-3.8,0.7c-0.8,0.2-8.7,0.2-10.9,0c-3.6-0.3-6.5-0.5-10.9-1.1c-7.7-1.1-20.3-3.4-20.3-3.4s1.2,2.4,2,4
				c2.1,3.8,5.4,4.8,10.6,5.1c4.4,0.3,9.3-0.1,13.9-0.5c0.2,0,0.4,0,0.6,0.2c0.3,0.3,0.8,1.2,0.8,1.2s-1.1,0.3-2.1,0.5
				c-1.7,0.4-5.5,0.8-7.9,1c-3.9,0.2-10.4,0.6-10.4,0.6s2,2.5,3.2,3.6c2.8,2.5,8.6,2,12.5,0.7c2.8-0.9,7.1-2.1,7.4-2
				c0.4,0.1,0.8,1,0.6,1.3c-0.3,0.4-16.1,3.9-16.4,4.3c-0.3,0.3,0.3,1.1,1.8,2.4c2.3,1.9,5.8,1.9,9.3,0.8c3.5-1.1,8.9-3.4,9.3-3.2
				c0.4,0.2,0.8,0.6,0.6,1c-0.1,0.2-2.7,1.6-3.7,1.9c-4.2,1.4-10,3-10.3,3.4c-0.3,0.4,0.3,1.1,2.1,2.3c2.4,1.6,4,1.4,7.2,0.5
				c1.4-0.4,2.6-0.8,4.3-1.6C156.8,108,159.8,106.3,159.8,106.3L159.8,106.3z M168.5,112.5c0,0-1.3,0.8-1.6,1.2
				c-0.1,0.1-0.1,0.2-0.2,0.3c-0.2,0.4-2.4,1.4-3.5,2.1c-0.6,0.4-1,0.7-1.7,1.2c-1.3,0.8-3.8,1.8-3.8,1.8s0.5,0.4,1,0.7
				c0.6,0.4,3.9,1.6,4.5,1.6c4.6,0.4,6.2-1,12.3-4.8c0.4-0.2,0.5-0.2,0.9-0.1l0.9,0.4c0,0-2.4,1.9-4.3,3.2c-2,1.4-3.3,2.1-5,3.1
				c-0.4,0.2-0.4,0.3-0.4,0.3c0,0.3,0.2,0.3,0.6,0.7c0.6,0.5-1.3,1.8-2.3,2.7c-2.4,2.2-9.2,12.9-9.9,14c-5.6,9.1-11,22.6-13.2,32.9
				c-1.4,6.4-3,15.9-3,15.9s-0.7-4.9-1-8.5c-1-11.4,1.2-26.7,3.9-37.1c2.8-11.2,4.5-14.6,9.5-27.1c0.2-0.4,0.2-0.5,0.3-0.6
				c0.6-0.7,1.8,0.1,4.2,0.2c1.6,0.1,4.8-1.5,6.5-2.5c1.7-1,4.1-2.6,4.1-2.6L168.5,112.5L168.5,112.5z M288.5,112.5l1.2-0.9
				c0,0,2.2,1.4,3.8,2.4c2.9,1.7,5.6,3,8.5,2.7c1.1-0.1,2.6-0.4,2.6-0.4s6.9,18.5,8.6,23.8c3.2,10.3,4.6,21.3,5.1,32
				c0.1,2.9,0,8.6-0.1,10.1c-0.2,1.5-0.5,3-0.5,4.4c0,0.8,0.1,1.7-0.2,2.5c-0.1,0.4-0.4,0.8-0.4,0.8s-1-7.2-1.7-11.6
				c-2.8-15.8-11.1-33.5-19.5-45.4c-1.2-1.7-2.6-3.5-4.1-5.2c-0.9-1-3.3-2.9-2.9-3.4c0.2-0.2,0.9-0.6,0.9-0.6s-2.8-1.6-5.4-3.4
				c-2.2-1.5-4.4-3.2-4.4-3.2s0.2-0.3,0.4-0.4c0.3-0.3,0.4-0.3,0.6-0.2c0.8,0.4,2.9,2,4.6,3c3,1.7,5.6,2.3,8.4,2
				c0.6-0.1,3.7-1.2,4.3-1.6c0.5-0.3,1-0.7,1-0.7s-1.7-0.8-2.9-1.5c-1.9-0.9-4.5-2.5-5.5-3.3C289.7,113.5,288.5,112.5,288.5,112.5
				L288.5,112.5z"/>
		</g>
		<g>
			<path class="st6" d="M160.6,245.1c0,0-2.3,0.5-4.1,0.7c-0.8,0.1-4.8-0.2-5.9-0.5c-3.2-0.7-7.4-1.3-8.4-2.1
				c-0.3-0.3-2-3.3-2.7-4.9c-1.1-2.6-2.6-5.4-3.8-8.2c-3-6.8-5.8-16.6-7-23.8c-3-17.3-1.5-34.6,3.3-52.1c2.6-9.4,7.8-22.3,13.4-31
				c1.5-2.3,3.2-4.6,4.3-6.4c0.3-0.4,0.8-0.9,1.1-1c0.2,0,0.5,0,0.5,0s-5,12.6-7.3,19.7c-3,9-4.3,16.9-5.7,26.4
				c-0.4,2.6-0.9,9.9-0.8,10.8c0.1,0.6,0.1,1.2,0.2,1.8c0.1,1.2,0,2.7,0,4.1c0,1.5,0.8,10.2,1.2,12.8c2.3,15,6.9,28.2,15.1,42.5
				C156.6,238.4,160.6,245.1,160.6,245.1L160.6,245.1z M329.3,177.8c1.2,13.8,0.1,27.5-4,40.6c-1.1,3.6-2.4,6.9-3.9,10.9
				c-0.6,1.7-6.2,13.4-6.6,13.7c-0.3,0.2-0.5,0.4-0.9,0.6c-0.6,0.3-5.1,1.4-6.7,1.6c-2.6,0.4-5,0.5-6.8,0.6c-0.8,0-3.9-0.5-4-0.7
				c-0.2-0.3,7.2-13,11.7-21.8c4.6-8.9,8.8-24.1,10-33.6c1.4-10.4,1.3-22.4-0.3-32.6c-0.4-2.7-2.5-12.2-3.9-17.7
				c-0.5-2-3.8-11.9-4.4-13.1c-1.2-2.4-4.3-10.2-4.2-10.4c0.1-0.1,0.3-0.2,0.5-0.1c0.3,0.1,2.3,2.4,3,3.4c1,1.4,7.9,14.1,8.9,16.2
				c2.7,5.9,4.5,10.4,6.5,16.9C326.8,160.4,328.6,169.1,329.3,177.8L329.3,177.8z"/>
		</g>
		<g>
			<path class="st4" d="M185.1,134.6l26.9,11.8l4.6,8.5l5.4,4.6l-13.5-6.1L185.1,134.6L185.1,134.6z M224.9,159.5l-3.8-5.5l2.5-8.6
				L207,133.6l10.6,19.9L224.9,159.5L224.9,159.5z M228.4,161.4l-5.4-7.6l5.2-19.9l5.4,20L228.4,161.4L228.4,161.4z M271.7,134.6
				l-26.9,11.8l-4.6,8.5l-5.4,4.6l13.5-6.1L271.7,134.6L271.7,134.6z M231.9,159.5l3.8-5.5l-2.5-8.6l16.6-11.7l-10.6,19.9
				L231.9,159.5L231.9,159.5z M143.8,247.3c0,0,2.3,4.5,4.3,7.9c3.6,6.4,8.1,12.2,12.7,17.2c1.4,1.6,9.4,9,11,10.3
				c15.2,12.1,33.2,19.1,52.5,20.1c23,1.2,46.4-7.4,63.5-22.3c4.2-3.6,10.3-10.2,14.1-14.8c1.2-1.5,4.8-6.8,6.1-8.9
				c2.3-3.8,5.2-9.2,5.2-9.2s-4.4,0.9-8,1.3c-1.2,0.1-8.8-0.2-10.3-0.4c-1-0.1-2.1-0.3-3.6-0.9c-1.4-0.5-3.4-1.3-3.4-1.3
				s-0.9,1.5-1.8,2.7c-7,10.3-19.3,19.4-29.1,23.8c-20.3,9.1-43.1,8.4-63.2-3.1c-6.2-3.6-14.2-9.9-18.8-15.6
				c-2.5-3.1-5.9-7.8-5.9-7.8s-2.2,0.8-3.9,1.4c-1.1,0.3-6.4,1.1-7.6,1.2c-3.2,0.1-8,0.2-11.4-0.8
				C145.1,247.7,143.8,247.3,143.8,247.3L143.8,247.3z"/>
		</g>
		<g>
			<path class="st7" d="M286.9,189.8l-2.5-18.3l-0.8-0.8c0,0,0.9,5.9,1.1,8.5c0.1,0.7,0.1,1.2,0,1.6c-0.1,0.7-0.5,1.4-0.8,2.2
				c-0.2,0.7-0.3,2.7-0.2,3.2c0.1,0.6,0.8,1.8,2,2.7C286.3,189.4,286.9,189.8,286.9,189.8L286.9,189.8z M173.5,171.4h-0.9
				c0,0-2.6,14.1-2.7,16.1c0,1.2,0,2.4,0,2.4s0.3-0.2,0.7-0.4c1.1-0.7,2.9-3,2.9-3s-0.5-3-0.9-4.5c-0.2-0.8-0.4-1.1-0.5-1.6
				c-0.1-0.5,0.2-2.5,0.7-5C173.1,173.7,173.5,171.4,173.5,171.4L173.5,171.4z M286.4,171.7H286l3,18.6c0,0,1.5-1.4,2-2.1
				c0.7-0.9,0.6-2.2,0.2-3.1c-0.8-1.8-2.6-3.9-3.2-5.4c-0.5-1.3-0.6-5.5-1.2-7.6c0-0.1-0.1-0.2-0.1-0.3
				C286.6,171.7,286.6,171.7,286.4,171.7L286.4,171.7z M168,190c0,0,1.8-10.7,2.7-15.8c0.2-1.2,0.3-2.1,0.1-2.3
				c-0.1-0.1-0.2-0.1-0.5,0c0,0-0.1,0.1-0.1,0.1c0,0-0.1,0.1-0.1,0.5c-0.3,2.4-0.9,6.7-1.2,7.3c-0.8,2-4.2,5-3.4,7.5
				c0.2,0.5,1.2,2.2,1.8,2.5C167.7,189.9,168,190,168,190L168,190z M170.4,192.7c-0.3,0.9,1,2.1,1.6,2.1c1.7,0.2,3.5-2.3,4.1-3.3
				c0.4-0.7,4.7-12.1,4.6-12.3c-0.1-0.2-0.5-0.2-0.7,0c-0.5,0.5-0.7,2.4-1.4,4c-0.4,0.9-6.3,6.4-7.2,7.8
				C170.9,191.6,170.6,192.3,170.4,192.7L170.4,192.7z M283,194.3c0.3,0.3,1.2,0.6,1.7,0.6c0.8,0,1.8-1,1.7-2c0-0.3-0.2-0.6-0.3-1
				c-0.7-1.2-7.6-8.3-7.9-9.1c-0.5-1.3-0.6-2.9-1.4-3.4c-0.2-0.1-0.4-0.1-0.5,0c-0.1,0.1,1.1,4.2,1.8,6
				C279.1,187.9,280.5,192,283,194.3L283,194.3z M161.9,183c0,0,0.6,10,1,11.7c0.5,2.3,2.6,6,4.9,5.5c1.4-0.3,2.7-2.3,2.6-3.7
				c-0.1-0.7-0.5-1.3-1.3-2.2c-1.2-1.3-5.7-5.3-6.3-7.6c-0.3-1.1-0.3-3.8-0.3-3.8L161.9,183L161.9,183z M294.9,182.9h-0.7l-0.1,3
				c0,0.4,0,0.5-0.2,0.9c-1.5,3.5-3,3.9-6,7.2c-1.6,1.8-2.1,3.1-1,4.5c0.9,1.2,2.3,2.1,3.8,1.4c1-0.5,2.1-2.6,2.6-3.7
				c0.4-1.1,0.8-2.3,1-3.6C294.7,189.8,294.9,182.9,294.9,182.9L294.9,182.9z M170.2,202c-0.5,1.3,0,2.2,0.6,2.7
				c1.3,1,2.5,0,3.4-1.3c0.5-0.8,1.2-2.2,1.8-3.8c0.7-1.8,3-9.6,2.9-9.8c-0.5-0.7-0.8,1-1.4,2.5c-0.4,1-3.9,4.8-6,7.6
				C170.9,200.6,170.4,201.4,170.2,202L170.2,202z M278,190c0.7,2.8,2.9,10,3.4,11.1c0.7,1.6,2.5,4.9,4.6,3.6c0.4-0.2,0.8-0.9,1-1.4
				c0.2-0.8-1.3-3.1-2.3-4.3c-3.8-5.3-5.1-5.2-6.1-9c0-0.1,0-0.1-0.2-0.1C278.3,189.8,277.9,189.8,278,190L278,190z M160.3,193.8
				c0.5,2.6,1.9,9.1,2.3,10.4c0.7,2.1,3,6.9,5.4,7.2c1.2,0.1,1.9-0.4,2.6-1.8c1.7-3.4-2.8-5.2-6.2-8.3c-1-0.9-2.3-2.3-2.7-3.3
				c-0.4-1.2-0.7-3.6-0.8-4.2c0-0.1,0-0.1-0.2-0.1C160.6,193.6,160.3,193.7,160.3,193.8L160.3,193.8z M285.9,207.6
				c-0.4,1,0.4,2.2,1.2,3.1c0.6,0.8,1.6,1,2.6,0.4c2.3-1.3,3.8-4.8,4.7-7.1c0.4-1,2.5-10.1,2.3-10.2c-0.2-0.2-0.4-0.2-0.6,0
				c-0.3,0.4-0.8,2.2-0.9,3c0,0.5,0,0.7,0,1c0,0.3-2,2.9-2.6,3.4C291.9,201.9,286.7,205.4,285.9,207.6L285.9,207.6z M178.3,199.2
				H178c-0.1,0-0.2,0-0.3,0.5c-0.8,1.8-1.5,3.6-2.5,5.5c-2.3,4.3-5.7,7.3-3,9.6c0.5,0.4,1.5,0.7,2,0.2c0.6-0.5,1.3-2.1,1.5-2.6
				C176.4,210.7,178.3,199.2,178.3,199.2L178.3,199.2z M279,199.2h-0.3c0,0,1.3,8.9,2,11.9c0.3,1,1.4,3.9,2.5,4
				c0.5,0.1,1.1,0,1.3-0.2c0.5-0.4,1.5-1.7,1.5-1.7s-0.7-1.9-1.3-3.3c-0.5-1.2-1.6-2.6-2.4-3.8c-0.5-0.8-2.7-4.7-3.1-6.5
				C279.1,199.3,279.1,199.2,279,199.2L279,199.2z M161.5,206.7c-0.1,0.1,0,0.3,0,0.5c0.7,3.7,4.3,13.5,7.8,15.6
				c0.5,0.3,1.7,0.6,2.2-0.1c0.2-0.2,0.2-0.7,0.4-1.2c0.6-1.7,1.2-1.6,1-2.4c-0.1-0.4-0.4-0.9-0.8-1.5c-0.5-0.6-5.6-4.8-7.7-6.4
				c-0.5-0.4-0.9-0.9-1.2-1.4C163,209.6,162.3,205.6,161.5,206.7L161.5,206.7z M284,219.4c0.1,0.6,1.2,3.3,1.5,3.6
				c0.2,0.2,1.1,0.4,1.4,0.3c1.1-0.4,2.6-2.1,3.6-3.5c0.8-1.2,1.3-2.4,2-4c0.6-1.3,3.1-8.8,2.9-9c-0.2-0.3-0.5-0.3-0.8,0.1
				c-0.5,0.7-0.8,2.4-1.2,3.4c-0.3,0.6-0.7,1-1.2,1.4c-1.9,1.6-6.7,4.8-7.4,5.8C284.4,218.1,284,219.1,284,219.4L284,219.4z
				 M278,210.2c0,0,0.3,6.6,0.8,10.5c0.2,1.6,1,6.1,2.5,6.4c1.4,0.3,2.6-0.9,2.8-2.3c0.1-0.4,0-0.9-0.1-1.4
				c-0.3-1.3-3.5-6.9-4.6-9.4c-0.2-0.5-0.4-0.9-0.5-1.8c-0.2-0.9-0.3-2.2-0.3-2.2L278,210.2L278,210.2z M178.9,210.2h-0.6
				c0,0-0.1,1.1-0.3,2c-0.2,1.2-4.7,9.7-5.1,11.4c-0.3,1.2,0.3,3,1.8,3.5c2.2,0.8,3-3.3,3.3-6.1
				C178.5,216.9,178.9,210.2,178.9,210.2L178.9,210.2z M174.1,233.5c1.3,0.1,2.2-0.4,2.5-1.5c0.1-0.5,0-1.1-0.2-1.4
				c-0.3-0.6-6.9-5.3-9.5-7.5c-0.6-0.5-1-0.9-1.4-1.6c-0.5-0.9-0.9-2.2-1.3-2.6c-0.2-0.2-0.4-0.2-0.5,0c-0.1,0.2,1.7,4.7,2.7,6.6
				c1.3,2.6,3.6,7,6.6,7.8C173.4,233.4,173.8,233.5,174.1,233.5L174.1,233.5z M280.5,230.6c-0.5,0.4,0,1.6,0,1.6
				c0.7,1.2,1.1,1.4,2.5,1.2c2.6-0.3,4.4-2.6,5.8-4.9c0.7-1.1,4.6-9.6,4.5-9.7c-0.6-0.7-1.6,2.1-2.9,3.9
				C289.8,223.6,282.9,228.6,280.5,230.6L280.5,230.6z M179.4,223.1c0,0.5,0.2,1.3,0.3,2c0.1,0.6-0.3,2.9-0.6,3.8
				c-1.2,3.4-2.6,6.3-0.1,7.2c0.4,0.2,1.7,0.2,2,0c0.6-0.3,1.1-1.4,1.2-2.4c0.1-0.6-1.8-10.7-2-11c-0.1-0.1-0.2-0.1-0.3,0
				C179.6,222.8,179.4,223,179.4,223.1L179.4,223.1z M274.8,233.3c-0.1,0.5,0.2,1.7,0.2,1.7c0.4,1.2,1.4,1.6,2.8,1.1
				c2.8-0.9,1-3.6-0.3-8.4c-0.2-0.8-0.3-2.6-0.2-3.7c0-0.6,0.1-1.2,0.1-1.2H277l-2,9.7C274.8,232.9,274.8,232.9,274.8,233.3
				L274.8,233.3z M167.7,230.8h-0.3v0.2c0,0.1,0,0.1,0.3,0.5c3.2,4.7,6.3,9.5,10.4,10.6c0.6,0.2,1.4,0.2,1.8,0
				c0.3-0.2,1.2-1.3,1.4-1.7c0.3-0.8,0.1-1.2-0.8-1.7c-1.6-1.1-9.1-4-10-4.8c-0.8-0.6-1.6-1.8-2.4-2.7
				C167.9,230.8,167.8,230.8,167.7,230.8L167.7,230.8z M275.7,239.6c-0.1,1.2-0.1,1.7,1.1,2.3c2.7,1.5,7-2.4,9.1-5.5
				c0.9-1.3,1.6-2.8,2.7-4c0.7-0.7,1.3-1.2,1-1.6c-0.5-0.6-2,1.9-2.9,2.9c-0.4,0.4-1.9,1.3-2.9,1.7c-1.2,0.5-6.9,2.3-7.8,3.8
				C275.8,239.3,275.7,239.4,275.7,239.6L275.7,239.6z M183.7,232.7c0,0,0.2,1.3,0.3,2.5c0.1,1.5-1.4,7.8-1.2,8.4
				c0.4,1,1.5,1.6,3.4,1.5c1.5-0.1,1.6-2.3,1.2-4c-0.2-1-2.1-5.7-3.2-8.5c-0.2-0.4-0.2-0.5-0.3-0.5h-0.3v0.7H183.7L183.7,232.7z
				 M273.7,232.2L273,232c0,0-2.3,5-3.2,7.8c-0.4,1.3-0.8,4.1,0.2,4.9c0.4,0.4,2.1,0.4,2.9,0.1c1.1-0.5,1.4-1.5,1.2-2.8
				c-0.2-1.9-1.7-6.9-1.1-8.4C273.3,232.9,273.7,232.2,273.7,232.2L273.7,232.2z M184.4,251.3c2,0.5,3.2,0.4,3.5-1.4
				c0.2-1.4-0.5-1.9-2-2.6c-2.1-1-6.3-2.2-8.6-3.1c-0.6-0.2-1.2-0.5-1.7-1c-1.2-1-2.2-2.7-2.7-2.2c-0.1,0.1-0.1,0.3,0,0.6
				c0.1,0.4,5.4,5.9,6.4,6.7C180,248.9,182.6,250.8,184.4,251.3L184.4,251.3z M269.2,248.7c-0.7,0.7,0.2,2.2,0.6,2.5
				c1.8,1.3,5.6-1.1,7.2-2.3c0.7-0.5,7.2-7.6,7.1-7.7c-0.2-0.3-0.8-0.2-1.6,0.8c-0.3,0.3-0.4,0.6-0.6,0.9c-0.3,0.4-1.3,0.9-2.2,1.2
				c-2.9,1.1-8.5,2.9-9.1,3.3C270.1,247.8,269.5,248.3,269.2,248.7L269.2,248.7z M189.1,242.1c-0.1,0.1,0,0.2,0,0.3
				c0.2,0.6,0.6,0.9,0.9,1.3c0.2,0.4,0.4,1.3,0.3,2.1c-0.1,4.3-1.2,8.1,3,8.5c1.1,0.1,1.8-0.5,1.9-1.6c0.2-1.6-1.6-4.6-2.4-6.2
				c-0.6-1.1-3.1-4.6-3.3-4.6C189.4,242,189.2,242,189.1,242.1L189.1,242.1z M267,242.5c-1.8,2.5-5.6,7.3-5.3,10.7
				c0.1,1.1,0.8,1.4,1.9,1.2c2-0.4,2.7-0.8,2.9-2.5c0.2-1.8,0.1-4.8,0.1-6.7c0-0.4,0-0.8,0.2-1.2c0.4-0.7,1.4-1.5,1-2
				C267.8,241.8,267.3,242,267,242.5L267,242.5z M196.6,250.7c-0.1,0.1,0,0.2,0,0.3c0.2,0.7,0.6,0.9,0.8,1.4c0.2,0.3,0.2,5.8,0,6.4
				c-0.4,1.4-0.5,2.6,1.1,3.4c0.9,0.5,2.9,0.7,3.2,0.1c0.8-1.6-0.4-4.1-1.2-5.8c-0.5-1.2-3.3-5.9-3.5-5.9
				C196.9,250.6,196.7,250.6,196.6,250.7L196.6,250.7z M254.9,260.6c-0.3,2.1,0.9,2.4,2.5,2c1.4-0.4,2-0.9,2.2-2.2
				c0.2-1.5-0.5-6.8-0.3-7.6c0.2-0.6,1-1.8,0.8-2.1c-0.1-0.1-0.3-0.1-0.5,0c-0.2,0.1-4.2,7.1-4.4,7.8
				C255.1,259.3,255,260.1,254.9,260.6L254.9,260.6z M193.5,260.4c1.2,0.2,1.8,0.1,2-0.3c0.8-1.6,0.6-2.1-0.5-2.7
				c-1.8-1-11.3-4-12.2-4.6c-1.1-0.8-2.1-1.8-2.5-1.5c-1,0.7,3.9,3.3,5.3,4.4c0.7,0.5,1.1,1.1,1.7,1.6
				C188.5,258.4,191.5,260,193.5,260.4L193.5,260.4z M261.3,257.8c-0.6,1.1-0.2,2.4,0.5,2.6c2.2,0.6,6-1.9,7.8-3.1
				c1.6-1.1,6.9-5.3,7.1-5.6c0.1-0.2,0.1-0.4,0-0.4c-0.3-0.1-2.9,1.6-4.8,2.5c-1,0.5-1.9,0.8-2.9,1.1c-3,0.8-5.2,1.2-7.4,2.6
				C261.6,257.6,261.4,257.7,261.3,257.8L261.3,257.8z M196.1,263.4c7.7,4.9,10.2,6.1,18.4,8.5c0.9,0.3,1.6,0.5,2.9,0.7
				c1.6,0.2,4,0.4,4,0.4s-4.4-2.8-7.4-4.6c-1.2-0.8-7.1-5.2-7.6-5.8c-1.2-1.3-2.6-3.2-2.6-3.2s-0.1,2.1-0.3,3.2
				c-0.4,1.8-1.7,2.2-3.7,2c-1.4-0.2-1.2-0.5-3.3-1.7c-0.4-0.2-0.8-0.4-0.9-0.3c0,0.1,0,0.2,0,0.3
				C195.7,263.2,195.7,263.2,196.1,263.4L196.1,263.4z M235.9,272.9v0.2c0,0,3.9-0.5,6.6-1c1.1-0.2,6.3-2.1,8.3-3
				c1.6-0.7,10.6-5.8,10.6-6c0.1-0.3-0.1-0.6-0.5-0.5c-0.5,0.2-1.5,0.9-2.3,1.4c-1.8,1.2-3.9,0.9-4.9-0.1c-0.2-0.2-0.7-1.7-0.7-2.3
				c0-0.9,0-2.1,0-2.1s-1.2,1.6-2,2.5c-0.9,1-1.3,1.4-1.9,1.9c-1.6,1.3-8.5,5.8-12.8,8.6C236,272.7,235.9,272.8,235.9,272.9
				L235.9,272.9z"/>
		</g>
		<g>
			<path class="st8" d="M166.1,78.5c1-4.3,3.5-6.1,6.4-9.5c0.2-0.2,0.3-0.4,0.5-0.5c2.1-1.9,3.3,1.4,3.8,2.3
				c4.2,6.8,5.1,8.1,10.2,14.4c4.6,5.6,12.1,12.2,18,15.9c3.3,2.1,6.9,3.6,10.9,3.6c0.6,0,0.8,0,0.8,0l-1.5,3.3l-1.6,4.3
				c0,0-0.2,0-0.6-0.1c-3.3-0.4-10-1.3-13.1-2.3c-2.5-0.8-4.4-2.5-3.8-5.4c0.1-0.6,0.2-0.9,0.2-0.9l-4.8-2.3c0,0-0.3-0.3-1.1-0.8
				c-2.2-1.7-3.9-2.4-3.7-5.5c0-0.3,0-0.6,0-0.6s-2.7-1-3.4-1.3c-2.9-1.1-5.4-1.9-5.4-5.2c0-0.2,0-0.3,0-0.3s-0.4,0-1-0.1
				c-3.6-0.4-4.5-0.3-7.9-1.8c-1.5-0.6-3.4-1.7-3.6-2.9C165.2,81.5,165.6,79.9,166.1,78.5L166.1,78.5z M242.3,102.1
				c-0.1-0.5-0.3-0.9-0.3-0.9l-1.7-5l-1.6-4.6c0,0,0,0.5,0,1.7c0,6-0.5,8.7-3.2,14.1c-0.3,0.6-0.3,0.7-0.3,0.7l5.6,4.5l1-0.1
				l6.7-0.9c3.2-0.5,6.8-1.1,8.9-1.8c2.5-0.8,4.4-2.5,3.8-5.4c-0.1-0.6-0.2-0.9-0.2-0.9l4.8-2.3c0,0,0.3-0.3,1.1-0.8
				c2.2-1.7,3.9-2.4,3.7-5.5c0-0.3,0-0.6,0-0.6s2.7-1,3.4-1.3c2.9-1.1,5.4-1.9,5.4-5.2c0-0.2,0-0.3,0-0.3s0.4,0,1-0.1
				c3.6-0.4,4.5-0.3,7.9-1.8c1.5-0.6,3.4-1.7,3.6-2.9c0.2-1.2-0.3-2.7-0.7-4.2c-1-4.3-3.5-6.1-6.4-9.5c-0.2-0.2-0.3-0.4-0.5-0.5
				c-2.1-1.9-3.3,1.4-3.8,2.3c-4.2,6.8-5.1,8.1-10.2,14.4c-4.6,5.6-12.1,12.2-18,15.9c-2,1.2-4,2.3-6.2,2.9
				C242.8,104.8,242.6,103.1,242.3,102.1L242.3,102.1z"/>
		</g>
		<g>
			<path class="st9" d="M163.7,39.5l32.6-0.2l6.7,8.3L163.7,39.5L163.7,39.5z M178.5,17.1L217,34.8l-2.3,9.2L178.5,17.1L178.5,17.1z
				 M203.2,6.3l17.5,18l-3.1,9.4L203.2,6.3L203.2,6.3z M239.7,34.7l10.1-5l3.8-23.4l-14.2,27.6L228.4,0.2v42c0,0-0.1,0-1.1,0.1
				c-9.9,0.2-28.6,5.1-35.6,12.7c-0.3,0.4-0.4,0.5-0.4,0.5s0.2-0.1,1.7-0.7c12.6-5.8,24.1-8.8,35.9-8.7c15.5,0.2,24.4,3.8,36.1,8.9
				c0.8,0.3,1,0.5,1,0.5l-3.6-3.8l31-12.3l-39.3,7.9l24.7-30.3l-36.2,26.5L239.7,34.7L239.7,34.7z"/>
		</g>
		<g>
			<polygon class="st10" points="278.8,17.2 276.1,20.6 279,17.1 278.8,17.2 			"/>
		</g>
		<g>
			<polygon class="st10" points="261.1,38.9 254.2,47.4 293.5,39.5 261.1,38.9 			"/>
		</g>
		<g>
			<path class="st10" d="M195.5,51.8c8.5-5.8,23.4-9.3,31.8-9.5c1-0.1,1.1-0.1,1.1-0.1v-42l0.2,0.6L228.4,0l-7.7,24.3l-3.1,9.4
				L203.2,6.3l3.8,23.9l10.1,4.6l-2.3,9.2l-36.2-26.9l1.2,0.6l-1.4-0.7l18,22.3l-32.8,0.2L195.5,51.8L195.5,51.8z M196.3,39.3
				l6.7,8.3l-39.3-8.1L196.3,39.3L196.3,39.3z"/>
		</g>
		<g>
			<polygon class="st10" points="236.1,23.8 239.5,33.9 253.6,6.3 236.1,23.8 			"/>
		</g>
		<g>
			<polygon class="st10" points="249.8,29.7 239.7,34.7 242.6,43.6 278.6,17.3 249.8,29.7 			"/>
		</g>
		<g>
			<path class="st11" d="M266.3,174.1l-37.9-7h-1.3l-35.6,6.5c-0.4,0.1-0.5,0.1-0.7,0.5c-0.5,1-1,2.1-1.5,3.2
				c-0.6,1.4-2.5,8-2.9,9.9c-2.6,12.7-2.3,23.3,1.6,36c3.3,10.8,9.8,22.1,17.4,29.8c1.8,1.8,7.6,7,10.7,9.5c1.2,1,7.4,5.1,8.7,5.8
				c1.7,0.9,3.8,1.9,3.8,1.9s4.8-2.6,8.3-4.8c1.2-0.8,9.4-7.1,10.5-8.2c10.1-9.8,17.5-20.5,21.8-34.6c4-13.2,3.9-24.8,0.9-37.5
				c-0.4-1.8-0.9-3.5-1.8-5.9C267.5,177.1,266.3,174.1,266.3,174.1L266.3,174.1z"/>
		</g>
		<g>
			<path class="st12" d="M165.1,265.2l1.1,1.2l6.2-5.7l-1.1-1.2L165.1,265.2L165.1,265.2z M165.6,266.9l-1.1-1.2l-1.2,1.1l1,1.3
				L165.6,266.9L165.6,266.9z M167.7,271.6l7.3-7.9l1.1,1.1l-3.1,3.3l4.9-1.9l1,1.1l-5.2,2.1l-2,6.1l-1.4-1.3l1.9-5.2l-3.5,3.6
				L167.7,271.6L167.7,271.6z M175,278.1l6.5-8.9l3.4,2.7l-0.9,1.2l-2-1.5l-1.9,2.5l2,1.3l-1,1.2l-1.9-1.4l-2,2.8l2,1.5l-1.1,1.2
				L175,278.1L175,278.1z M187,286.3l5.1-9.8l3.7,2.2l-0.7,1.3l-2.2-1.2l-1.5,2.8l2.1,1l-0.8,1.4l-2.1-1.1l-1.5,3l2.2,1.2l-0.9,1.4
				L187,286.3L187,286.3z M198.4,279.9l-0.6,1.6l1.6,0.7l0.7-1.6L198.4,279.9L198.4,279.9z M195.2,288.3l-0.8,1.6l1.6,0.8l0.9-1.7
				L195.2,288.3L195.2,288.3z M204.3,293.6l6.1-9.9l1.4,0.4l-5.9,9.7L204.3,293.6L204.3,293.6z M214.5,284.8h1.5l1,3.7l1.8-3.1
				l1.8,0.2l-3.1,4.9l1.5,5.7l-1.7-0.1l-1-4l-2,3.6l-1.6-0.3l3-5.2L214.5,284.8L214.5,284.8z M225.4,294.1h2.2l0.5,2.7l1.6-0.1
				l-2.1-10.8h-1.8l-2.8,10.8h1.9L225.4,294.1L225.4,294.1z M227.3,292.7h-1.6l0.9-4.3L227.3,292.7L227.3,292.7z M233.8,296.6
				l1.7-0.1l-0.4-4.8c0,0,0.1,0,0.2,0c1.6-0.1,1.5,1.3,1.6,2.4c0.1,0.9,0.2,2.2,0.2,2.2l1.5-0.1c0,0-0.1-1.5-0.2-2.1
				c-0.1-0.9-0.1-2.7-1.2-3.1c-0.2-0.1-0.4-0.2-0.4-0.2s0.2-0.1,0.3-0.2c0.1-0.1,0.2-0.1,0.3-0.2c0.8-0.6,0.5-1.9,0.5-2.8
				c0-0.2,0-0.3,0-0.4c-0.1-1.5-1-1.8-2.4-1.7c-0.7,0.1-2.4,0.2-2.4,0.2L233.8,296.6L233.8,296.6z M234.9,290.5l-0.2-3.4
				c0,0,0.2,0,0.4-0.1c0.9-0.2,1,0.1,1.2,0.9c0,0.1,0,0.2,0,0.2s0,0.2,0,0.6c0.1,0.7,0.2,2-0.8,1.9
				C235.4,290.6,234.9,290.5,234.9,290.5L234.9,290.5z M243.6,295.6l1.7-0.3l-0.9-4.7c0,0,0.1,0,0.2,0c1.6-0.3,1.7,1.1,1.9,2.2
				c0.2,0.9,0.5,2.1,0.5,2.1l1.5-0.3c0,0-0.3-1.4-0.4-2.1c-0.2-0.9-0.4-2.6-1.5-2.9c-0.2,0-0.4-0.1-0.4-0.1s0.1-0.1,0.3-0.2
				c0.1-0.1,0.2-0.1,0.2-0.2c0.8-0.7,0.3-1.9,0.1-2.8c0-0.2-0.1-0.3-0.1-0.4c-0.3-1.5-1.2-1.7-2.5-1.4c-0.7,0.1-2.4,0.5-2.4,0.5
				L243.6,295.6L243.6,295.6z M244,289.5l-0.6-3.4c0,0,0.2-0.1,0.4-0.1c0.9-0.3,1-0.1,1.3,0.7c0,0.1,0.1,0.2,0.1,0.2s0,0.2,0.1,0.6
				c0.1,0.7,0.4,2-0.6,2C244.5,289.4,244,289.5,244,289.5L244,289.5z M253.8,290.2l2-0.8l1.4,2.5l1.5-0.8l-5.8-9.3l-1.5,0.6
				l1.1,10.8l1.6-0.5L253.8,290.2L253.8,290.2z M255.2,288.2l-1.6,0.6l-0.7-4.6L255.2,288.2L255.2,288.2z M267.9,287.4l-2.5-11.2
				l1.2-0.8l2.5,11.3L267.9,287.4L267.9,287.4z M271.2,272.3l1.3-0.9l3.8,10.7l-1.2,1.1L271.2,272.3L271.2,272.3z M275,269.8
				l7.1,8.3l1.1-1.1l-3.1-3.6l4.8,2.2l1.5-1.2l-5.9-2.6l-1.1-5.5l-1.2,1.1l1.1,5.1l-3-3.6L275,269.8L275,269.8z M281.6,263.7
				l2.7-3.1l1,1.1l-1.7,1.8l2.4,2.2l1.6-1.8l1.1,1.1l-1.6,1.7l2.4,2.3l1.8-2l1.1,1.2l-2.9,3.1L281.6,263.7L281.6,263.7z"/>
		</g>
		<g>
			<path class="st8" d="M167.6,243c0,0-1.2-2-2.2-3.6c-2.8-4.8-5.8-12.1-7.3-16.7c-0.6-1.7-4-15.8-4.4-17.9
				c-1.1-6.6-1.7-14.3-1.4-21.6c0.2-7.5,1.8-19.1,4.2-27.1c1.4-4.8,4.6-14,6.6-17.8c2.9-5.4,6.9-13,6.8-13.2
				c-0.8-1.1-6.4,6.1-7.6,7.8c-1.5,2.1-8.2,13.1-9.1,14.9c-1,1.9-5.3,12.3-6.2,14.9c-0.9,2.6-1.7,5.2-2.5,8c-1.9,7-4.2,19.2-3.9,24
				c0.1,0.9,2.5,10.9,3.1,12.6c2.6,7.6,5.6,15.6,9.2,22.4c3.1,5.8,8.9,15.2,8.9,15.2L167.6,243L167.6,243z"/>
		</g>
		<g>
			<path class="st8" d="M295.3,244.8c0,0,5.4-8.9,8.7-15c3.9-7.2,6.6-14.6,9.2-22.2c0.6-1.7,3.1-11.9,3.1-12.8
				c0.2-4.8-2.2-17.8-3.5-22.9c-3.1-11.9-9.9-27-16.5-36.7c-1.2-1.7-6.7-8.5-7.7-9.5c-0.4-0.3-0.7-0.7-1-0.8c-0.6-0.1-0.6,0.4-0.4,1
				c0.2,0.8,4,7.4,6.2,11.5c2.3,4.3,6.2,15.3,7.7,20.8c1.9,7.1,3.2,18.2,3.5,25.1c0.3,6.7-0.1,12.1-1,18.9
				c-1.5,11.1-5.6,26.2-11.8,36.7c-1.1,1.8-2.5,4.1-2.5,4.1s1.5,0.6,3,1.1C293.8,244.5,295.3,244.8,295.3,244.8L295.3,244.8z"/>
		</g>
		<g>
			<path class="st8" d="M193.8,176.9c0,0-0.6,1.4-1.1,2.6c-2,4.8-3.1,11.5-3.7,16.5c-1.3,11.7,1.3,24.9,6.3,35.4
				c0.8,1.6,5.4,9.5,6.6,11.1c3.3,4.7,6.4,7.8,10.7,12c1.3,1.3,7.2,6.1,8.5,6.9c3.1,2,7.4,4.4,7.4,4.4s2.8-1.4,5.1-2.6
				c1-0.5,8.6-6.5,9.7-7.5c7.6-7.4,11.7-11.6,16.8-21c1-1.8,4.5-9.8,5.1-11.4c3.8-11.5,4.5-28,0.1-40.7c-0.8-2.2-2-5.3-2-5.3
				l-34.7-6.5L193.8,176.9L193.8,176.9z"/>
		</g>
		<g>
			<path class="st13" d="M209.6,210.8l4.9,3.5c0,0,0.5-1.5,0.8-2.7c0.5-2.2,0.5-10.3,0.4-12.3c-0.2-2.2-0.5-4.9-0.5-4.9
				s1,1.2,1.7,2.1c0.7,0.9,2.2,2.3,2.5,2.4c2.3,0.6,4.8-2,6.2-4.6c0.3-0.7,0.8-1.5,0.8-1.5l-2.5-1.5c0,0-1.3,0.9-2.2,2
				c-1,1.1-1.6,2.6-1.6,2.6s-1-1.3-1-1.8c0-0.4,0.5-0.4,0.8-0.7c0.5-0.6,0.3-1.6-0.3-2c-0.6-0.4-2-0.6-2.6-0.5
				c-0.8,0.2-2,0.6-2.1,0.4c-0.1-0.1,0-0.4,0.1-0.5c0.5-0.3,1.7-0.1,2.1-0.4c0.7-0.5-1.5-2.5-2-2.9c-0.4-0.4-1.9-1-2.5-1
				c-0.8-0.1-1.8,0-1.8,0v-1.4c0,0,1,0.3,1.5,0.1c0.7-0.1,1.1-1.6,0.9-2.1c-0.2-0.7-1-1.2-1.2-2c-0.1-0.7,0.3-1.7,0.1-2.1
				c-0.6-1-4.8,0.3-5.3,0.5c-0.8,0.4-1.2,1.1-1.1,2.2c0,0.3,0.1,0.5,0.2,0.7c0.4,0.7,1.6,1.1,2,1.8c0.2,0.4,0.3,1.7,0,2.2
				c-0.3,0.5-1.4,0.4-2.3,0.6c-0.7,0.1-1.8,0.6-2.3,1c-0.5,0.5-0.8,1.3-1.3,1.5c-0.7,0.2-1.3-0.4-1.7,0.5c-0.3,1,1,2.5,2,2.9
				c0.2,0.1,1,0.3,0.8,0.5c0,0.1-0.2,0-0.3,0c-0.8-0.2-2.4-1.1-2.4-1.1s-0.5,0.6-0.8,1.1c-0.3,0.6-0.4,1.2-0.5,1.8
				c0,0.9-0.1,2-0.3,2.9c-0.4,2.1-1.7,5-1.8,6.3c-0.1,2,0.2,4.6,0.2,4.6s0.6,0.1,1.1,0.2c1.1,0.2,1.3-0.1,1.7-1.1
				c0.3-0.7,0.4-1.4,0.5-2.1c0.2-2,0-4.8,0.3-5.7c0.5-1.2,2.4-3.2,2.9-4.6c0.1-0.3,0.6-1.5,0.4-1.8c-0.1-0.2-1-0.5-0.8-0.6
				c0.2-0.1,0.9,0.1,1.1,0.2c0.4,0.3,0.9,1.7,1,2.3c1,3.1,2.5,10.2,3.2,13.9C209.2,210.4,209.3,210.5,209.6,210.8L209.6,210.8z
				 M245.9,185.2v1.4c0,0-0.9,0-1.4,0c-1.6,0.1-3.8,1.6-4.5,3.1c-0.2,0.3-0.3,0.7-0.3,0.7l2.3,0.4v0.5c0,0-1.3-0.3-2.1-0.4
				c-1.2-0.1-3.1,0.3-3.2,1.6c0,0.2,0.1,0.4,0.2,0.6c0.2,0.3,0.6,0.5,0.8,0.8c0.2,0.4-0.3,1.5-0.6,1.7c-0.7,0.3-0.9-1.1-1.5-1.9
				c-0.7-1-2.5-2.2-2.5-2.2s-1.9,0.9-2.1,1.4c-0.1,0.1-0.1,0.2-0.1,0.3c0,0.1,0,0.2,0.2,0.6c1.8,3.1,2.5,4.3,4.8,5.3
				c0.4,0.2,1.3,0.2,1.6,0c0.9-0.5,4-4,4-4s0,0.8,0,1.5c0,1.6-0.2,2.3-0.4,3.2c-0.2,0.8,0,8,0.1,9.1c0.4,2.5,1.1,5.4,1.1,5.4
				l4.9-3.5c0.4-0.3,0.4-0.3,0.5-0.8c0.7-3.5,1.8-7.1,2.3-10.5c0.1-1,1.4-5.3,1.6-5.5c0.6-0.4,1.6-0.5,2.4-0.9
				c0.8-0.4,3.2-2.5,1.9-3.3c-0.4-0.2-1-0.2-1.5-0.4c-0.7-0.3-1-1.2-1.6-1.6c-0.2-0.1-0.3-0.2-0.5-0.3c-2.6-0.9-3.9-0.1-3.8-2
				c0-0.4,0.1-0.8,0.3-1.2c0.4-0.6,1.3-0.8,1.8-1.4c0.5-0.6,0.5-2,0.1-2.7c-0.6-1-3.2-1.5-4.2-1.5c-0.2,0-0.3,0-0.5,0.1
				c-0.1,0.1-0.2,0.2-0.3,0.2c-0.3,0-0.9-0.4-0.9-0.4s0.1,1.8-0.2,2.7c-0.2,0.6-0.6,0.8-0.8,1.2c-0.5,1,0,2.7,0.8,2.7
				C245,185.3,245.9,185.2,245.9,185.2L245.9,185.2z M225.8,188.8c-0.1,0.2,0.1,0.6,0.2,0.7c0.3,0.5,0.9,1.2,1.3,1.2
				c0.4,0.1,0.8-0.2,1.2-0.2c0.4,0,0.7,0.3,1.1,0.2c0.3-0.1,0.8-0.7,1.2-1.1c0.4-0.4,0.5-0.9,0.1-1.5c-0.7-1.1-2.1-0.8-3.6-0.7
				C226.4,187.6,226.3,187.8,225.8,188.8L225.8,188.8z M252.1,194.2c0,0,0.6,1.9,1.2,3.1c0.6,1.3,1.5,1.6,1.9,2.5
				c0.4,0.7,0.8,6.1,1.2,8.5c0.2,1.4,0.5,1.4,1.7,1.2c0.8-0.1,1.1-0.2,1.3-0.5c0.2-0.4,0.2-3.4,0-4.3c-0.4-2.2-1.9-5.1-2-7.6
				c-0.1-1.3,0.2-2.3-0.6-3.5c-0.4-0.5-0.9-1.1-0.9-1.1s-0.4,0.4-0.9,0.7C253.8,193.9,252.1,194.2,252.1,194.2L252.1,194.2z
				 M196.2,212.5c-0.1,0.7,0.5,1.4,1.3,1.6c1.1,0.3,1.9-0.7,2.2-1.6c0.3-1.2,0.5-2.1-0.6-2.6c-0.5-0.2-1.1-0.1-1.5,0.7
				c-0.1,0.3-0.2,0.5-0.4,0.8C196.9,211.7,196.3,211.9,196.2,212.5L196.2,212.5z M257.2,210.6c-0.3,0.7,0,2.1,0.3,2.5
				c0.4,0.8,1.6,1.6,2.5,0.9c1.5-1.1,0.6-1.8-0.5-3.3c-0.7-0.9-1.1-1.2-1.8-0.6C257.4,210.2,257.2,210.4,257.2,210.6L257.2,210.6z
				 M206.3,219.6l-1.5,5.4c-0.1,0.4-0.1,0.5-0.2,0.8c0,0.2,0,0.4,0,0.7c0.1,0.8,0.2,1.7,0.5,2.5c0.2,0.6,0.6,1.5,0.5,2.2
				c0,0.3,0,0.3,0.4,0.5c0.5,0.1,0.9,0.2,1.5,0.2c0.4,0,1,0,1,0s-0.1-0.7-0.1-1.4c0-0.6,1.1-4,1.5-5c0.1-0.4,0.2-0.8,0-1.3
				c-0.4-1.2-1.8-3.7-1.8-3.7s0.1,0,0.2,0c0.2,0,0.5,0.4,0.6,0.8c1.7,4.9,2.4,5.8,5.5,10.1c0.3,0.4,0.3,0.4,0.8,0.5l3.1,0.7
				c0,0-0.5-3.1-1.2-5.7c-0.9-3.2-3.7-9.1-3.8-10.2c0-0.3,0-0.6,0-0.9c0.1-0.4,0-0.5-0.3-0.7c-1-0.9-3.9-3.1-4.7-3.3
				c-1.7-0.4-3.4,1.4-4.1,3.2c-0.4,1.2-0.5,2.3,0.3,2.9c1.3,1,2.6,1,1.8,1.3C206.4,219.2,206.4,219.2,206.3,219.6L206.3,219.6z
				 M248.6,220.7l-1.6,3.5c-0.2,0.4-0.2,0.5-0.1,0.9c0.5,1.7,1.4,4.4,1.4,5.1c0,0.7,0,1.6,0,1.6l3-0.3c0,0,0.7-3.2,0.9-4.8
				c0.2-1.9-0.5-3.8-1.5-7.1c-0.1-0.4-0.2-0.5-0.3-0.5H250c0,0,1.7-1.1,2.3-1.7c0.9-0.8,0.4-2.8-0.5-4c-0.8-1.1-2.5-2.1-3.4-1.8
				c-0.9,0.3-5,3.5-5,3.5s0,0.7,0,1.2c0,0.7-0.2,1-0.3,1.4c-0.7,1.7-2.4,5.4-2.9,7c-1,3.2-1.7,7.6-1.7,7.6s0.5,0,1,0
				c0.7,0,2.2-0.4,2.4-0.6c0.5-0.5,3.9-5.3,4-5.8c0.5-1.6,1.5-4.2,1.8-4.5C248.1,221.1,248.6,220.7,248.6,220.7L248.6,220.7z
				 M208.2,220c0,0.2,0,0.2-0.3,0.1c-0.2-0.1-0.5-0.2-0.5-0.5c0-0.1,0-0.3,0-0.3l0.5,0.4C208.2,219.9,208.2,219.9,208.2,220
				L208.2,220z M248.7,220.5c-0.2,0-0.3,0-0.2-0.2c0.1-0.2,0.4-0.7,0.6-0.8c0.2-0.2,0.3-0.2,0.3-0.2c0.2,0,0.3,0,0.1,0.5
				c-0.1,0.2-0.3,0.4-0.5,0.5C248.8,220.5,248.8,220.5,248.7,220.5L248.7,220.5z M213.9,245.5l-4.6-11.9c0,0-1.2-0.4-2.3-0.5
				c-0.8-0.1-1.5,0-1.5,0s-0.1,1.1,0,1.8c0.1,0.6,0.3,0.9,0.3,1.2c0.1,0.4,0.1,0.8,0.1,1.2c0.3,2.7,3.2,6,5,8.3c2.3,3,2.6,3.5,6,3.7
				c1.2,0,2.6,0,2.6,0s0-0.4,0-0.7c-0.1-1-4.4-2.3-5-2.6C214.1,246,214,245.9,213.9,245.5L213.9,245.5z M247.7,233.6l-4.6,11.9
				c-0.2,0.4-0.2,0.5-0.6,0.6c-1.7,0.7-4.9,1.8-5,2.4c0,0.3,0,0.9,0,0.9s1.4,0,2.4,0c2.8-0.1,3.4-0.6,4.8-2c1-1.1,4.3-5.3,4.7-6.1
				c0.5-0.9,2.1-4.7,2.1-6.1c0-0.8-0.1-1.9-0.1-1.9s-0.6-0.1-1.3,0C248.9,233.2,247.7,233.6,247.7,233.6L247.7,233.6z M226.2,248.2
				v-0.5c0-0.2,0-0.3-0.4-0.5c-1-0.6-2.4-1.5-2.8-2c-0.5-0.6-4-11-4-11s-2.4-0.7-3.7-0.8c-0.8-0.1-1-0.1-1.1,0.8
				c-0.1,0.8,0.4,2.4,0.6,3.1c0.4,1,2.9,5.6,3.6,6.6c0.3,0.5,2.1,2.9,2.6,3.1c0.4,0.2,1.1,0.2,1.6,0.3c0.8,0.2,1.4,0.9,2.5,1
				C225.6,248.3,226.2,248.2,226.2,248.2L226.2,248.2z M231.1,248.3c0.2,0,0.4,0,0.7,0c1-0.2,3.8-1.1,4.4-1.5c0.5-0.3,1.6-1.7,1.7-2
				c0-0.2,0-0.4,0.1-0.5c0.1-0.1,0.3-0.1,0.5-0.2c0.2-0.1,3.4-5.9,3.8-6.8c0.2-0.6,0.3-0.9,0.4-1.8c0.1-0.8,0.1-2,0.1-2
				s-0.5,0-1.1,0c-1.7,0.1-3.7,0.8-3.7,0.8s-2.6,6.8-3.3,9.6c-0.1,0.2-0.1,0.4-0.1,0.6c0,0.3,0,0.3-0.4,0.6l-3.4,2.7l0.1,0.4
				C230.7,248.2,230.8,248.3,231.1,248.3L231.1,248.3z"/>
		</g>
		<g>
			<path class="st12" d="M201.5,190.2h0.6c0.3,0,0.3,0,0.6,0c0.9,0.1,1.5,1,1.8,1.9c0.1,0.3,0.2,0.6,0.2,0.7
				c-0.3,0.5-2.9-1.4-2.9-1.5c-0.1-0.1-0.2-0.2-0.2-0.4C201.5,190.6,201.5,190.2,201.5,190.2L201.5,190.2z M255.5,190.2
				c0.1,0.1,0.1,0.5,0,0.7c-0.2,0.6-1.7,1.5-2.7,1.9c-0.4,0.1-0.5-0.1-0.3-0.8c0.3-1.2,1-1.6,2-1.8
				C254.8,190.2,255.3,190.1,255.5,190.2L255.5,190.2z M215,194.3V192l2.8-0.1c0.4,0,0.5,0,0.7,0c0.6,0.1,0.7,0.4,0.6,0.7
				c-0.2,0.8-2.3,1.7-3.3,1.7C215.5,194.3,215,194.3,215,194.3L215,194.3z M242,192.2l-0.2,2.2c0,0-0.4,0-0.8,0
				c-0.7,0-3.7-1.1-3.2-2.1c0.1-0.2,0.3-0.3,0.6-0.4c0.5-0.1,0.9-0.1,1.7,0C240.9,192,242,192.2,242,192.2L242,192.2z"/>
		</g>
		<g>
			<path class="st14" d="M209.2,210.8l-0.4,0.4l5,3.8l0.4-0.6L209.2,210.8L209.2,210.8z M205.6,232v0.5l3.5,0.4l-0.3-0.6L205.6,232
				L205.6,232z M215,232.3v0.5l3.9,0.9l-0.3-0.6L215,232.3L215,232.3z M238.1,233.7l0.3-0.8l3.6-0.6l0.1,0.6L238.1,233.7
				L238.1,233.7z M248.1,232.4l-0.2,0.5l3.3-0.3v-0.4L248.1,232.4L248.1,232.4z M242.7,214.4l0.6,0.6l4.9-3.8l-0.4-0.4L242.7,214.4
				L242.7,214.4z M224.8,190.6l-0.4,0.4l2.2,1.4l0.2-0.6L224.8,190.6L224.8,190.6z M225.7,189.9l-0.4,0.3l1.5,1.2l0.1-0.4
				L225.7,189.9L225.7,189.9z M231.3,189.8l-1.6,1.3l0.3,0.4l1.9-1.3L231.3,189.8L231.3,189.8z M232.1,190.7l-1.8,1.2l0.3,0.5
				l2.2-1.3L232.1,190.7L232.1,190.7z"/>
		</g>
		<g>
			<path class="st15" d="M155.3,44.1l-1.6,1.8c0,0-6.3-12.1-8.4-17c-1-2.3-3.7-9.1-4.1-12.2c-0.1-0.6-0.1-1.2-0.1-1.2h-0.1
				c0,0-0.3-2-0.4-3.1c-0.1-0.9-0.1-1.2,0-2c0.3-1.4,1.1-4.4,1.1-4.4s-3.4,1.2-5.6,2.3c-0.5,0.3-3.6,3.4-3.9,3.9
				c-1.4,2.5-1.3,4.1,0.1,7.4c0.8,2.1,2.7,5.9,4.3,8.7c4.2,7.4,13.2,21.9,13.2,21.9l-1.4,2c0,0-9.8-14.9-10.9-16.1
				c-0.7-0.8-1.4-1.4-1.7-1.9c-0.2-0.3-0.2-0.7-0.3-1.1c-0.1-0.5-3.3-5.4-4.9-7.8c-0.7-1-2-3.7-2.6-5.3c-0.4-1-0.9-2.3-0.9-2.3
				s-1.4,1.5-2.4,2.6c-2,2.4-3.1,4.7-2.7,6.6c0.1,0.6,1.3,2.8,2.3,4.1c1.8,2.6,11.4,15.2,13.1,17.2c3.6,4.2,8.2,9.2,8.2,9.2
				l-0.9,1.7c0,0-9.2-9.8-14.7-16.2c-5.5-6.5-10.5-13.1-10.5-13.1s-2.6,4.4-3.4,6.5c-0.2,0.5-0.2,2-0.1,2.4c0.2,0.5,0.5,1.2,0.9,1.8
				c0.2,0.4,0.3,0.5,0.6,0.8c11.8,10.9,14.9,14,25.2,22.5c0.3,0.3,0.4,0.4,0.4,0.8v0.9l-0.6-0.1c-0.3,0-0.4-0.1-0.7-0.3
				c-7-5.5-20-15.6-21-16.7c-1.5-1.5-4.8-4.8-5.9-4.3c-0.9,0.4-1.7,4.6-1.6,5.8c0.1,0.9,0.5,1.4,1.4,2.1
				c1.5,1.3,27.3,17.1,27.5,17.6c0.1,0.1,0.3,0.6,0.2,0.8c-0.1,0.3-0.4,0.8-0.4,0.8s-22.2-13-25-14.2c-1.6-0.7-3.2-1.4-3.2-1.4
				s-0.4,0.5-0.6,1c-0.2,0.4-0.5,2.9-0.4,3.3c0.3,1.4,1,2.8,2,3.6c0.7,0.6,6.2,3.4,8.7,4.5c7.6,3.4,18.6,8.1,18.6,8.1l0.3,1.8
				c0,0-23.2-9-24.8-9.3c-1.7-0.3-2.6-0.2-2.6,0.9c0,0.5,1.1,3.7,1.6,4.6c1.2,2.3,2.9,3.1,6.3,4.3c2,0.7,13.6,3.8,16.1,4.3
				c1.9,0.4,3.6,0.7,5.3,1c1.2,0.2,14.5,0.5,15.6,0.4c1.6-0.2,3.4-0.5,3.4-0.5s0.2-2.7,0.5-4.6c0.1-0.8,1.8-4.9,2.3-5.5
				c1-1.4,3.8-5.4,5.7-7.1c0.7-0.6,1.6-1.4,1.6-1.4s-2.3-4.3-4-8c-0.9-1.9-5.7-14.3-6.6-16.9c-1.1-3.6-5-17.7-5.5-20.2
				c-1.7-8.2-3.4-19.2-3.4-19.2s-1.1,0.6-1.9,1.2c-7.4,4.6-7.5,13.1-5.3,21.1c0.5,1.9,2.7,7.7,4,10.8
				C152.6,38.1,155.3,44.1,155.3,44.1L155.3,44.1z"/>
		</g>
		<g>
			<path class="st15" d="M341.9,69h-0.3v-0.3h-1.7c-0.4,0-0.5,0-0.9,0.2c-7.1,2.8-18.7,7.4-21.3,8.2c-1.5,0.5-3.1,1-3.1,1l0.3-1.3
				c0.1-0.4,0.1-0.5,0.5-0.7c6.1-2.6,14-6,18.1-8c3.3-1.6,6.7-3.4,8.5-4.3c0.5-0.2,1.3-1,1.4-1.4c0.6-1.3,1-4.1,1-4.1h-0.1
				c-0.1,0-0.1,0-0.2-0.5c-0.2-0.8-0.4-1.5-0.9-1.9c-0.2-0.2-0.3-0.2-0.7,0l-26.5,14.8v0.2l-1.2,0.1l-0.1-1.4c0,0,4-2.4,7.6-4.5
				c2.4-1.4,20.9-13.8,21.1-14.1c0.5-0.9,0.6-2.9-0.5-5.7c-0.2-0.4-0.7-1.1-1-1.1c-0.2,0-0.5,0.1-0.8,0.2c-0.3,0.1-0.4,0.2-0.7,0.5
				c-7.5,6.2-20.3,16.7-22.7,18.4c-1.7,1.3-3.7,2.6-3.7,2.6l-0.1-1.1c0-0.4,0-0.5,0.3-0.8c7.9-6.9,20.5-18,23.6-20.9
				c1-1,2.7-3,2.9-3.5c0.2-0.4,0.2-2.5,0-3.4c-0.1-0.5-2.6-5.2-2.9-5.4c-0.4-0.2-0.8-0.5-0.8-0.5s-5.2,6.9-10.8,13.5
				c-5,5.9-14.2,15.5-14.2,15.5l-0.8-1.7c0,0,5.6-6.3,10-11.4c1.4-1.7,12-16,12.5-16.9c1.6-3.1,1.7-4.8-1.2-8.5
				c-1.1-1.4-2.8-3.2-2.8-3.2s-0.5,1.9-1.1,3.4c-0.3,0.9-3.8,7.2-4.6,8.3c-4.3,6-10,14.9-15,22.3c-0.2,0.4-0.3,0.4-0.4,0.4
				c-0.3,0-0.5-0.1-0.8-0.6c-0.2-0.4-0.6-1-0.6-1S315.7,36.6,320,29c2.2-4,5.6-9.5,5.6-12.5c0-2.1-0.2-3.3-1.1-4.5
				c-0.5-0.7-3.1-3.1-3.7-3.5c-0.3-0.2-4.7-2.1-5.2-1.9c-0.1,0.1-0.1,0.2-0.1,0.6c0.4,1.7,0.6,1.9,0.7,3.1c0.6,7-3.5,16.6-6.1,22.1
				c-2.7,5.5-6.8,13.6-6.8,13.6l-1.7-1.7c0,0,2-4.1,3.4-7.2c2.5-5.5,6.5-16.5,6.6-21.5c0.1-4.7-0.6-7.1-3-10.5
				c-0.6-0.8-1.9-2.1-2.7-2.7c-1.1-0.8-2.8-1.7-2.8-1.7s-1.1,7.5-2.2,13c-1.5,7.9-3.7,15.8-5.7,23.2c-0.6,2.1-4.9,14.3-5.5,15.5
				c-2.4,4.7-5.9,12-5.9,12.4c0,0.8,0.8,1.2,2.8,3.2c0.7,0.7,3.8,5,4.4,6.1c1.1,2,2.3,4.3,2.5,7c0.1,1.2,0.1,2.7,0.1,2.7
				s1.9,0.3,3.7,0.5c1.1,0.1,14.1-0.2,15.2-0.4c2.5-0.4,5-0.9,8-1.6c2.2-0.5,16.1-4.6,16.9-5.1c1.7-0.9,2.3-1.5,3.2-3.5
				c0.3-0.7,0.6-1.3,0.9-2.4C341.7,70.3,341.9,69,341.9,69L341.9,69z"/>
		</g>
		<g>
			<path class="st15" d="M226.5,84.9L226.5,84.9C226.5,84.9,226.5,84.9,226.5,84.9c0.1,0.3,0.3,0.5,0.4,0.8c0.2,0.4,0.5,0.9,0.9,1.4
				c0.3,0.5,0.4,0.6,0.4,0.6s0,0.1,0.2,0.3c2.1,2.8,3.9,4.2,7.2,5.3c0.4,0.1,0.7,0.2,0.7,0.2s-0.4-0.2-0.9-0.5
				c-2.6-1.4-4.3-3.3-5.8-5.8c-0.1-0.2-0.2-0.3-0.2-0.3l-1.4-3.2c-0.3-0.9-0.5-1.8-0.5-2.4c0-0.8,0-1.9,0-1.9h0.5
				c0.2,0,0.3,0,0.7,0.2c5.8,3.3,8.1,4.4,11,9.3c0.3,0.5,0.6,1,0.9,1.7c1.1,2.5,2.6,7.8,2.6,7.8s0.3-0.5,0.4-0.9
				c0.1-0.4-0.1-2.5-0.4-3.6c-0.2-0.8-0.3-1.6-0.5-2.4c-0.5-1.9-1.9-4.9-3.1-6.3c-0.9-1-2.5-2.4-2.5-2.4s16,4.6,17.8,5.4
				c1.7,0.8,3.3,1.6,3.5,1.5c0.1,0,0.1-0.2,0-0.3c-0.5-0.7-5.2-3.3-6-3.7c-1.9-1-4.2-2.1-6.2-2.8c-5.1-1.8-15-4.9-15-4.9
				s18.6,3.4,21.4,4.1c2.7,0.7,5.2,1.6,5.2,1.6s-1-0.7-1.8-1.3c-2.4-1.6-8.5-3.6-10.4-4.1c-3.9-0.9-10.6-1.8-10.6-1.8v-0.4
				c0,0,1.8,0.3,3,0.5c1.1,0.2,1.8,0.2,2.5,0.2c2,0,4.2-0.2,7.5,0c3.3,0.2,7.6,0.9,7.6,0.9s-1.6-0.7-2.7-1.2
				c-1.2-0.5-1.7-0.6-2.6-0.8c-3.2-0.6-11.4-1.6-11.4-1.6s3.7-0.9,7-1.2c2.7-0.2,5.3-0.1,5.3-0.1v-0.2c0-0.1,0-0.1-0.5-0.2
				c-1.7-0.5-4.2-0.8-5.4-0.8c-2.8,0-7.6,0.4-7.6,0.4s0-0.3,0-0.5c0-0.1,0.1-0.2,0.3-0.2c0.7,0,2-0.4,3.8-0.6
				c2.5-0.3,6.1-0.1,6.1-0.1v-0.2c0-0.1,0-0.1-0.5-0.2c-1.7-0.5-3.4-0.7-4.8-0.8c-3.3-0.1-7.6,0.5-10.7,0.3
				c-2.6-0.2-4.9-0.8-7.7-1.1c-3.1-0.3-4.9-0.7-6.7,0.8c-0.3,0.2-0.5,0.4-0.7,0.6c-0.4,0.5-0.5,1.1-1,1.4c-0.4,0.4-2.8,0.7-4.3,1.2
				c-2.9,0.8-4.5,2.5-5,5c-0.1,0.5-0.2,1.1,0,1.3c0.1,0.1,0.2,0.1,0.3,0c0.2-0.2,0.3-0.6,0.6-0.9c0.2-0.2,0.6-0.3,0.7-0.5
				c0.1-0.3,1.4-0.3,0.9-0.3c0.4,0,1.5,0,2.3,0c0.3,0-0.1-0.1,1.8,0.3c3.4,0.6,9.4,1.6,9.8,1.9C224.7,80.2,225.1,82.2,226.5,84.9
				L226.5,84.9z M223.4,72.2c0.3,1-1.4,1.6-1.9,1.6c-1,0.1-2.9-0.3-2.6-1.7c0.3-1.3,2.4-1.4,3.4-1.1
				C222.8,71.2,223.2,71.6,223.4,72.2L223.4,72.2z"/>
		</g>
		<g>
			<path class="st16" d="M213.8,74.7c0,0,0.4,0,1,0c3.1-0.1,5.1-0.4,8.1,0.8c0.3,0.1,0.4,0.2,0.4,0.2s0-0.1,0-0.2
				c0.2-1.4,0.7-2.5,1.6-3.5c0.4-0.4,1-1,0.3-1.5c-0.8-0.6-2.7-0.5-3.5-0.5c-3.6,0-5.1,1.3-7.4,4.3
				C214.1,74.4,213.8,74.7,213.8,74.7L213.8,74.7z M223.4,72.2c0.3,1-1.4,1.6-1.9,1.6c-1,0.1-2.9-0.3-2.6-1.7
				c0.3-1.3,2.4-1.4,3.4-1.1C222.8,71.2,223.2,71.6,223.4,72.2L223.4,72.2z"/>
		</g>
		<g>
			<path class="st16" d="M230,69.5c1.7,1.4,3,2.7,2.9,5.1c-0.1,1.1-0.6,1.7-1.6,3.1c-0.2,0.3-0.2,0.3-0.2,0.3s0,0,0.1,0
				c1.4,0.3,18.5,3.4,21.2,4.1c2.7,0.7,5.2,1.6,5.2,1.6s-1-0.7-1.8-1.3c-2.4-1.6-8.5-3.6-10.4-4.1c-3.9-0.9-10.6-1.8-10.6-1.8v-0.4
				c0,0,1.8,0.3,3,0.5c1.1,0.2,1.8,0.2,2.5,0.2c2,0,4.2-0.2,7.5,0c3.3,0.2,7.6,0.9,7.6,0.9s-1.6-0.7-2.7-1.2
				c-1.2-0.5-1.7-0.6-2.6-0.8c-3.2-0.6-11.4-1.6-11.4-1.6s3.7-0.9,7-1.2c2.7-0.2,5.3-0.1,5.3-0.1v-0.2c0-0.1,0-0.1-0.5-0.2
				c-1.7-0.5-4.2-0.8-5.4-0.8c-2.8,0-7.6,0.4-7.6,0.4s0-0.3,0-0.5c0-0.1,0.1-0.2,0.3-0.2c0.7,0,2-0.4,3.8-0.6
				c2.5-0.3,6.1-0.1,6.1-0.1v-0.2c0-0.1,0-0.1-0.5-0.2c-1.7-0.5-3.4-0.7-4.8-0.8c-3.3-0.1-7.6,0.5-10.7,0.3
				C231.2,69.7,230.6,69.6,230,69.5L230,69.5z"/>
		</g>
	</g>
	<g fill="black" >
		<path d="M0,363.4v-19.5h9.6c2.4,0,4.2,0.2,5.3,0.5c1.1,0.3,2,1,2.6,1.9s1,1.9,1,3.1c0,1.5-0.5,2.7-1.5,3.6c-1,1-2.5,1.6-4.5,1.8
			c1,0.5,1.8,1,2.4,1.6c0.6,0.6,1.5,1.6,2.6,3.2l2.8,3.8h-5.5l-3.3-4.2c-1.2-1.5-2-2.5-2.4-2.9c-0.4-0.4-0.9-0.7-1.4-0.8
			c-0.5-0.1-1.2-0.2-2.3-0.2H4.6v8.1H0z M4.6,352.2h3.4c2.2,0,3.6-0.1,4.1-0.2s1-0.4,1.3-0.8c0.3-0.4,0.5-0.9,0.5-1.5
			c0-0.7-0.2-1.2-0.6-1.6s-1-0.7-1.7-0.8c-0.4,0-1.5-0.1-3.3-0.1H4.6V352.2z"/>
		<path d="M22.8,363.4v-19.5h16.8v3.3H27.4v4.3h11.4v3.3H27.4v5.3H40v3.3H22.8z"/>
		<path d="M43.9,363.4v-19.5h7.3c2.8,0,4.6,0.1,5.4,0.3c1.3,0.3,2.4,0.9,3.3,1.9s1.3,2.2,1.3,3.8c0,1.2-0.3,2.2-0.8,3
			c-0.5,0.8-1.1,1.5-1.9,1.9s-1.6,0.8-2.4,0.9c-1.1,0.2-2.7,0.3-4.7,0.3h-3v7.3H43.9z M48.4,347.2v5.5h2.5c1.8,0,3-0.1,3.6-0.3
			c0.6-0.2,1.1-0.5,1.4-1c0.3-0.4,0.5-0.9,0.5-1.5c0-0.7-0.2-1.3-0.7-1.8s-1.1-0.7-1.8-0.9c-0.5-0.1-1.6-0.1-3.3-0.1H48.4z"/>
		<path fill="black"  d="M64.9,343.9h4.6v10.5c0,1.7,0.1,2.8,0.2,3.3c0.2,0.8,0.7,1.4,1.4,1.9c0.7,0.5,1.7,0.7,3,0.7c1.3,0,2.3-0.2,2.9-0.7
			c0.7-0.5,1.1-1,1.2-1.7c0.1-0.7,0.2-1.8,0.2-3.3v-10.8h4.6v10.2c0,2.3-0.1,4-0.4,4.9c-0.2,1-0.7,1.8-1.4,2.4
			c-0.7,0.7-1.6,1.2-2.7,1.6c-1.1,0.4-2.6,0.6-4.4,0.6c-2.2,0-3.8-0.2-4.9-0.6c-1.1-0.4-2-1-2.6-1.7s-1.1-1.4-1.3-2.2
			c-0.3-1.1-0.4-2.8-0.4-4.9V343.9z"/>
		<path fill="black"  d="M87.8,343.9h9c1.8,0,3.1,0.1,4,0.2s1.7,0.4,2.4,0.8s1.3,0.9,1.7,1.6s0.7,1.4,0.7,2.3c0,0.9-0.3,1.7-0.9,2.5
			s-1.3,1.3-2.3,1.7c1.4,0.3,2.4,0.9,3.2,1.8c0.7,0.8,1.1,1.8,1.1,2.9c0,0.9-0.2,1.7-0.7,2.6c-0.5,0.8-1.1,1.5-2,2
			c-0.8,0.5-1.8,0.8-3.1,0.9c-0.8,0.1-2.6,0.1-5.5,0.1h-7.7V343.9z M92.3,347.2v4.5h3c1.8,0,2.9,0,3.3-0.1c0.8-0.1,1.4-0.3,1.8-0.7
			s0.7-0.9,0.7-1.5c0-0.6-0.2-1.1-0.6-1.5s-1-0.6-1.7-0.7c-0.5,0-1.8-0.1-3.9-0.1H92.3z M92.3,354.9v5.2h4.2c1.6,0,2.7,0,3.1-0.1
			c0.7-0.1,1.2-0.4,1.7-0.8c0.4-0.4,0.6-1,0.6-1.7c0-0.6-0.2-1.1-0.5-1.5s-0.8-0.7-1.4-0.9c-0.6-0.2-2-0.3-4-0.3H92.3z"/>
		<path fill="black"  d="M110.7,363.4v-19.3h4.6v16h11.4v3.3H110.7z"/>
		<path fill="black"  d="M129.7,363.4v-19.5h4.6v19.5H129.7z"/>
		<path fill="black"  d="M153.1,356.2l4.4,1.2c-0.7,2.1-1.8,3.7-3.4,4.7c-1.6,1-3.6,1.5-6,1.5c-3,0-5.5-0.9-7.4-2.6c-1.9-1.8-2.9-4.2-2.9-7.2
			c0-3.2,1-5.8,2.9-7.5c1.9-1.8,4.5-2.7,7.7-2.7c2.8,0,5,0.7,6.7,2.1c1,0.8,1.8,2,2.3,3.6l-4.5,0.9c-0.3-1-0.8-1.8-1.7-2.4
			c-0.8-0.6-1.9-0.9-3.1-0.9c-1.7,0-3,0.5-4.1,1.6s-1.6,2.7-1.6,5c0,2.5,0.5,4.2,1.5,5.3s2.4,1.6,4,1.6c1.2,0,2.3-0.3,3.1-1
			C152.1,358.7,152.7,357.7,153.1,356.2z"/>
		<path fill="black"  d="M169.3,353.8c0-2,0.3-3.6,1-5c0.5-1,1.2-1.9,2.1-2.7s1.9-1.4,2.9-1.8c1.4-0.5,3-0.8,4.9-0.8c3.3,0,6,0.9,8,2.7
			c2,1.8,3,4.3,3,7.4c0,3.1-1,5.6-3,7.4c-2,1.8-4.6,2.7-8,2.7c-3.4,0-6-0.9-8-2.6C170.3,359.3,169.3,356.9,169.3,353.8z M174,353.7
			c0,2.2,0.6,3.9,1.8,5s2.7,1.7,4.5,1.7s3.3-0.6,4.5-1.7c1.2-1.1,1.8-2.8,1.8-5.1c0-2.2-0.6-3.9-1.7-5c-1.1-1.1-2.6-1.6-4.5-1.6
			c-1.9,0-3.4,0.6-4.6,1.7C174.6,349.7,174,351.4,174,353.7z"/>
		<path fill="black"  d="M194.8,363.4v-19.5h15.5v3.3h-10.9v4.6h9.4v3.3h-9.4v8.3H194.8z"/>
		<path fill="black"  d="M221.7,357.1l4.4-0.4c0.3,1.3,0.8,2.2,1.6,2.8s1.9,0.9,3.3,0.9c1.5,0,2.6-0.3,3.3-0.8s1.1-1.2,1.1-1.9
			c0-0.5-0.2-0.9-0.5-1.2c-0.3-0.3-0.9-0.6-1.6-0.8c-0.5-0.2-1.8-0.4-3.7-0.8c-2.4-0.5-4.2-1.2-5.2-1.9c-1.4-1.1-2.1-2.4-2.1-3.9
			c0-1,0.3-1.9,1-2.8c0.7-0.9,1.6-1.5,2.8-2s2.7-0.7,4.5-0.7c2.8,0,5,0.5,6.4,1.6c1.4,1.1,2.2,2.5,2.3,4.3l-4.6,0.2
			c-0.2-1-0.6-1.7-1.3-2.2c-0.6-0.4-1.6-0.7-2.9-0.7c-1.3,0-2.4,0.2-3.1,0.7c-0.5,0.3-0.7,0.7-0.7,1.2c0,0.5,0.2,0.9,0.7,1.2
			c0.6,0.4,2,0.8,4.2,1.3c2.2,0.5,3.9,0.9,4.9,1.4c1.1,0.5,1.9,1.1,2.5,2s0.9,1.9,0.9,3.1c0,1.1-0.4,2.2-1.1,3.1
			c-0.7,1-1.7,1.7-3.1,2.2c-1.3,0.5-3,0.7-4.9,0.7c-2.9,0-5.1-0.6-6.6-1.7S222,359.2,221.7,357.1z"/>
		<path  fill="black" d="M243,353.8c0-2,0.3-3.6,1-5c0.5-1,1.2-1.9,2.1-2.7s1.9-1.4,2.9-1.8c1.4-0.5,3-0.8,4.9-0.8c3.3,0,6,0.9,8,2.7
			c2,1.8,3,4.3,3,7.4c0,3.1-1,5.6-3,7.4c-2,1.8-4.6,2.7-8,2.7c-3.4,0-6-0.9-8-2.6C244,359.3,243,356.9,243,353.8z M247.7,353.7
			c0,2.2,0.6,3.9,1.8,5s2.7,1.7,4.5,1.7s3.3-0.6,4.5-1.7c1.2-1.1,1.8-2.8,1.8-5.1c0-2.2-0.6-3.9-1.7-5s-2.6-1.6-4.5-1.6
			s-3.4,0.6-4.6,1.7C248.3,349.7,247.7,351.4,247.7,353.7z"/>
		<path  fill="black" d="M268.5,343.9h4.6v10.5c0,1.7,0.1,2.8,0.2,3.3c0.2,0.8,0.7,1.4,1.4,1.9c0.7,0.5,1.7,0.7,3,0.7c1.3,0,2.3-0.2,2.9-0.7
			c0.7-0.5,1.1-1,1.2-1.7c0.1-0.7,0.2-1.8,0.2-3.3v-10.8h4.6v10.2c0,2.3-0.1,4-0.4,4.9c-0.2,1-0.7,1.8-1.4,2.4
			c-0.7,0.7-1.6,1.2-2.7,1.6s-2.6,0.6-4.4,0.6c-2.2,0-3.8-0.2-4.9-0.6c-1.1-0.4-2-1-2.6-1.7c-0.6-0.7-1.1-1.4-1.3-2.2
			c-0.3-1.1-0.4-2.8-0.4-4.9V343.9z"/>
		<path fill="black"  d="M296.4,363.4v-16.2h-6.7v-3.3h18v3.3H301v16.2H296.4z"/>
		<path fill="black"  d="M310.7,363.4v-19.5h4.6v7.7h8.9v-7.7h4.6v19.5h-4.6v-8.5h-8.9v8.5H310.7z"/>
		<path fill="black"  d="M361.5,363.4h-5l-2-4.4h-9l-1.9,4.4h-4.8l8.8-19.5h4.8L361.5,363.4z M353.1,355.7l-3.1-7.2l-3.1,7.2H353.1z"/>
		<path fill="black"  d="M363.9,363.4v-19.5h15.5v3.3h-10.9v4.6h9.4v3.3h-9.4v8.3H363.9z"/>
		<path fill="black"  d="M383.2,363.4v-19.5h9.6c2.4,0,4.2,0.2,5.3,0.5s2,1,2.6,1.9s1,1.9,1,3.1c0,1.5-0.5,2.7-1.5,3.6c-1,1-2.5,1.6-4.5,1.8
			c1,0.5,1.8,1,2.4,1.6s1.5,1.6,2.6,3.2l2.8,3.8h-5.5l-3.3-4.2c-1.2-1.5-2-2.5-2.4-2.9c-0.4-0.4-0.9-0.7-1.4-0.8
			c-0.5-0.1-1.3-0.2-2.3-0.2h-0.9v8.1H383.2z M387.8,352.2h3.4c2.2,0,3.6-0.1,4.1-0.2s1-0.4,1.3-0.8c0.3-0.4,0.5-0.9,0.5-1.5
			c0-0.7-0.2-1.2-0.6-1.6s-1-0.7-1.7-0.8c-0.4,0-1.5-0.1-3.3-0.1h-3.6V352.2z"/>
		<path fill="black" d="M405.9,363.4v-19.5h4.6v19.5H405.9z"/>
		<path  fill="black" d="M429.2,356.2l4.4,1.2c-0.7,2.1-1.8,3.7-3.4,4.7c-1.6,1-3.6,1.5-6,1.5c-3,0-5.5-0.9-7.4-2.6s-2.9-4.2-2.9-7.2
			c0-3.2,1-5.8,2.9-7.5c1.9-1.8,4.5-2.7,7.7-2.7c2.8,0,5,0.7,6.7,2.1c1,0.8,1.8,2,2.3,3.6l-4.5,0.9c-0.3-1-0.8-1.8-1.7-2.4
			s-1.9-0.9-3.1-0.9c-1.7,0-3,0.5-4.1,1.6s-1.6,2.7-1.6,5c0,2.5,0.5,4.2,1.5,5.3s2.4,1.6,4,1.6c1.2,0,2.3-0.3,3.1-1
			C428.2,358.7,428.9,357.7,429.2,356.2z"/>
		<path  fill="black" d="M458,363.4h-5l-2-4.4h-9l-1.9,4.4h-4.8l8.8-19.5h4.8L458,363.4z M449.6,355.7l-3.1-7.2l-3.1,7.2H449.6z"/>
	</g>
</g>
</svg>
