<?xml version="1.0" encoding="utf-8"?>
<!-- Generator: Adobe Illustrator 25.3.1, SVG Export Plug-In . SVG Version: 6.00 Build 0)  -->
<svg version="1.0" id="Layer_1" xmlns="http://www.w3.org/2000/svg" xmlns:xlink="http://www.w3.org/1999/xlink" x="0px" y="0px"
	 viewBox="0 0 778.2 185.6" style="enable-background:new 0 0 778.2 185.6;" xml:space="preserve">
<style type="text/css">
	.st0{fill:#888A8D;}
	.st1{clip-path:url(#SVGID_2_);}
	.st2{fill:url(#SVGID_3_);}
	.st3{clip-path:url(#SVGID_6_);}
	.st4{clip-path:url(#SVGID_8_);}
	.st5{clip-path:url(#SVGID_10_);}
	.st6{fill:url(#SVGID_11_);}
	.st7{fill:#4E5154;}
	.st8{fill:url(#SVGID_12_);}
	.st9{clip-path:url(#SVGID_14_);}
	.st10{fill:url(#SVGID_15_);}
</style>
<path class="st0" d="M494.5,47c-4.2,0-8.1,0.9-11.6,2.8c-3.6,1.9-6.5,4.4-8.9,7.6l-5.6-8.8H465V135h10.3V73.5c0-2.1,0.4-4,1.2-5.9
	c0.8-1.8,1.9-3.4,3.2-4.8c1.3-1.3,2.9-2.4,4.8-3.2c1.8-0.8,3.8-1.2,5.8-1.2h10.3V47H494.5z M446.3,84.6h-36.8V71.8
	c0-2.1,0.4-4,1.2-5.9c0.8-1.8,1.8-3.4,3.2-4.8c1.3-1.4,2.9-2.4,4.8-3.2c1.8-0.8,3.8-1.2,5.9-1.2h6.9c2.1,0,4,0.4,5.9,1.2
	c1.8,0.8,3.4,1.8,4.7,3.2c1.4,1.3,2.4,2.9,3.2,4.8c0.8,1.8,1.2,3.8,1.2,5.9v12.8C446.5,84.6,446.3,84.6,446.3,84.6z M449.2,54.4
	c-2.3-2.3-5-4.1-8.1-5.4c-3.1-1.3-6.4-2-9.9-2h-6.9c-3.5,0-6.8,0.7-9.8,2c-3.1,1.3-5.8,3.1-8.1,5.4c-2.3,2.3-4.1,5-5.4,8.1
	s-2,6.4-2,9.9v39c0,3.5,0.7,6.8,2,9.9s3.1,5.8,5.4,8.1s5,4.1,8.1,5.4c3.1,1.3,6.4,2,9.8,2h6.9c3.5,0,6.8-0.7,9.9-2s5.8-3.1,8.1-5.4
	c2.3-2.3,4.1-5,5.4-8.1s2-6.4,2-9.9v-3.5l-10.3-1.7v5.7c0,2.1-0.4,4-1.2,5.9c-0.8,1.8-1.8,3.4-3.2,4.8c-1.3,1.3-2.9,2.4-4.7,3.2
	c-1.8,0.8-3.8,1.2-5.9,1.2h-6.9c-2.1,0-4-0.4-5.9-1.2c-1.8-0.8-3.4-1.8-4.8-3.2c-1.3-1.3-2.4-2.9-3.2-4.8c-0.8-1.8-1.2-3.8-1.2-5.9
	V92.7h47.2V72.3c0-3.5-0.7-6.8-2-9.9C453.4,59.4,451.5,56.7,449.2,54.4 M364.6,114.1l-0.3,4.5l-0.3-4.5l-22.4-65.4h-10.4l30.5,86.3
	h5.1l30.5-86.3H387L364.6,114.1z M313.4,135h10.4V16.8h-10.4V135z M291.9,27.9h12V16.8h-12V27.9z M292.7,135H303V48.6h-10.3V135z
	 M277.2,95.8c-2.2-1.9-4.7-3.4-7.6-4.6c-2.8-1.2-5.7-2.2-8.7-3.2c-2.9-0.9-5.8-1.8-8.7-2.7c-2.8-0.9-5.4-2-7.6-3.2s-4-2.9-5.3-4.8
	c-1.4-1.9-2-4.3-2-7.3c0-2.1,0.4-3.9,1.2-5.6c0.8-1.6,1.9-3,3.2-4.2c1.4-1.1,2.9-2,4.8-2.7c1.8-0.6,3.8-0.9,5.8-0.9h6.1
	c2.1,0,4,0.4,5.8,1.2s3.4,1.8,4.8,3.2c1.3,1.3,2.4,2.9,3.2,4.8c0.8,1.8,1.2,3.8,1.2,5.9v2.6l10.3-1.7v-0.3c0-3.5-0.7-6.8-2-9.9
	s-3.1-5.8-5.4-8.1s-5-4.1-8.1-5.4c-3.1-1.3-6.4-2-9.8-2h-6.1c-3.5,0-6.7,0.6-9.8,1.7c-3.1,1.1-5.7,2.8-8,4.9
	c-2.3,2.1-4.1,4.6-5.5,7.5s-2,6.1-2,9.6c0,4.1,0.7,7.5,2,10.3s3.1,5.1,5.3,6.9s4.7,3.3,7.6,4.4c2.8,1.1,5.7,2.1,8.7,3
	s5.9,1.7,8.7,2.6s5.4,2,7.6,3.3s4,3,5.3,4.9c1.4,2,2,4.5,2,7.6c0,2.1-0.4,3.9-1.3,5.6c-0.9,1.6-2.1,3-3.5,4.2
	c-1.5,1.2-3.2,2-5.1,2.7c-1.9,0.6-3.9,0.9-6,0.9h-6.9c-2.1,0-4.1-0.4-6-1.2c-1.9-0.8-3.6-1.8-5.1-3.2c-1.5-1.3-2.6-2.9-3.5-4.8
	c-0.9-1.8-1.3-3.8-1.3-5.9v-5.7l-10.3,1.7v3.5c0,3.5,0.7,6.8,2.1,9.9c1.4,3.1,3.3,5.8,5.7,8.1s5.2,4.1,8.3,5.4c3.2,1.3,6.5,2,10,2
	h6.9c3.5,0,6.8-0.6,10-1.7c3.2-1.2,6-2.8,8.4-4.8c2.4-2.1,4.3-4.6,5.7-7.5c1.4-2.9,2.1-6.1,2.1-9.6c0-4.1-0.7-7.5-2-10.3
	C281.3,100,279.5,97.6,277.2,95.8"/>
<g>
	<g>
		<g>
			<g>
				<g>
					<g>
						<defs>
							<path id="SVGID_1_" d="M100.8,0c-6.5,0-7.8,2.9-8,7.4c0,0.3,0.1,0.8-0.1,4.5C89.3,65.8,67,106.8,26.5,139
								c18.3-7.5,37.1-12.2,56.1-14.4c26-34.3,38.8-68.6,39.8-114.7c0-0.7,0-10,0-10L100.8,0L100.8,0z"/>
						</defs>
						<clipPath id="SVGID_2_">
							<use xlink:href="#SVGID_1_"  style="overflow:visible;"/>
						</clipPath>
						<g class="st1">
							<g>
								<g>
									<g>
										
											<linearGradient id="SVGID_3_" gradientUnits="userSpaceOnUse" x1="26.5" y1="118.55" x2="122.4" y2="118.55" gradientTransform="matrix(1 0 0 -1 0 188)">
											<stop  offset="1.065558e-08" style="stop-color:#39393C"/>
											<stop  offset="1" style="stop-color:#8A8A8D"/>
										</linearGradient>
										<path id="SVGID_5_" class="st2" d="M100.8,0c-6.5,0-7.8,2.9-8,7.4c0,0.3,0.1,0.8-0.1,4.5C89.3,65.8,67,106.8,26.5,139
											c18.3-7.5,37.1-12.2,56.1-14.4c26-34.3,38.8-68.6,39.8-114.7c0-0.7,0-10,0-10L100.8,0L100.8,0z"/>
									</g>
								</g>
							</g>
						</g>
					</g>
				</g>
			</g>
		</g>
	</g>
</g>
<g>
	<g>
		<g>
			<g>
				<g>
					<defs>
						<path id="SVGID_4_" d="M111,88.9c16.7,39.7,40,67.9,79.4,91.8c0.6,0.4,8.7,5,8.7,5l10.8-18.7c3.2-5.6,1.4-8.2-2.4-10.7
							c-0.3-0.2-0.7-0.3-3.8-2.4c-45-29.9-69.4-69.7-77-120.8C124,52.7,118.7,71.4,111,88.9"/>
					</defs>
					<clipPath id="SVGID_6_">
						<use xlink:href="#SVGID_4_"  style="overflow:visible;"/>
					</clipPath>
					<g class="st3">
						<g>
							<g>
								<g>
									<defs>
										<path id="SVGID_7_" d="M111,88.9c16.7,39.7,40,67.9,79.4,91.8c0.6,0.4,8.7,5,8.7,5l10.8-18.7c3.2-5.6,1.4-8.2-2.4-10.7
											c-0.3-0.2-0.7-0.3-3.8-2.4c-45-29.9-69.4-69.7-77-120.8C124,52.7,118.7,71.4,111,88.9"/>
									</defs>
									<clipPath id="SVGID_8_">
										<use xlink:href="#SVGID_7_"  style="overflow:visible;"/>
									</clipPath>
									<g class="st4">
										<g>
											<g>
												<g>
													<g>
														<g>
															<g>
																<defs>
																	<path id="SVGID_9_" d="M111,88.9c16.7,39.7,40,67.9,79.4,91.8c0.6,0.4,8.7,5,8.7,5l10.8-18.7
																		c3.2-5.6,1.4-8.2-2.4-10.7c-0.3-0.2-0.7-0.3-3.8-2.4c-45-29.9-69.4-69.7-77-120.8C124,52.7,118.7,71.4,111,88.9"/>
																</defs>
																<clipPath id="SVGID_10_">
																	<use xlink:href="#SVGID_9_"  style="overflow:visible;"/>
																</clipPath>
																<g class="st5">
																	<g>
																		<g>
																			<g>
																				
																					<linearGradient id="SVGID_11_" gradientUnits="userSpaceOnUse" x1="111" y1="78.6" x2="211.552" y2="78.6" gradientTransform="matrix(1 0 0 -1 0 188)">
																					<stop  offset="1.065558e-08" style="stop-color:#3C5E8F"/>
																					<stop  offset="0.6352" style="stop-color:#6291BD"/>
																					<stop  offset="0.9883" style="stop-color:#A8CEDB"/>
																				</linearGradient>
																				<path id="SVGID_16_" class="st6" d="M111,88.9c16.7,39.7,40,67.9,79.4,91.8c0.6,0.4,8.7,5,8.7,5l10.8-18.7
																					c3.2-5.6,1.4-8.2-2.4-10.7c-0.3-0.2-0.7-0.3-3.8-2.4c-45-29.9-69.4-69.7-77-120.8C124,52.7,118.7,71.4,111,88.9
																					"/>
																			</g>
																		</g>
																	</g>
																</g>
															</g>
														</g>
													</g>
												</g>
											</g>
										</g>
									</g>
								</g>
							</g>
						</g>
					</g>
				</g>
			</g>
		</g>
	</g>
</g>
<path class="st7" d="M570.5,111.9c0,2.1-0.4,4-1.2,5.9c-0.8,1.8-1.9,3.4-3.2,4.8c-1.4,1.4-2.9,2.4-4.8,3.2c-1.8,0.8-3.8,1.2-5.8,1.2
	h-6.9c-2.1,0-4-0.4-5.9-1.2c-1.8-0.8-3.4-1.8-4.8-3.2c-1.3-1.3-2.4-2.9-3.2-4.8c-0.8-1.8-1.2-3.8-1.2-5.9V71.8c0-2.1,0.4-4,1.2-5.9
	c0.8-1.8,1.8-3.4,3.2-4.8c1.4-1.4,2.9-2.4,4.8-3.2c1.8-0.8,3.8-1.2,5.9-1.2h6.9c2.1,0,4,0.4,5.8,1.2s3.4,1.8,4.8,3.2
	c1.3,1.4,2.4,2.9,3.2,4.8c0.8,1.8,1.2,3.8,1.2,5.9V111.9z M573.4,54.4c-2.3-2.3-5-4.1-8.1-5.4c-3.1-1.3-6.4-2-9.8-2h-2.6
	c-4.2,0-8.1,0.9-11.6,2.8c-3.6,1.9-6.5,4.4-8.9,7.6l-5.6-8.8h-3.4v118.6h10.3v-39.5c2.4,2.8,5.2,5,8.5,6.6s6.9,2.4,10.8,2.4h2.6
	c3.5,0,6.8-0.7,9.8-2c3.1-1.3,5.8-3.1,8.1-5.4c2.3-2.3,4.1-5,5.4-8.1c1.3-3.1,2-6.4,2-9.9v-39c0-3.5-0.7-6.8-2-9.9
	C577.5,59.4,575.7,56.7,573.4,54.4"/>
<path class="st7" d="M636.1,84.6h-36.9V71.8c0-2.1,0.4-4,1.2-5.9c0.8-1.8,1.9-3.4,3.2-4.7c1.3-1.4,2.9-2.4,4.8-3.2
	c1.8-0.8,3.8-1.2,5.8-1.2h6.9c2.1,0,4,0.4,5.8,1.2s3.4,1.9,4.8,3.2c1.3,1.3,2.4,2.9,3.2,4.7s1.2,3.8,1.2,5.9V84.6z M639,54.4
	c-2.3-2.3-5-4.1-8.1-5.4c-3.1-1.3-6.4-2-9.8-2h-6.9c-3.5,0-6.8,0.7-9.8,2c-3.1,1.3-5.8,3.1-8.1,5.4c-2.3,2.3-4.1,5-5.4,8.1
	c-1.3,3.1-2,6.4-2,9.9v39c0,3.5,0.6,6.8,2,9.9c1.3,3.1,3.1,5.8,5.4,8.1c2.3,2.3,5,4.1,8.1,5.4c3.1,1.3,6.4,2,9.8,2h6.9
	c3.5,0,6.8-0.7,9.8-2c3.1-1.3,5.8-3.1,8.1-5.4c2.3-2.3,4.1-5,5.4-8.1c1.3-3.1,2-6.4,2-9.9v-2.1l-10.3-3v5.7c0,2.1-0.4,4-1.2,5.9
	c-0.8,1.8-1.8,3.4-3.2,4.8s-2.9,2.4-4.8,3.2c-1.8,0.8-3.8,1.2-5.8,1.2h-6.9c-2.1,0-4-0.4-5.8-1.2c-1.8-0.8-3.4-1.9-4.8-3.2
	s-2.4-2.9-3.2-4.8c-0.8-1.8-1.2-3.8-1.2-5.9V92.7h47.2V72.3c0-3.5-0.7-6.8-2-9.9C643.1,59.4,641.3,56.7,639,54.4"/>
<path class="st7" d="M701.3,111.9c0,2.1-0.4,4-1.2,5.9c-0.8,1.8-1.9,3.4-3.2,4.8s-2.9,2.4-4.8,3.2c-1.8,0.8-3.8,1.2-5.9,1.2h-6.9
	c-2.1,0-4-0.4-5.8-1.2c-1.8-0.8-3.4-1.8-4.8-3.2c-1.4-1.3-2.4-2.9-3.2-4.8c-0.8-1.8-1.2-3.8-1.2-5.9v-3.6c0-2.1,0.4-4,1.2-5.9
	c0.8-1.8,1.8-3.4,3.2-4.8c1.3-1.4,2.9-2.5,4.8-3.2s3.8-1.2,5.8-1.2h21.9v18.7C701.2,111.9,701.3,111.9,701.3,111.9z M704.2,54.4
	c-2.3-2.3-5-4.1-8.1-5.4c-3.1-1.3-6.4-2-9.9-2h-6c-3.5,0-6.8,0.7-9.9,2c-3.1,1.3-5.8,3.1-8.1,5.4c-2.3,2.3-4.1,5-5.4,8.1
	c-1.3,3.1-2,6.4-2,9.9v0.4l10.3,3v-4c0-2.1,0.4-4,1.2-5.9c0.8-1.8,1.8-3.4,3.2-4.8c1.4-1.4,2.9-2.4,4.8-3.2c1.8-0.8,3.8-1.2,5.9-1.2
	h6c2.1,0,4,0.4,5.9,1.2c1.8,0.8,3.4,1.8,4.8,3.2c1.3,1.4,2.4,2.9,3.2,4.8c0.8,1.8,1.2,3.8,1.2,5.9v13.3h-21.9c-3.5,0-6.8,0.7-9.9,2
	c-3.1,1.3-5.8,3.1-8.1,5.4s-4.1,5-5.4,8.1c-1.3,3.1-2,6.4-2,9.9v0.8c0,3.5,0.7,6.8,2,9.9s3.1,5.8,5.4,8.1c2.3,2.3,5,4.1,8.1,5.4
	c3.1,1.3,6.4,2,9.9,2h2.6c4.2,0,8.1-0.9,11.6-2.8c3.5-1.9,6.5-4.4,8.8-7.5l5.7,8.6h3.5V72.3c0-3.5-0.7-6.8-2-9.9
	C708.3,59.4,706.5,56.7,704.2,54.4"/>
<path class="st7" d="M720.3,135h10.3V16.8h-10.3V135z"/>
<path class="st7" d="M764.8,48.6l-35.2,43.2l35.2,43.2h13.5l-36-43.2l36-43.2"/>
<g>
	<g>
		
			<linearGradient id="SVGID_12_" gradientUnits="userSpaceOnUse" x1="0" y1="32.05" x2="168" y2="32.05" gradientTransform="matrix(1 0 0 -1 0 188)">
			<stop  offset="1.173188e-02" style="stop-color:#A8CEDB"/>
			<stop  offset="0.3648" style="stop-color:#6291BD"/>
			<stop  offset="1" style="stop-color:#3C5E8F"/>
		</linearGradient>
		<path id="SVGID_19_" class="st8" d="M98.4,129.4h3.4v0.1L98.4,129.4L98.4,129.4z M93.8,129.4h12.3v0.1H93.8V129.4z M91.7,129.6
			h16.8v0.1L91.7,129.6L91.7,129.6z M89.5,129.6h21v0.1h-21V129.6z M87.7,129.8h24.8v0.1H87.7V129.8z M86.5,129.9h27.7v0.1
			L86.5,129.9L86.5,129.9z M85.2,129.9h30.2v0.1H85.2V129.9z M83.9,130.1h32.7v0.1L83.9,130.1L83.9,130.1z M82.6,130.1h35.3v0.1
			H82.6V130.1z M81.7,130.2h37.4v0.1H81.7V130.2z M80.8,130.4h39.5v0.1L80.8,130.4L80.8,130.4z M79.9,130.4h41.5v0.1H79.9V130.4z
			 M79,130.6h43.3v0.1L79,130.6L79,130.6z M78.1,130.6h45.1v0.1H78.1V130.6z M77.2,130.8h47v0.1h-47V130.8z M76.5,130.9h48.6v0.1
			L76.5,130.9L76.5,130.9z M75.8,130.9H126v0.1H75.8V130.9z M75.1,131.1h51.8v0.1L75.1,131.1L75.1,131.1z M74.4,131.1h53.3v0.1H74.4
			V131.1z M73.7,131.2H128v0.1H73.7V131.2z M73,131.4h55v0.1L73,131.4L73,131.4z M72.3,131.4h55.8v0.1H72.3V131.4z M71.7,131.6h56.5
			v0.1L71.7,131.6L71.7,131.6z M71,131.6h57.3v0.1H71V131.6z M70.5,131.8h57.8v0.1H70.5V131.8z M69.9,131.9h58.5v0.1L69.9,131.9
			L69.9,131.9z M69.4,131.9h59.1v0.1H69.4V131.9z M68.8,132.1h59.8v0.1L68.8,132.1L68.8,132.1z M68.2,132.1h60.4v0.1H68.2V132.1z
			 M67.7,132.2h61v0.1h-61V132.2z M67.1,132.4h61.7v0.1L67.1,132.4L67.1,132.4z M66.6,132.4h62.2v0.1H66.6V132.4z M66,132.6h62.9
			v0.1L66,132.6L66,132.6z M65.5,132.6H129v0.1H65.5V132.6z M65,132.8h64.1v0.1H65V132.8z M64.5,132.9h64.7v0.1L64.5,132.9
			L64.5,132.9z M64.1,132.9h65.1v0.1H64.1V132.9z M63.6,133.1h65.7v0.1L63.6,133.1L63.6,133.1z M63.2,133.1h66.2v0.1H63.2V133.1z
			 M62.7,133.2h66.8v0.1H62.7V133.2z M62.2,133.4h67.3v0.1L62.2,133.4L62.2,133.4z M61.8,133.4h67.8v0.1H61.8V133.4z M61.3,133.6
			h68.4v0.1L61.3,133.6L61.3,133.6z M60.8,133.6h69v0.1h-69C60.8,133.7,60.8,133.6,60.8,133.6z M60.4,133.8h69.4v0.1H60.4V133.8z
			 M59.9,133.9h70v0.1L59.9,133.9L59.9,133.9z M59.5,133.9H130v0.1H59.5V133.9z M59.1,134.1h71v0.1L59.1,134.1L59.1,134.1z
			 M58.7,134.1h71.5v0.1H58.7V134.1z M58.3,134.2h71.9v0.1H58.3V134.2z M57.9,134.4h72.4v0.1L57.9,134.4L57.9,134.4z M57.5,134.4
			h72.9v0.1H57.5V134.4z M57.1,134.6h73.4v0.1L57.1,134.6L57.1,134.6z M56.7,134.6h73.8v0.1H56.7V134.6z M56.3,134.8h74.3v0.1H56.3
			V134.8z M55.9,134.9h74.8v0.1L55.9,134.9L55.9,134.9z M55.5,134.9h75.3v0.1H55.5V134.9z M55.1,135.1h75.8v0.1L55.1,135.1
			L55.1,135.1z M54.7,135.1h76.2v0.1H54.7V135.1z M54.3,135.2H131v0.1H54.3V135.2z M54,135.4h77.1v0.1L54,135.4L54,135.4z
			 M53.6,135.4h77.6v0.1H53.6V135.4z M53.3,135.6h77.9v0.1L53.3,135.6L53.3,135.6z M52.9,135.6h78.4v0.1H52.9V135.6z M52.6,135.8
			h78.8v0.1H52.6V135.8z M52.2,135.9h79.3v0.1L52.2,135.9L52.2,135.9z M51.9,135.9h79.6v0.1H51.9V135.9z M51.5,136.1h80.1v0.1
			L51.5,136.1L51.5,136.1z M51.2,136.1h80.5v0.1H51.2V136.1z M50.8,136.2h81v0.1h-81C50.8,136.3,50.8,136.2,50.8,136.2z M50.5,136.4
			h81.4v0.1L50.5,136.4L50.5,136.4z M50.1,136.4h81.8v0.1H50.1V136.4z M49.8,136.6H132v0.1L49.8,136.6L49.8,136.6z M49.4,136.6h82.7
			v0.1H49.4V136.6z M49.1,136.8h83.1v0.1H49.1V136.8z M48.7,136.9h83.5v0.1L48.7,136.9L48.7,136.9z M48.4,136.9h83.9v0.1H48.4V136.9
			z M48.1,137.1h84.3v0.1L48.1,137.1L48.1,137.1z M47.8,137.1h84.7v0.1H47.8V137.1z M47.5,137.2h85.1v0.1H47.5V137.2z M47.2,137.4
			h85.5v0.1L47.2,137.4L47.2,137.4z M46.9,137.4h85.8v0.1H46.9V137.4z M46.6,137.6h86.2v0.1L46.6,137.6L46.6,137.6z M46.2,137.6
			h86.7v0.1H46.2V137.6z M45.9,137.8H133v0.1H45.9V137.8z M45.6,137.9h87.5v0.1L45.6,137.9L45.6,137.9z M45.3,137.9h87.8v0.1H45.3
			V137.9z M45,138.1h88.2v0.1L45,138.1L45,138.1z M44.7,138.1h88.6v0.1H44.7V138.1z M44.4,138.2h89v0.1h-89
			C44.4,138.3,44.4,138.2,44.4,138.2z M44.1,138.4h89.4v0.1L44.1,138.4L44.1,138.4z M43.8,138.4h89.8v0.1H43.8V138.4z M43.5,138.6
			h90.1v0.1L43.5,138.6L43.5,138.6z M43.1,138.6h90.6v0.1H43.1V138.6z M42.9,138.8h90.9v0.1H42.9V138.8z M42.6,138.9h91.3v0.1
			L42.6,138.9L42.6,138.9z M42.3,138.9H134v0.1H42.3V138.9z M42,139.1h92v0.1L42,139.1L42,139.1z M41.7,139.1h92.4v0.1H41.7V139.1z
			 M41.5,139.2h92.7v0.1H41.5V139.2z M41.2,139.4h93.1v0.1L41.2,139.4L41.2,139.4z M40.9,139.4h93.5v0.1H40.9V139.4z M40.6,139.6
			h93.9v0.1L40.6,139.6L40.6,139.6z M40.3,139.6h94.2v0.1H40.3V139.6z M40.1,139.8h94.5v0.1H40.1V139.8z M39.8,139.9h94.9v0.1
			L39.8,139.9L39.8,139.9z M39.5,139.9h95.3v0.1H39.5V139.9z M39.2,140.1h95.7v0.1L39.2,140.1L39.2,140.1z M39,140.1h95.9v0.1H39
			V140.1z M38.7,140.2H135v0.1H38.7V140.2z M38.4,140.4h96.7v0.1L38.4,140.4L38.4,140.4z M38.1,140.4h97.1v0.1H38.1V140.4z
			 M37.8,140.6h97.5v0.1L37.8,140.6L37.8,140.6z M37.6,140.6h97.8v0.1H37.6V140.6z M37.3,140.8h98.1v0.1H37.3V140.8z M37,140.9h98.5
			v0.1L37,140.9L37,140.9z M36.8,140.9h98.8v0.1H36.8V140.9z M36.5,141.1h99.2v0.1L36.5,141.1L36.5,141.1z M36.3,141.1h99.5v0.1
			H36.3V141.1z M36,141.2h99.8v0.1H36V141.2z M35.8,141.4h100.1v0.1L35.8,141.4L35.8,141.4z M35.5,141.4H136v0.1H35.5V141.4z
			 M35.3,141.6h100.8v0.1L35.3,141.6L35.3,141.6z M35,141.6h101.2v0.1H35V141.6z M34.8,141.8h101.5v0.1H34.8V141.8z M34.5,141.9
			h101.8v0.1L34.5,141.9L34.5,141.9z M34.2,141.9h102.2v0.1H34.2V141.9z M34,142.1h102.5v0.1L34,142.1L34,142.1z M33.7,142.1h102.9
			v0.1H33.7V142.1z M33.5,142.2h103.2v0.1H33.5V142.2z M33.2,142.4h103.6v0.1L33.2,142.4L33.2,142.4z M33,142.4h103.8v0.1H33V142.4z
			 M32.7,142.6h104.2v0.1L32.7,142.6L32.7,142.6z M32.5,142.6H137v0.1H32.5V142.6z M32.2,142.8h104.9v0.1H32.2V142.8z M32,142.9
			h105.2v0.1L32,142.9L32,142.9z M31.7,142.9h105.6v0.1H31.7V142.9z M31.5,143.1h105.9v0.1L31.5,143.1L31.5,143.1z M31.2,143.1
			h106.2v0.1H31.2V143.1z M31,143.2h106.5v0.1H31V143.2z M30.8,143.4h106.8v0.1L30.8,143.4L30.8,143.4z M30.5,143.4h107.2v0.1H30.5
			V143.4z M30.3,143.6h107.5v0.1L30.3,143.6L30.3,143.6z M30.1,143.6h107.8v0.1H30.1V143.6z M29.8,143.8H138v0.1H29.8V143.8z
			 M29.6,143.9h108.5v0.1L29.6,143.9L29.6,143.9z M29.4,143.9h108.8v0.1H29.4V143.9z M29.1,144.1h109.1v0.1L29.1,144.1L29.1,144.1z
			 M28.9,144.1h109.4v0.1H28.9V144.1z M28.7,144.2h109.7v0.1H28.7V144.2z M28.4,144.4h110.1v0.1L28.4,144.4L28.4,144.4z M28.2,144.4
			h110.4v0.1H28.2V144.4z M28,144.6h110.7v0.1L28,144.6L28,144.6z M27.8,144.6h111v0.1h-111C27.8,144.7,27.8,144.6,27.8,144.6z
			 M27.5,144.8h111.4v0.1H27.5V144.8z M27.3,144.9h111.6v0.1L27.3,144.9L27.3,144.9z M27.1,144.9H139v0.1H27.1V144.9z M26.8,145.1
			h112.3v0.1L26.8,145.1L26.8,145.1z M26.6,145.1h112.6v0.1H26.6V145.1z M26.4,145.2h112.9v0.1H26.4V145.2z M26.1,145.4h113.3v0.1
			L26.1,145.4L26.1,145.4z M25.9,145.4h113.6v0.1H25.9V145.4z M25.7,145.6h113.9v0.1L25.7,145.6L25.7,145.6z M25.5,145.6h114.1v0.1
			H25.5V145.6z M25.3,145.8h114.4v0.1H25.3V145.8z M25,145.9h114.8v0.1L25,145.9L25,145.9z M24.8,145.9h115.1v0.1H24.8V145.9z
			 M24.6,146.1H140v0.1L24.6,146.1L24.6,146.1z M24.4,146.1h115.7v0.1H24.4V146.1z M24.2,146.2h116v0.1h-116
			C24.2,146.3,24.2,146.2,24.2,146.2z M24,146.4h116.3v0.1L24,146.4L24,146.4z M23.7,146.4h116.6v0.1H23.7V146.4z M23.5,146.6h116.9
			v0.1L23.5,146.6L23.5,146.6z M23.3,146.6h117.2v0.1H23.3V146.6z M23.1,146.8h117.5v0.1H23.1V146.8z M22.9,146.9h117.8v0.1
			L22.9,146.9L22.9,146.9z M22.7,146.9h118.1v0.1H22.7V146.9z M22.5,147.1h118.4v0.1L22.5,147.1L22.5,147.1z M22.2,147.1H141v0.1
			H22.2V147.1z M22,147.2h119.1v0.1H22V147.2z M21.8,147.4h119.3v0.1L21.8,147.4L21.8,147.4z M21.6,147.4h119.6v0.1H21.6V147.4z
			 M21.4,147.6h119.9v0.1L21.4,147.6L21.4,147.6z M21.2,147.6h120.2v0.1H21.2V147.6z M20.9,147.8h120.6v0.1H20.9V147.8z M20.7,147.9
			h120.9v0.1L20.7,147.9L20.7,147.9z M20.5,147.9h121.2v0.1H20.5V147.9z M20.3,148.1h121.5v0.1L20.3,148.1L20.3,148.1z M20.1,148.1
			h121.8v0.1H20.1V148.1z M19.9,148.2H142v0.1H19.9V148.2z M19.7,148.4h122.4v0.1L19.7,148.4L19.7,148.4z M19.5,148.4h122.6v0.1
			H19.5V148.4z M19.3,148.6h122.9v0.1L19.3,148.6L19.3,148.6z M19.1,148.6h123.2v0.1H19.1V148.6z M18.9,148.8h123.5v0.1H18.9V148.8z
			 M18.7,148.9h123.8v0.1L18.7,148.9L18.7,148.9z M18.5,148.9h124.1v0.1H18.5V148.9z M18.3,149.1h124.4v0.1L18.3,149.1L18.3,149.1z
			 M18.1,149.1h124.7v0.1H18.1V149.1z M17.9,149.2h125v0.1h-125C17.9,149.3,17.9,149.2,17.9,149.2z M17.7,149.4H143v0.1L17.7,149.4
			L17.7,149.4z M17.5,149.4h125.6v0.1H17.5V149.4z M17.3,149.6h125.9v0.1L17.3,149.6L17.3,149.6z M17.1,149.6h126.2v0.1H17.1V149.6z
			 M16.9,149.8h126.5v0.1H16.9V149.8z M16.7,149.9h126.8v0.1L16.7,149.9L16.7,149.9z M16.5,149.9h127.1v0.1H16.5V149.9z M16.3,150.1
			h127.4v0.1L16.3,150.1L16.3,150.1z M16.1,150.1h127.6v0.1H16.1V150.1z M15.9,150.2h127.9v0.1H15.9V150.2z M15.7,150.4h128.2v0.1
			L15.7,150.4L15.7,150.4z M15.5,150.4H144v0.1H15.5V150.4z M15.3,150.6h128.8v0.1L15.3,150.6L15.3,150.6z M15.1,150.6h129.1v0.1
			H15.1V150.6z M14.9,150.8h129.4v0.1H14.9V150.8z M14.7,150.9h129.7v0.1L14.7,150.9L14.7,150.9z M14.5,150.9h130v0.1h-130V150.9z
			 M14.3,151.1h130.3v0.1L14.3,151.1L14.3,151.1z M14.1,151.1h130.6v0.1H14.1V151.1z M13.9,151.2h130.9v0.1H13.9V151.2z M13.7,151.4
			h131.2v0.1L13.7,151.4L13.7,151.4z M13.5,151.4H145v0.1H13.5V151.4z M13.4,151.6h131.7v0.1L13.4,151.6L13.4,151.6z M13.2,151.6
			h132v0.1h-132C13.2,151.7,13.2,151.6,13.2,151.6z M13,151.8h132.3v0.1H13V151.8z M12.8,151.9h132.5v0.1L12.8,151.9L12.8,151.9z
			 M12.6,151.9h132.8v0.1H12.6V151.9z M12.4,152.1h133.1v0.1L12.4,152.1L12.4,152.1z M12.2,152.1h133.4v0.1H12.2V152.1z M12,152.2
			h133.7v0.1H12V152.2z M11.8,152.4h134v0.1L11.8,152.4L11.8,152.4z M11.6,152.4h134.3v0.1H11.6V152.4z M11.5,152.6H146v0.1
			L11.5,152.6L11.5,152.6z M11.3,152.6h134.8v0.1H11.3V152.6z M11.1,152.8h135.1v0.1H11.1V152.8z M10.9,152.9h135.4v0.1L10.9,152.9
			L10.9,152.9z M10.7,152.9h135.7v0.1H10.7V152.9z M10.5,153.1h136v0.1L10.5,153.1L10.5,153.1z M10.3,153.1h136.3v0.1H10.3V153.1z
			 M10.1,153.2h136.6v0.1H10.1V153.2z M9.9,153.4h136.9v0.1L9.9,153.4L9.9,153.4z M9.8,153.4h137.1v0.1H9.8V153.4z M9.6,153.6H147
			v0.1L9.6,153.6L9.6,153.6z M9.4,153.6h137.7v0.1H9.4V153.6z M9.2,153.8h138v0.1H9.2V153.8z M9,153.9h138.3v0.1L9,153.9L9,153.9z
			 M8.9,153.9h138.5v0.1H8.9V153.9z M8.7,154.1h138.8v0.1L8.7,154.1L8.7,154.1z M8.5,154.1h139.1v0.1H8.5V154.1z M8.3,154.2h139.4
			v0.1H8.3V154.2z M8.1,154.4h139.7v0.1L8.1,154.4L8.1,154.4z M8,154.4h139.9v0.1H8V154.4z M7.8,154.6H148v0.1L7.8,154.6L7.8,154.6z
			 M7.6,154.6h140.5v0.1H7.6V154.6z M7.4,154.8h140.8v0.1H7.4V154.8z M7.3,154.9h141v0.1L7.3,154.9L7.3,154.9z M7.1,154.9h141.3v0.1
			H7.1V154.9z M6.9,155.1h141.6v0.1L6.9,155.1L6.9,155.1z M6.7,155.1h141.9v0.1H6.7V155.1z M6.6,155.2h142.1v0.1H6.6V155.2z
			 M6.4,155.4h142.4v0.1L6.4,155.4L6.4,155.4z M6.2,155.4h142.7v0.1H6.2V155.4z M6,155.6h143v0.1L6,155.6L6,155.6z M5.9,155.6h143.2
			v0.1H5.9V155.6z M5.7,155.8h143.5v0.1H5.7V155.8z M5.5,155.9h143.8v0.1L5.5,155.9L5.5,155.9z M5.4,155.9h144v0.1H5.4V155.9z
			 M5.2,156.1h144.3v0.1L5.2,156.1L5.2,156.1z M5,156.1h144.6v0.1H5V156.1z M4.8,156.2h144.9v0.1H4.8V156.2z M4.7,156.4h145.1v0.1
			L4.7,156.4L4.7,156.4z M4.5,156.4h145.4v0.1H4.5V156.4z M4.3,156.6H150v0.1L4.3,156.6L4.3,156.6z M4.1,156.6h146v0.1H4.1V156.6z
			 M4,156.8h146.2v0.1H4V156.8z M3.8,156.9h146.5v0.1L3.8,156.9L3.8,156.9z M3.6,156.9h146.8v0.1H3.6V156.9z M3.4,157.1h147.1v0.1
			L3.4,157.1L3.4,157.1z M3.3,157.1h147.3v0.1H3.3V157.1z M3.1,157.2h147.6v0.1H3.1V157.2z M2.9,157.4h147.9v0.1L2.9,157.4
			L2.9,157.4z M2.8,157.4h148.1v0.1H2.8V157.4z M2.6,157.6H151v0.1L2.6,157.6L2.6,157.6z M2.4,157.6h148.7v0.1H2.4V157.6z
			 M2.2,157.8h149v0.1H2.2V157.8z M2.1,157.9h149.2v0.1L2.1,157.9L2.1,157.9z M1.9,157.9h149.5v0.1H1.9V157.9z M1.7,158.1h149.8v0.1
			L1.7,158.1L1.7,158.1z M1.5,158.1h150.1v0.1H1.5V158.1z M1.4,158.2h150.3v0.1H1.4V158.2z M1.2,158.4h150.6v0.1L1.2,158.4
			L1.2,158.4z M1,158.4h150.9v0.1H1V158.4z M0.9,158.6h151.2v0.1L0.9,158.6L0.9,158.6z M0.7,158.6h151.5v0.1H0.7V158.6z M0.5,158.8
			h151.8v0.1H0.5V158.8z M0.3,158.9h152.1v0.1L0.3,158.9L0.3,158.9z M0.2,158.9h152.3v0.1H0.2V158.9z M0,159.1h152.6v0.1L0,159.1
			L0,159.1z M0,159.1h152.7v0.1H0V159.1z M0,159.2h152.8v0.1H0V159.2z M0.1,159.4h152.8v0.1L0.1,159.4L0.1,159.4z M0.1,159.4H153
			v0.1H0.1V159.4z M0.2,159.6h152.9v0.1L0.2,159.6L0.2,159.6z M0.2,159.6h101.5v0.1H0.2V159.6z M106.7,159.6h46.5v0.1h-46.5V159.6z
			 M109,159.8h44.4v0.1H109V159.8z M0.3,159.8h95.9v0.1H0.3V159.8z M0.3,159.9h94.4v0.1L0.3,159.9L0.3,159.9z M111.2,159.9h42.3v0.1
			L111.2,159.9L111.2,159.9z M0.4,159.9h92.9v0.1H0.4V159.9z M113.4,159.9h40.2v0.1h-40.2C113.4,160,113.4,159.9,113.4,159.9z
			 M115.1,160.1h38.6v0.1L115.1,160.1L115.1,160.1z M0.5,160.1h91.3v0.1L0.5,160.1L0.5,160.1z M0.5,160.1h89.8v0.1H0.5V160.1z
			 M116.1,160.1h37.7v0.1h-37.7C116.1,160.2,116.1,160.1,116.1,160.1z M117.1,160.2h36.8v0.1h-36.8
			C117.1,160.3,117.1,160.2,117.1,160.2z M0.6,160.2h88.3v0.1H0.6V160.2z M0.6,160.4h87.1v0.1L0.6,160.4L0.6,160.4z M118.1,160.4
			H154v0.1L118.1,160.4L118.1,160.4z M119.1,160.4h35v0.1h-35C119.1,160.5,119.1,160.4,119.1,160.4z M0.7,160.4h86.2v0.1H0.7V160.4z
			 M0.7,160.6h85.4v0.1L0.7,160.6L0.7,160.6z M120,160.6h34.2v0.1L120,160.6L120,160.6z M0.8,160.6h84.5v0.1H0.8V160.6z M121,160.6
			h33.3v0.1H121V160.6z M122,160.8h32.4v0.1H122V160.8z M0.9,160.8h83.5v0.1H0.9V160.8z M0.9,160.9h82.8v0.1L0.9,160.9L0.9,160.9z
			 M123,160.9h31.5v0.1L123,160.9L123,160.9z M123.8,160.9h30.9v0.1h-30.9C123.8,161,123.8,160.9,123.8,160.9z M1,160.9h81.8v0.1H1
			V160.9z M1,161.1h81v0.1L1,161.1L1,161.1z M124.5,161.1h30.3v0.1L124.5,161.1L124.5,161.1z M125.1,161.1h29.8v0.1h-29.8
			C125.1,161.2,125.1,161.1,125.1,161.1z M1.1,161.1h80.1v0.1H1.1V161.1z M1.1,161.2h79.3v0.1H1.1V161.2z M125.8,161.2H155v0.1
			h-29.2V161.2z M1.2,161.4h78.4v0.1L1.2,161.4L1.2,161.4z M126.4,161.4h28.7v0.1L126.4,161.4L126.4,161.4z M127.1,161.4h28.1v0.1
			h-28.1V161.4z M1.3,161.4h77.6v0.1H1.3V161.4z M1.3,161.6h77.1v0.1L1.3,161.6L1.3,161.6z M127.7,161.6h27.6v0.1L127.7,161.6
			L127.7,161.6z M128.3,161.6h27.1v0.1h-27.1V161.6z M1.4,161.6h76.4v0.1H1.4V161.6z M1.4,161.8h75.9v0.1H1.4V161.8z M129,161.8
			h26.5v0.1H129V161.8z M1.5,161.9h75.2v0.1L1.5,161.9L1.5,161.9z M129.6,161.9h26v0.1L129.6,161.9L129.6,161.9z M130.3,161.9h25.4
			v0.1h-25.4V161.9z M1.6,161.9h74.6v0.1H1.6V161.9z M1.6,162.1h74v0.1L1.6,162.1L1.6,162.1z M130.9,162.1h24.9v0.1L130.9,162.1
			L130.9,162.1z M131.6,162.1H156v0.1h-24.4V162.1z M1.7,162.1h73.4v0.1H1.7V162.1z M1.7,162.2h72.8v0.1H1.7V162.2z M132.2,162.2
			h23.9v0.1h-23.9V162.2z M132.7,162.4h23.5v0.1L132.7,162.4L132.7,162.4z M1.8,162.4H74v0.1L1.8,162.4L1.8,162.4z M1.8,162.4h71.6
			v0.1H1.8V162.4z M133.2,162.4h23.1v0.1h-23.1V162.4z M1.9,162.6h71v0.1L1.9,162.6L1.9,162.6z M133.7,162.6h22.7v0.1L133.7,162.6
			L133.7,162.6z M134.2,162.6h22.3v0.1h-22.3V162.6z M2,162.6h70.3v0.1H2V162.6z M2,162.8h69.8v0.1H2V162.8z M134.6,162.8h22v0.1
			h-22V162.8z M135.1,162.9h21.6v0.1L135.1,162.9L135.1,162.9z M2.1,162.9h69.1v0.1L2.1,162.9L2.1,162.9z M2.1,162.9h68.6v0.1H2.1
			V162.9z M135.6,162.9h21.2v0.1h-21.2V162.9z M136.1,163.1h20.8v0.1L136.1,163.1L136.1,163.1z M2.2,163.1h67.9v0.1L2.2,163.1
			L2.2,163.1z M2.2,163.1h67.5v0.1H2.2V163.1z M136.5,163.1H157v0.1h-20.5V163.1z M2.3,163.2h67v0.1h-67
			C2.3,163.3,2.3,163.2,2.3,163.2z M137,163.2h20.2v0.1H137V163.2z M137.5,163.4h19.8v0.1L137.5,163.4L137.5,163.4z M2.4,163.4h66.5
			v0.1L2.4,163.4L2.4,163.4z M2.4,163.4h66.1v0.1H2.4V163.4z M138,163.4h19.4v0.1H138V163.4z M138.5,163.6h19v0.1L138.5,163.6
			L138.5,163.6z M2.5,163.6H68v0.1L2.5,163.6L2.5,163.6z M2.5,163.6h65.1v0.1H2.5V163.6z M138.9,163.6h18.7v0.1h-18.7V163.6z
			 M139.4,163.8h18.3v0.1h-18.3V163.8z M2.6,163.8h64.6v0.1H2.6V163.8z M2.6,163.9h64.2v0.1L2.6,163.9L2.6,163.9z M139.9,163.9h18
			v0.1L139.9,163.9L139.9,163.9z M2.7,163.9h63.7v0.1H2.7V163.9z M140.4,163.9H158v0.1h-17.6V163.9z M140.8,164.1h17.3v0.1
			L140.8,164.1L140.8,164.1z M2.8,164.1h63.1v0.1L2.8,164.1L2.8,164.1z M2.8,164.1h62.7v0.1H2.8V164.1z M141.3,164.1h16.9v0.1h-16.9
			V164.1z M141.7,164.2h16.6v0.1h-16.6V164.2z M2.9,164.2h62.2v0.1H2.9V164.2z M2.9,164.4h61.8v0.1L2.9,164.4L2.9,164.4z
			 M142.1,164.4h16.3v0.1L142.1,164.4L142.1,164.4z M3,164.4h61.3v0.1H3V164.4z M142.5,164.4h16v0.1h-16V164.4z M142.8,164.6h15.9
			v0.1L142.8,164.6L142.8,164.6z M3.1,164.6h60.8v0.1L3.1,164.6L3.1,164.6z M3.1,164.6h60.3v0.1H3.1V164.6z M143.2,164.6h15.6v0.1
			h-15.6V164.6z M143.6,164.8h15.3v0.1h-15.3V164.8z M3.2,164.8H63v0.1H3.2V164.8z M3.2,164.9h59.4v0.1L3.2,164.9L3.2,164.9z
			 M144,164.9h15v0.1L144,164.9L144,164.9z M144.4,164.9h14.7v0.1h-14.7V164.9z M3.3,164.9h58.9v0.1H3.3V164.9z M3.3,165.1h58.5v0.1
			L3.3,165.1L3.3,165.1z M144.7,165.1h14.5v0.1L144.7,165.1L144.7,165.1z M3.4,165.1h58v0.1h-58C3.4,165.2,3.4,165.1,3.4,165.1z
			 M145.1,165.1h14.3v0.1h-14.3V165.1z M145.5,165.2h14v0.1h-14V165.2z M3.5,165.2H61v0.1H3.5V165.2z M3.5,165.4h57.2v0.1L3.5,165.4
			L3.5,165.4z M145.9,165.4h13.7v0.1L145.9,165.4L145.9,165.4z M146.3,165.4h13.4v0.1h-13.4V165.4z M3.6,165.4h56.7v0.1H3.6V165.4z
			 M3.6,165.6H60v0.1L3.6,165.6L3.6,165.6z M146.6,165.6h13.2v0.1L146.6,165.6L146.6,165.6z M147,165.6h12.9v0.1H147V165.6z
			 M3.7,165.6h55.9v0.1H3.7V165.6z M3.7,165.8h55.6v0.1H3.7V165.8z M147.4,165.8h12.7v0.1h-12.7V165.8z M3.8,165.9H59v0.1L3.8,165.9
			L3.8,165.9z M147.8,165.9h12.4v0.1L147.8,165.9L147.8,165.9z M148.2,165.9h12.1v0.1h-12.1V165.9z M3.9,165.9h54.7v0.1H3.9V165.9z
			 M3.9,166.1h54.4v0.1L3.9,166.1L3.9,166.1z M148.5,166.1h11.9v0.1L148.5,166.1L148.5,166.1z M148.9,166.1h11.6v0.1h-11.6V166.1z
			 M4,166.1h54v0.1H4V166.1z M4,166.2h53.6v0.1H4V166.2z M149.3,166.2h11.3v0.1h-11.3V166.2z M149.7,166.4h11.1v0.1L149.7,166.4
			L149.7,166.4z M4.1,166.4h53.2v0.1L4.1,166.4L4.1,166.4z M4.1,166.4h52.8v0.1H4.1V166.4z M150.1,166.4h10.8v0.1h-10.8V166.4z
			 M4.2,166.6h52.4v0.1L4.2,166.6L4.2,166.6z M150.4,166.6H161v0.1L150.4,166.6L150.4,166.6z M150.7,166.6h10.4v0.1h-10.4V166.6z
			 M4.3,166.6h52v0.1h-52C4.3,166.7,4.3,166.6,4.3,166.6z M4.3,166.8h51.6v0.1H4.3V166.8z M151,166.8h10.2v0.1H151V166.8z
			 M151.4,166.9h9.9v0.1L151.4,166.9L151.4,166.9z M4.4,166.9h51.2v0.1L4.4,166.9L4.4,166.9z M4.4,166.9h50.9v0.1H4.4V166.9z
			 M151.7,166.9h9.8v0.1h-9.8V166.9z M4.5,167.1h50.4v0.1L4.5,167.1L4.5,167.1z M152,167.1h9.6v0.1L152,167.1L152,167.1z
			 M152.3,167.1h9.4v0.1h-9.4V167.1z M4.6,167.1h50v0.1h-50C4.6,167.2,4.6,167.1,4.6,167.1z M4.6,167.2h49.6v0.1H4.6V167.2z
			 M152.6,167.2h9.2v0.1h-9.2V167.2z M152.9,167.4h9v0.1L152.9,167.4L152.9,167.4z M4.7,167.4h49.2v0.1L4.7,167.4L4.7,167.4z
			 M4.7,167.4h48.9v0.1H4.7V167.4z M153.3,167.4h8.7v0.1h-8.7V167.4z M153.6,167.6h8.6v0.1L153.6,167.6L153.6,167.6z M4.8,167.6
			h48.4v0.1L4.8,167.6L4.8,167.6z M4.8,167.6h48.1v0.1H4.8V167.6z M153.9,167.6h8.4v0.1h-8.4V167.6z M4.9,167.8h47.7v0.1H4.9V167.8z
			 M154.2,167.8h8.2v0.1h-8.2V167.8z M154.5,167.9h8v0.1L154.5,167.9L154.5,167.9z M5,167.9h47.2v0.1L5,167.9L5,167.9z M5,167.9
			h46.9v0.1H5V167.9z M154.8,167.9h7.8v0.1h-7.8V167.9z M155.2,168.1h7.5v0.1L155.2,168.1L155.2,168.1z M5.1,168.1h46.6v0.1
			L5.1,168.1L5.1,168.1z M5.1,168.1h46.3v0.1H5.1V168.1z M155.5,168.1h7.4v0.1h-7.4V168.1z M155.8,168.2h7.2v0.1h-7.2V168.2z
			 M5.2,168.2h45.9v0.1H5.2V168.2z M5.2,168.4h45.6v0.1L5.2,168.4L5.2,168.4z M156.1,168.4h7v0.1L156.1,168.4L156.1,168.4z
			 M5.3,168.4h45.2v0.1H5.3V168.4z M156.4,168.4h6.8v0.1h-6.8V168.4z M156.7,168.6h6.7v0.1L156.7,168.6L156.7,168.6z M5.4,168.6
			h44.9v0.1L5.4,168.6L5.4,168.6z M5.4,168.6H50v0.1H5.4V168.6z M157.1,168.6h6.4v0.1h-6.4V168.6z M157.4,168.8h6.2v0.1h-6.2V168.8z
			 M5.5,168.8h44.2v0.1H5.5V168.8z M5.5,168.9h43.9v0.1L5.5,168.9L5.5,168.9z M157.7,168.9h6v0.1L157.7,168.9L157.7,168.9z
			 M158,168.9h5.9v0.1H158V168.9z M5.6,168.9h43.5v0.1H5.6V168.9z M5.6,169.1h43.2v0.1L5.6,169.1L5.6,169.1z M158.3,169.1h5.7v0.1
			L158.3,169.1L158.3,169.1z M5.7,169.1h42.9v0.1H5.7V169.1z M158.6,169.1h5.5v0.1h-5.5V169.1z M159,169.2h5.2v0.1H159V169.2z
			 M5.8,169.2h42.5v0.1H5.8V169.2z M5.8,169.4H48v0.1L5.8,169.4L5.8,169.4z M159.3,169.4h5v0.1L159.3,169.4L159.3,169.4z
			 M159.5,169.4h5v0.1h-5V169.4z M5.9,169.4h41.8v0.1H5.9V169.4z M5.9,169.6h41.5v0.1L5.9,169.6L5.9,169.6z M159.8,169.6h4.8v0.1
			L159.8,169.6L159.8,169.6z M6,169.6h41.1v0.1H6V169.6z M160.1,169.6h4.6v0.1h-4.6V169.6z M160.4,169.8h4.4v0.1h-4.4V169.8z
			 M6.1,169.8h40.8v0.1H6.1V169.8z M6.1,169.9h40.5v0.1L6.1,169.9L6.1,169.9z M160.7,169.9h4.3v0.1L160.7,169.9L160.7,169.9z
			 M160.9,169.9h4.2v0.1h-4.2V169.9z M6.2,169.9h40.1v0.1H6.2V169.9z M6.2,170.1H46v0.1L6.2,170.1L6.2,170.1z M161.2,170.1h4v0.1
			L161.2,170.1L161.2,170.1z M161.5,170.1h3.8v0.1h-3.8V170.1z M6.3,170.1h39.4v0.1H6.3V170.1z M6.3,170.2h39.1v0.1H6.3V170.2z
			 M161.8,170.2h3.7v0.1h-3.7V170.2z M6.4,170.4h38.8v0.1L6.4,170.4L6.4,170.4z M162.1,170.4h3.5v0.1L162.1,170.4L162.1,170.4z
			 M162.3,170.4h3.4v0.1h-3.4V170.4z M6.5,170.4h38.4v0.1H6.5V170.4z M6.5,170.6h38.1v0.1L6.5,170.6L6.5,170.6z M162.6,170.6h3.2
			v0.1L162.6,170.6L162.6,170.6z M162.9,170.6h3.1v0.1h-3.1V170.6z M6.6,170.6h37.7v0.1H6.6V170.6z M6.6,170.8H44v0.1H6.6V170.8z
			 M163.2,170.8h2.9v0.1h-2.9V170.8z M163.4,170.9h2.8v0.1L163.4,170.9L163.4,170.9z M6.7,170.9h37.1v0.1L6.7,170.9L6.7,170.9z
			 M6.7,170.9h36.8v0.1H6.7V170.9z M163.7,170.9h2.6v0.1h-2.6V170.9z M6.8,171.1h36.4v0.1L6.8,171.1L6.8,171.1z M164,171.1h2.4v0.1
			L164,171.1L164,171.1z M164.3,171.1h2.3v0.1h-2.3V171.1z M6.9,171.1H43v0.1H6.9V171.1z M6.9,171.2h35.8v0.1H6.9V171.2z
			 M164.6,171.2h2.1v0.1h-2.1V171.2z M164.8,171.4h2v0.1L164.8,171.4L164.8,171.4z M7,171.4h35.5v0.1L7,171.4L7,171.4z M7,171.4
			h35.2v0.1H7V171.4z M165.1,171.4h1.8v0.1h-1.8V171.4z M165.4,171.6h1.7v0.1L165.4,171.6L165.4,171.6z M7.1,171.6H42v0.1L7.1,171.6
			L7.1,171.6z M7.1,171.6h34.6v0.1H7.1V171.6z M165.7,171.6h1.5v0.1h-1.5V171.6z M7.2,171.8h34.3v0.1H7.2V171.8z M165.9,171.8h1.4
			v0.1h-1.4V171.8z M166.2,171.9h1.3v0.1L166.2,171.9L166.2,171.9z M7.3,171.9h34v0.1L7.3,171.9L7.3,171.9z M7.3,171.9H41v0.1H7.3
			V171.9z M166.5,171.9h1.1v0.1h-1.1V171.9z M166.7,172.1h1v0.1L166.7,172.1L166.7,172.1z M7.4,172.1h33.4v0.1L7.4,172.1L7.4,172.1z
			 M7.4,172.1h33.1v0.1H7.4V172.1z M167,172.1h0.8v0.1H167V172.1z M7.5,172.2h32.8v0.1H7.5V172.2z M167.2,172.2h0.8v0.1h-0.8V172.2z
			 M167.5,172.4h0.5v0.1L167.5,172.4L167.5,172.4z M7.6,172.4H40v0.1L7.6,172.4L7.6,172.4z M7.6,172.4h32.2v0.1H7.6V172.4z
			 M167.7,172.4h0.3v0.1h-0.3V172.4z M7.7,172.6h31.9v0.1L7.7,172.6L7.7,172.6z M7.7,172.6h31.6v0.1H7.7V172.6z M7.8,172.8h31.3v0.1
			H7.8V172.8z M7.8,172.9h31v0.1L7.8,172.9L7.8,172.9z M7.9,172.9h30.7v0.1H7.9V172.9z M8,173.1h30.3v0.1L8,173.1L8,173.1z M8,173.1
			h30.1v0.1H8V173.1z M8.1,173.2h29.8v0.1H8.1V173.2z M8.1,173.4h29.5v0.1L8.1,173.4L8.1,173.4z M8.2,173.4h29.2v0.1H8.2V173.4z
			 M8.2,173.6h28.9v0.1L8.2,173.6L8.2,173.6z M8.3,173.6h28.6v0.1H8.3V173.6z M8.4,173.8h28.2v0.1H8.4V173.8z M8.4,173.9h28v0.1
			L8.4,173.9L8.4,173.9z M8.5,173.9h27.7v0.1H8.5V173.9z M8.5,174.1h27.4v0.1L8.5,174.1L8.5,174.1z M8.6,174.1h27.1v0.1H8.6V174.1z
			 M8.6,174.2h26.8v0.1H8.6V174.2z M8.7,174.4h26.5v0.1L8.7,174.4L8.7,174.4z M8.8,174.4h26.1v0.1H8.8V174.4z M8.8,174.6h25.9v0.1
			L8.8,174.6L8.8,174.6z M8.9,174.6h25.6v0.1H8.9V174.6z M8.9,174.8h25.3v0.1H8.9V174.8z M9,174.9h25v0.1L9,174.9L9,174.9z
			 M9.1,174.9h24.7v0.1H9.1V174.9z M9.1,175.1h24.5v0.1L9.1,175.1L9.1,175.1z M9.2,175.1h24.1v0.1H9.2V175.1z M9.2,175.2h23.9v0.1
			H9.2V175.2z M9.3,175.4h23.6v0.1L9.3,175.4L9.3,175.4z M9.3,175.4h23.4v0.1H9.3V175.4z M9.4,175.6h23.1v0.1L9.4,175.6L9.4,175.6z
			 M9.5,175.6h22.8v0.1H9.5V175.6z M9.5,175.8H32v0.1H9.5V175.8z M9.6,175.9h22.2v0.1L9.6,175.9L9.6,175.9z M9.6,175.9h22v0.1h-22
			V175.9z M9.7,176.1h21.7v0.1L9.7,176.1L9.7,176.1z M9.7,176.1h21.5v0.1H9.7V176.1z M9.8,176.2h21.1v0.1H9.8V176.2z M9.9,176.4
			h20.8v0.1L9.9,176.4L9.9,176.4z M9.9,176.4h20.6v0.1H9.9V176.4z M10,176.6h20.3v0.1L10,176.6L10,176.6z M10,176.6h20.1v0.1H10
			V176.6z M10.1,176.8h19.8v0.1H10.1V176.8z M10.1,176.9h19.5v0.1L10.1,176.9L10.1,176.9z M10.2,176.9h19.2v0.1H10.2V176.9z
			 M10.3,177.1h18.9v0.1L10.3,177.1L10.3,177.1z M10.3,177.1H29v0.1H10.3V177.1z M10.4,177.2h18.4v0.1H10.4V177.2z M10.4,177.4h18.1
			v0.1L10.4,177.4L10.4,177.4z M10.5,177.4h17.8v0.1H10.5V177.4z M10.6,177.6h17.5v0.1L10.6,177.6L10.6,177.6z M10.6,177.6h17.3v0.1
			H10.6V177.6z M10.7,177.8h17v0.1h-17C10.7,177.9,10.7,177.8,10.7,177.8z M10.7,177.9h16.8v0.1L10.7,177.9L10.7,177.9z M10.8,177.9
			h16.5v0.1H10.8V177.9z M10.8,178.1h16.3v0.1L10.8,178.1L10.8,178.1z M10.9,178.1h16v0.1h-16V178.1z M11,178.2h15.7v0.1H11V178.2z
			 M11,178.4h15.5v0.1L11,178.4L11,178.4z M11.1,178.4h15.2v0.1H11.1V178.4z M11.2,178.6h14.9v0.1L11.2,178.6L11.2,178.6z
			 M11.2,178.6h14.6v0.1H11.2V178.6z M11.3,178.8h14.3v0.1H11.3V178.8z M11.4,178.9h14v0.1L11.4,178.9L11.4,178.9z M11.4,178.9h13.8
			v0.1H11.4V178.9z M11.5,179.1H25v0.1L11.5,179.1L11.5,179.1z M11.6,179.1h13.2v0.1H11.6V179.1z M11.6,179.2h13.1v0.1H11.6V179.2z
			 M11.7,179.4h12.8v0.1L11.7,179.4L11.7,179.4z M11.8,179.4h12.5v0.1H11.8V179.4z M11.8,179.6h12.3v0.1L11.8,179.6L11.8,179.6z
			 M11.9,179.6h12v0.1h-12V179.6z M12,179.8h11.7v0.1H12V179.8z M12.1,179.9h11.4v0.1L12.1,179.9L12.1,179.9z M12.2,179.9h11.1v0.1
			H12.2V179.9z M12.3,180.1h10.8v0.1L12.3,180.1L12.3,180.1z M12.4,180.1h10.5v0.1H12.4V180.1z M12.5,180.2h10.2v0.1H12.5V180.2z
			 M12.5,180.4h10v0.1L12.5,180.4L12.5,180.4z M12.6,180.4h9.8v0.1h-9.8C12.6,180.5,12.6,180.4,12.6,180.4z M12.7,180.6h9.5v0.1
			L12.7,180.6L12.7,180.6z M12.8,180.6H22v0.1h-9.2V180.6z M12.9,180.8h8.9v0.1h-8.9V180.8z M13,180.9h8.7v0.1L13,180.9L13,180.9z
			 M13.1,180.9h8.4v0.1h-8.4V180.9z M13.2,181.1h8.1v0.1L13.2,181.1L13.2,181.1z M13.3,181.1h7.8v0.1h-7.8V181.1z M13.5,181.2h7.4
			v0.1h-7.4V181.2z M13.6,181.4h7.1v0.1L13.6,181.4L13.6,181.4z M13.8,181.4h6.7v0.1h-6.7V181.4z M13.9,181.6h6.4v0.1L13.9,181.6
			L13.9,181.6z M14.1,181.6h6v0.1h-6V181.6z M14.2,181.8h5.7v0.1h-5.7V181.8z M14.3,181.9h5.3v0.1L14.3,181.9L14.3,181.9z
			 M14.6,181.9h4.7v0.1h-4.7C14.6,182,14.6,181.9,14.6,181.9z M14.8,182.1H19v0.1L14.8,182.1L14.8,182.1z M15.1,182.1h3.6v0.1h-3.6
			V182.1z M15.4,182.2h3v0.1h-3V182.2z M15.6,182.4h2.2v0.1L15.6,182.4L15.6,182.4z M16.8,182.4h0.3v0.1h-0.3V182.4z"/>
	</g>
	<g>
		<defs>
			<path id="SVGID_13_" d="M98.4,129.4h3.4v0.1L98.4,129.4L98.4,129.4z M93.8,129.4h12.3v0.1H93.8V129.4z M91.7,129.6h16.8v0.1
				L91.7,129.6L91.7,129.6z M89.5,129.6h21v0.1h-21V129.6z M87.7,129.8h24.8v0.1H87.7V129.8z M86.5,129.9h27.7v0.1L86.5,129.9
				L86.5,129.9z M85.2,129.9h30.2v0.1H85.2V129.9z M83.9,130.1h32.7v0.1L83.9,130.1L83.9,130.1z M82.6,130.1h35.3v0.1H82.6V130.1z
				 M81.7,130.2h37.4v0.1H81.7V130.2z M80.8,130.4h39.5v0.1L80.8,130.4L80.8,130.4z M79.9,130.4h41.5v0.1H79.9V130.4z M79,130.6
				h43.3v0.1L79,130.6L79,130.6z M78.1,130.6h45.1v0.1H78.1V130.6z M77.2,130.8h47v0.1h-47V130.8z M76.5,130.9h48.6v0.1L76.5,130.9
				L76.5,130.9z M75.8,130.9H126v0.1H75.8V130.9z M75.1,131.1h51.8v0.1L75.1,131.1L75.1,131.1z M74.4,131.1h53.3v0.1H74.4V131.1z
				 M73.7,131.2H128v0.1H73.7V131.2z M73,131.4h55v0.1L73,131.4L73,131.4z M72.3,131.4h55.8v0.1H72.3V131.4z M71.7,131.6h56.5v0.1
				L71.7,131.6L71.7,131.6z M71,131.6h57.3v0.1H71V131.6z M70.5,131.8h57.8v0.1H70.5V131.8z M69.9,131.9h58.5v0.1L69.9,131.9
				L69.9,131.9z M69.4,131.9h59.1v0.1H69.4V131.9z M68.8,132.1h59.8v0.1L68.8,132.1L68.8,132.1z M68.2,132.1h60.4v0.1H68.2V132.1z
				 M67.7,132.2h61v0.1h-61V132.2z M67.1,132.4h61.7v0.1L67.1,132.4L67.1,132.4z M66.6,132.4h62.2v0.1H66.6V132.4z M66,132.6h62.9
				v0.1L66,132.6L66,132.6z M65.5,132.6H129v0.1H65.5V132.6z M65,132.8h64.1v0.1H65V132.8z M64.5,132.9h64.7v0.1L64.5,132.9
				L64.5,132.9z M64.1,132.9h65.1v0.1H64.1V132.9z M63.6,133.1h65.7v0.1L63.6,133.1L63.6,133.1z M63.2,133.1h66.2v0.1H63.2V133.1z
				 M62.7,133.2h66.8v0.1H62.7V133.2z M62.2,133.4h67.3v0.1L62.2,133.4L62.2,133.4z M61.8,133.4h67.8v0.1H61.8V133.4z M61.3,133.6
				h68.4v0.1L61.3,133.6L61.3,133.6z M60.8,133.6h69v0.1h-69C60.8,133.7,60.8,133.6,60.8,133.6z M60.4,133.8h69.4v0.1H60.4V133.8z
				 M59.9,133.9h70v0.1L59.9,133.9L59.9,133.9z M59.5,133.9H130v0.1H59.5V133.9z M59.1,134.1h71v0.1L59.1,134.1L59.1,134.1z
				 M58.7,134.1h71.5v0.1H58.7V134.1z M58.3,134.2h71.9v0.1H58.3V134.2z M57.9,134.4h72.4v0.1L57.9,134.4L57.9,134.4z M57.5,134.4
				h72.9v0.1H57.5V134.4z M57.1,134.6h73.4v0.1L57.1,134.6L57.1,134.6z M56.7,134.6h73.8v0.1H56.7V134.6z M56.3,134.8h74.3v0.1H56.3
				V134.8z M55.9,134.9h74.8v0.1L55.9,134.9L55.9,134.9z M55.5,134.9h75.3v0.1H55.5V134.9z M55.1,135.1h75.8v0.1L55.1,135.1
				L55.1,135.1z M54.7,135.1h76.2v0.1H54.7V135.1z M54.3,135.2H131v0.1H54.3V135.2z M54,135.4h77.1v0.1L54,135.4L54,135.4z
				 M53.6,135.4h77.6v0.1H53.6V135.4z M53.3,135.6h77.9v0.1L53.3,135.6L53.3,135.6z M52.9,135.6h78.4v0.1H52.9V135.6z M52.6,135.8
				h78.8v0.1H52.6V135.8z M52.2,135.9h79.3v0.1L52.2,135.9L52.2,135.9z M51.9,135.9h79.6v0.1H51.9V135.9z M51.5,136.1h80.1v0.1
				L51.5,136.1L51.5,136.1z M51.2,136.1h80.5v0.1H51.2V136.1z M50.8,136.2h81v0.1h-81C50.8,136.3,50.8,136.2,50.8,136.2z
				 M50.5,136.4h81.4v0.1L50.5,136.4L50.5,136.4z M50.1,136.4h81.8v0.1H50.1V136.4z M49.8,136.6H132v0.1L49.8,136.6L49.8,136.6z
				 M49.4,136.6h82.7v0.1H49.4V136.6z M49.1,136.8h83.1v0.1H49.1V136.8z M48.7,136.9h83.5v0.1L48.7,136.9L48.7,136.9z M48.4,136.9
				h83.9v0.1H48.4V136.9z M48.1,137.1h84.3v0.1L48.1,137.1L48.1,137.1z M47.8,137.1h84.7v0.1H47.8V137.1z M47.5,137.2h85.1v0.1H47.5
				V137.2z M47.2,137.4h85.5v0.1L47.2,137.4L47.2,137.4z M46.9,137.4h85.8v0.1H46.9V137.4z M46.6,137.6h86.2v0.1L46.6,137.6
				L46.6,137.6z M46.2,137.6h86.7v0.1H46.2V137.6z M45.9,137.8H133v0.1H45.9V137.8z M45.6,137.9h87.5v0.1L45.6,137.9L45.6,137.9z
				 M45.3,137.9h87.8v0.1H45.3V137.9z M45,138.1h88.2v0.1L45,138.1L45,138.1z M44.7,138.1h88.6v0.1H44.7V138.1z M44.4,138.2h89v0.1
				h-89C44.4,138.3,44.4,138.2,44.4,138.2z M44.1,138.4h89.4v0.1L44.1,138.4L44.1,138.4z M43.8,138.4h89.8v0.1H43.8V138.4z
				 M43.5,138.6h90.1v0.1L43.5,138.6L43.5,138.6z M43.1,138.6h90.6v0.1H43.1V138.6z M42.9,138.8h90.9v0.1H42.9V138.8z M42.6,138.9
				h91.3v0.1L42.6,138.9L42.6,138.9z M42.3,138.9H134v0.1H42.3V138.9z M42,139.1h92v0.1L42,139.1L42,139.1z M41.7,139.1h92.4v0.1
				H41.7V139.1z M41.5,139.2h92.7v0.1H41.5V139.2z M41.2,139.4h93.1v0.1L41.2,139.4L41.2,139.4z M40.9,139.4h93.5v0.1H40.9V139.4z
				 M40.6,139.6h93.9v0.1L40.6,139.6L40.6,139.6z M40.3,139.6h94.2v0.1H40.3V139.6z M40.1,139.8h94.5v0.1H40.1V139.8z M39.8,139.9
				h94.9v0.1L39.8,139.9L39.8,139.9z M39.5,139.9h95.3v0.1H39.5V139.9z M39.2,140.1h95.7v0.1L39.2,140.1L39.2,140.1z M39,140.1h95.9
				v0.1H39V140.1z M38.7,140.2H135v0.1H38.7V140.2z M38.4,140.4h96.7v0.1L38.4,140.4L38.4,140.4z M38.1,140.4h97.1v0.1H38.1V140.4z
				 M37.8,140.6h97.5v0.1L37.8,140.6L37.8,140.6z M37.6,140.6h97.8v0.1H37.6V140.6z M37.3,140.8h98.1v0.1H37.3V140.8z M37,140.9
				h98.5v0.1L37,140.9L37,140.9z M36.8,140.9h98.8v0.1H36.8V140.9z M36.5,141.1h99.2v0.1L36.5,141.1L36.5,141.1z M36.3,141.1h99.5
				v0.1H36.3V141.1z M36,141.2h99.8v0.1H36V141.2z M35.8,141.4h100.1v0.1L35.8,141.4L35.8,141.4z M35.5,141.4H136v0.1H35.5V141.4z
				 M35.3,141.6h100.8v0.1L35.3,141.6L35.3,141.6z M35,141.6h101.2v0.1H35V141.6z M34.8,141.8h101.5v0.1H34.8V141.8z M34.5,141.9
				h101.8v0.1L34.5,141.9L34.5,141.9z M34.2,141.9h102.2v0.1H34.2V141.9z M34,142.1h102.5v0.1L34,142.1L34,142.1z M33.7,142.1h102.9
				v0.1H33.7V142.1z M33.5,142.2h103.2v0.1H33.5V142.2z M33.2,142.4h103.6v0.1L33.2,142.4L33.2,142.4z M33,142.4h103.8v0.1H33V142.4
				z M32.7,142.6h104.2v0.1L32.7,142.6L32.7,142.6z M32.5,142.6H137v0.1H32.5V142.6z M32.2,142.8h104.9v0.1H32.2V142.8z M32,142.9
				h105.2v0.1L32,142.9L32,142.9z M31.7,142.9h105.6v0.1H31.7V142.9z M31.5,143.1h105.9v0.1L31.5,143.1L31.5,143.1z M31.2,143.1
				h106.2v0.1H31.2V143.1z M31,143.2h106.5v0.1H31V143.2z M30.8,143.4h106.8v0.1L30.8,143.4L30.8,143.4z M30.5,143.4h107.2v0.1H30.5
				V143.4z M30.3,143.6h107.5v0.1L30.3,143.6L30.3,143.6z M30.1,143.6h107.8v0.1H30.1V143.6z M29.8,143.8H138v0.1H29.8V143.8z
				 M29.6,143.9h108.5v0.1L29.6,143.9L29.6,143.9z M29.4,143.9h108.8v0.1H29.4V143.9z M29.1,144.1h109.1v0.1L29.1,144.1L29.1,144.1z
				 M28.9,144.1h109.4v0.1H28.9V144.1z M28.7,144.2h109.7v0.1H28.7V144.2z M28.4,144.4h110.1v0.1L28.4,144.4L28.4,144.4z
				 M28.2,144.4h110.4v0.1H28.2V144.4z M28,144.6h110.7v0.1L28,144.6L28,144.6z M27.8,144.6h111v0.1h-111
				C27.8,144.7,27.8,144.6,27.8,144.6z M27.5,144.8h111.4v0.1H27.5V144.8z M27.3,144.9h111.6v0.1L27.3,144.9L27.3,144.9z
				 M27.1,144.9H139v0.1H27.1V144.9z M26.8,145.1h112.3v0.1L26.8,145.1L26.8,145.1z M26.6,145.1h112.6v0.1H26.6V145.1z M26.4,145.2
				h112.9v0.1H26.4V145.2z M26.1,145.4h113.3v0.1L26.1,145.4L26.1,145.4z M25.9,145.4h113.6v0.1H25.9V145.4z M25.7,145.6h113.9v0.1
				L25.7,145.6L25.7,145.6z M25.5,145.6h114.1v0.1H25.5V145.6z M25.3,145.8h114.4v0.1H25.3V145.8z M25,145.9h114.8v0.1L25,145.9
				L25,145.9z M24.8,145.9h115.1v0.1H24.8V145.9z M24.6,146.1H140v0.1L24.6,146.1L24.6,146.1z M24.4,146.1h115.7v0.1H24.4V146.1z
				 M24.2,146.2h116v0.1h-116C24.2,146.3,24.2,146.2,24.2,146.2z M24,146.4h116.3v0.1L24,146.4L24,146.4z M23.7,146.4h116.6v0.1
				H23.7V146.4z M23.5,146.6h116.9v0.1L23.5,146.6L23.5,146.6z M23.3,146.6h117.2v0.1H23.3V146.6z M23.1,146.8h117.5v0.1H23.1V146.8
				z M22.9,146.9h117.8v0.1L22.9,146.9L22.9,146.9z M22.7,146.9h118.1v0.1H22.7V146.9z M22.5,147.1h118.4v0.1L22.5,147.1L22.5,147.1
				z M22.2,147.1H141v0.1H22.2V147.1z M22,147.2h119.1v0.1H22V147.2z M21.8,147.4h119.3v0.1L21.8,147.4L21.8,147.4z M21.6,147.4
				h119.6v0.1H21.6V147.4z M21.4,147.6h119.9v0.1L21.4,147.6L21.4,147.6z M21.2,147.6h120.2v0.1H21.2V147.6z M20.9,147.8h120.6v0.1
				H20.9V147.8z M20.7,147.9h120.9v0.1L20.7,147.9L20.7,147.9z M20.5,147.9h121.2v0.1H20.5V147.9z M20.3,148.1h121.5v0.1L20.3,148.1
				L20.3,148.1z M20.1,148.1h121.8v0.1H20.1V148.1z M19.9,148.2H142v0.1H19.9V148.2z M19.7,148.4h122.4v0.1L19.7,148.4L19.7,148.4z
				 M19.5,148.4h122.6v0.1H19.5V148.4z M19.3,148.6h122.9v0.1L19.3,148.6L19.3,148.6z M19.1,148.6h123.2v0.1H19.1V148.6z
				 M18.9,148.8h123.5v0.1H18.9V148.8z M18.7,148.9h123.8v0.1L18.7,148.9L18.7,148.9z M18.5,148.9h124.1v0.1H18.5V148.9z
				 M18.3,149.1h124.4v0.1L18.3,149.1L18.3,149.1z M18.1,149.1h124.7v0.1H18.1V149.1z M17.9,149.2h125v0.1h-125
				C17.9,149.3,17.9,149.2,17.9,149.2z M17.7,149.4H143v0.1L17.7,149.4L17.7,149.4z M17.5,149.4h125.6v0.1H17.5V149.4z M17.3,149.6
				h125.9v0.1L17.3,149.6L17.3,149.6z M17.1,149.6h126.2v0.1H17.1V149.6z M16.9,149.8h126.5v0.1H16.9V149.8z M16.7,149.9h126.8v0.1
				L16.7,149.9L16.7,149.9z M16.5,149.9h127.1v0.1H16.5V149.9z M16.3,150.1h127.4v0.1L16.3,150.1L16.3,150.1z M16.1,150.1h127.6v0.1
				H16.1V150.1z M15.9,150.2h127.9v0.1H15.9V150.2z M15.7,150.4h128.2v0.1L15.7,150.4L15.7,150.4z M15.5,150.4H144v0.1H15.5V150.4z
				 M15.3,150.6h128.8v0.1L15.3,150.6L15.3,150.6z M15.1,150.6h129.1v0.1H15.1V150.6z M14.9,150.8h129.4v0.1H14.9V150.8z
				 M14.7,150.9h129.7v0.1L14.7,150.9L14.7,150.9z M14.5,150.9h130v0.1h-130V150.9z M14.3,151.1h130.3v0.1L14.3,151.1L14.3,151.1z
				 M14.1,151.1h130.6v0.1H14.1V151.1z M13.9,151.2h130.9v0.1H13.9V151.2z M13.7,151.4h131.2v0.1L13.7,151.4L13.7,151.4z
				 M13.5,151.4H145v0.1H13.5V151.4z M13.4,151.6h131.7v0.1L13.4,151.6L13.4,151.6z M13.2,151.6h132v0.1h-132
				C13.2,151.7,13.2,151.6,13.2,151.6z M13,151.8h132.3v0.1H13V151.8z M12.8,151.9h132.5v0.1L12.8,151.9L12.8,151.9z M12.6,151.9
				h132.8v0.1H12.6V151.9z M12.4,152.1h133.1v0.1L12.4,152.1L12.4,152.1z M12.2,152.1h133.4v0.1H12.2V152.1z M12,152.2h133.7v0.1H12
				V152.2z M11.8,152.4h134v0.1L11.8,152.4L11.8,152.4z M11.6,152.4h134.3v0.1H11.6V152.4z M11.5,152.6H146v0.1L11.5,152.6
				L11.5,152.6z M11.3,152.6h134.8v0.1H11.3V152.6z M11.1,152.8h135.1v0.1H11.1V152.8z M10.9,152.9h135.4v0.1L10.9,152.9L10.9,152.9
				z M10.7,152.9h135.7v0.1H10.7V152.9z M10.5,153.1h136v0.1L10.5,153.1L10.5,153.1z M10.3,153.1h136.3v0.1H10.3V153.1z M10.1,153.2
				h136.6v0.1H10.1V153.2z M9.9,153.4h136.9v0.1L9.9,153.4L9.9,153.4z M9.8,153.4h137.1v0.1H9.8V153.4z M9.6,153.6H147v0.1
				L9.6,153.6L9.6,153.6z M9.4,153.6h137.7v0.1H9.4V153.6z M9.2,153.8h138v0.1H9.2V153.8z M9,153.9h138.3v0.1L9,153.9L9,153.9z
				 M8.9,153.9h138.5v0.1H8.9V153.9z M8.7,154.1h138.8v0.1L8.7,154.1L8.7,154.1z M8.5,154.1h139.1v0.1H8.5V154.1z M8.3,154.2h139.4
				v0.1H8.3V154.2z M8.1,154.4h139.7v0.1L8.1,154.4L8.1,154.4z M8,154.4h139.9v0.1H8V154.4z M7.8,154.6H148v0.1L7.8,154.6L7.8,154.6
				z M7.6,154.6h140.5v0.1H7.6V154.6z M7.4,154.8h140.8v0.1H7.4V154.8z M7.3,154.9h141v0.1L7.3,154.9L7.3,154.9z M7.1,154.9h141.3
				v0.1H7.1V154.9z M6.9,155.1h141.6v0.1L6.9,155.1L6.9,155.1z M6.7,155.1h141.9v0.1H6.7V155.1z M6.6,155.2h142.1v0.1H6.6V155.2z
				 M6.4,155.4h142.4v0.1L6.4,155.4L6.4,155.4z M6.2,155.4h142.7v0.1H6.2V155.4z M6,155.6h143v0.1L6,155.6L6,155.6z M5.9,155.6
				h143.2v0.1H5.9V155.6z M5.7,155.8h143.5v0.1H5.7V155.8z M5.5,155.9h143.8v0.1L5.5,155.9L5.5,155.9z M5.4,155.9h144v0.1H5.4V155.9
				z M5.2,156.1h144.3v0.1L5.2,156.1L5.2,156.1z M5,156.1h144.6v0.1H5V156.1z M4.8,156.2h144.9v0.1H4.8V156.2z M4.7,156.4h145.1v0.1
				L4.7,156.4L4.7,156.4z M4.5,156.4h145.4v0.1H4.5V156.4z M4.3,156.6H150v0.1L4.3,156.6L4.3,156.6z M4.1,156.6h146v0.1H4.1V156.6z
				 M4,156.8h146.2v0.1H4V156.8z M3.8,156.9h146.5v0.1L3.8,156.9L3.8,156.9z M3.6,156.9h146.8v0.1H3.6V156.9z M3.4,157.1h147.1v0.1
				L3.4,157.1L3.4,157.1z M3.3,157.1h147.3v0.1H3.3V157.1z M3.1,157.2h147.6v0.1H3.1V157.2z M2.9,157.4h147.9v0.1L2.9,157.4
				L2.9,157.4z M2.8,157.4h148.1v0.1H2.8V157.4z M2.6,157.6H151v0.1L2.6,157.6L2.6,157.6z M2.4,157.6h148.7v0.1H2.4V157.6z
				 M2.2,157.8h149v0.1H2.2V157.8z M2.1,157.9h149.2v0.1L2.1,157.9L2.1,157.9z M1.9,157.9h149.5v0.1H1.9V157.9z M1.7,158.1h149.8
				v0.1L1.7,158.1L1.7,158.1z M1.5,158.1h150.1v0.1H1.5V158.1z M1.4,158.2h150.3v0.1H1.4V158.2z M1.2,158.4h150.6v0.1L1.2,158.4
				L1.2,158.4z M1,158.4h150.9v0.1H1V158.4z M0.9,158.6h151.2v0.1L0.9,158.6L0.9,158.6z M0.7,158.6h151.5v0.1H0.7V158.6z M0.5,158.8
				h151.8v0.1H0.5V158.8z M0.3,158.9h152.1v0.1L0.3,158.9L0.3,158.9z M0.2,158.9h152.3v0.1H0.2V158.9z M0,159.1h152.6v0.1L0,159.1
				L0,159.1z M0,159.1h152.7v0.1H0V159.1z M0,159.2h152.8v0.1H0V159.2z M0.1,159.4h152.8v0.1L0.1,159.4L0.1,159.4z M0.1,159.4H153
				v0.1H0.1V159.4z M0.2,159.6h152.9v0.1L0.2,159.6L0.2,159.6z M0.2,159.6h101.5v0.1H0.2V159.6z M106.7,159.6h46.5v0.1h-46.5V159.6z
				 M109,159.8h44.4v0.1H109V159.8z M0.3,159.8h95.9v0.1H0.3V159.8z M0.3,159.9h94.4v0.1L0.3,159.9L0.3,159.9z M111.2,159.9h42.3
				v0.1L111.2,159.9L111.2,159.9z M0.4,159.9h92.9v0.1H0.4V159.9z M113.4,159.9h40.2v0.1h-40.2C113.4,160,113.4,159.9,113.4,159.9z
				 M115.1,160.1h38.6v0.1L115.1,160.1L115.1,160.1z M0.5,160.1h91.3v0.1L0.5,160.1L0.5,160.1z M0.5,160.1h89.8v0.1H0.5V160.1z
				 M116.1,160.1h37.7v0.1h-37.7C116.1,160.2,116.1,160.1,116.1,160.1z M117.1,160.2h36.8v0.1h-36.8
				C117.1,160.3,117.1,160.2,117.1,160.2z M0.6,160.2h88.3v0.1H0.6V160.2z M0.6,160.4h87.1v0.1L0.6,160.4L0.6,160.4z M118.1,160.4
				H154v0.1L118.1,160.4L118.1,160.4z M119.1,160.4h35v0.1h-35C119.1,160.5,119.1,160.4,119.1,160.4z M0.7,160.4h86.2v0.1H0.7V160.4
				z M0.7,160.6h85.4v0.1L0.7,160.6L0.7,160.6z M120,160.6h34.2v0.1L120,160.6L120,160.6z M0.8,160.6h84.5v0.1H0.8V160.6z
				 M121,160.6h33.3v0.1H121V160.6z M122,160.8h32.4v0.1H122V160.8z M0.9,160.8h83.5v0.1H0.9V160.8z M0.9,160.9h82.8v0.1L0.9,160.9
				L0.9,160.9z M123,160.9h31.5v0.1L123,160.9L123,160.9z M123.8,160.9h30.9v0.1h-30.9C123.8,161,123.8,160.9,123.8,160.9z M1,160.9
				h81.8v0.1H1V160.9z M1,161.1h81v0.1L1,161.1L1,161.1z M124.5,161.1h30.3v0.1L124.5,161.1L124.5,161.1z M125.1,161.1h29.8v0.1
				h-29.8C125.1,161.2,125.1,161.1,125.1,161.1z M1.1,161.1h80.1v0.1H1.1V161.1z M1.1,161.2h79.3v0.1H1.1V161.2z M125.8,161.2H155
				v0.1h-29.2V161.2z M1.2,161.4h78.4v0.1L1.2,161.4L1.2,161.4z M126.4,161.4h28.7v0.1L126.4,161.4L126.4,161.4z M127.1,161.4h28.1
				v0.1h-28.1V161.4z M1.3,161.4h77.6v0.1H1.3V161.4z M1.3,161.6h77.1v0.1L1.3,161.6L1.3,161.6z M127.7,161.6h27.6v0.1L127.7,161.6
				L127.7,161.6z M128.3,161.6h27.1v0.1h-27.1V161.6z M1.4,161.6h76.4v0.1H1.4V161.6z M1.4,161.8h75.9v0.1H1.4V161.8z M129,161.8
				h26.5v0.1H129V161.8z M1.5,161.9h75.2v0.1L1.5,161.9L1.5,161.9z M129.6,161.9h26v0.1L129.6,161.9L129.6,161.9z M130.3,161.9h25.4
				v0.1h-25.4V161.9z M1.6,161.9h74.6v0.1H1.6V161.9z M1.6,162.1h74v0.1L1.6,162.1L1.6,162.1z M130.9,162.1h24.9v0.1L130.9,162.1
				L130.9,162.1z M131.6,162.1H156v0.1h-24.4V162.1z M1.7,162.1h73.4v0.1H1.7V162.1z M1.7,162.2h72.8v0.1H1.7V162.2z M132.2,162.2
				h23.9v0.1h-23.9V162.2z M132.7,162.4h23.5v0.1L132.7,162.4L132.7,162.4z M1.8,162.4H74v0.1L1.8,162.4L1.8,162.4z M1.8,162.4h71.6
				v0.1H1.8V162.4z M133.2,162.4h23.1v0.1h-23.1V162.4z M1.9,162.6h71v0.1L1.9,162.6L1.9,162.6z M133.7,162.6h22.7v0.1L133.7,162.6
				L133.7,162.6z M134.2,162.6h22.3v0.1h-22.3V162.6z M2,162.6h70.3v0.1H2V162.6z M2,162.8h69.8v0.1H2V162.8z M134.6,162.8h22v0.1
				h-22V162.8z M135.1,162.9h21.6v0.1L135.1,162.9L135.1,162.9z M2.1,162.9h69.1v0.1L2.1,162.9L2.1,162.9z M2.1,162.9h68.6v0.1H2.1
				V162.9z M135.6,162.9h21.2v0.1h-21.2V162.9z M136.1,163.1h20.8v0.1L136.1,163.1L136.1,163.1z M2.2,163.1h67.9v0.1L2.2,163.1
				L2.2,163.1z M2.2,163.1h67.5v0.1H2.2V163.1z M136.5,163.1H157v0.1h-20.5V163.1z M2.3,163.2h67v0.1h-67
				C2.3,163.3,2.3,163.2,2.3,163.2z M137,163.2h20.2v0.1H137V163.2z M137.5,163.4h19.8v0.1L137.5,163.4L137.5,163.4z M2.4,163.4
				h66.5v0.1L2.4,163.4L2.4,163.4z M2.4,163.4h66.1v0.1H2.4V163.4z M138,163.4h19.4v0.1H138V163.4z M138.5,163.6h19v0.1L138.5,163.6
				L138.5,163.6z M2.5,163.6H68v0.1L2.5,163.6L2.5,163.6z M2.5,163.6h65.1v0.1H2.5V163.6z M138.9,163.6h18.7v0.1h-18.7V163.6z
				 M139.4,163.8h18.3v0.1h-18.3V163.8z M2.6,163.8h64.6v0.1H2.6V163.8z M2.6,163.9h64.2v0.1L2.6,163.9L2.6,163.9z M139.9,163.9h18
				v0.1L139.9,163.9L139.9,163.9z M2.7,163.9h63.7v0.1H2.7V163.9z M140.4,163.9H158v0.1h-17.6V163.9z M140.8,164.1h17.3v0.1
				L140.8,164.1L140.8,164.1z M2.8,164.1h63.1v0.1L2.8,164.1L2.8,164.1z M2.8,164.1h62.7v0.1H2.8V164.1z M141.3,164.1h16.9v0.1
				h-16.9V164.1z M141.7,164.2h16.6v0.1h-16.6V164.2z M2.9,164.2h62.2v0.1H2.9V164.2z M2.9,164.4h61.8v0.1L2.9,164.4L2.9,164.4z
				 M142.1,164.4h16.3v0.1L142.1,164.4L142.1,164.4z M3,164.4h61.3v0.1H3V164.4z M142.5,164.4h16v0.1h-16V164.4z M142.8,164.6h15.9
				v0.1L142.8,164.6L142.8,164.6z M3.1,164.6h60.8v0.1L3.1,164.6L3.1,164.6z M3.1,164.6h60.3v0.1H3.1V164.6z M143.2,164.6h15.6v0.1
				h-15.6V164.6z M143.6,164.8h15.3v0.1h-15.3V164.8z M3.2,164.8H63v0.1H3.2V164.8z M3.2,164.9h59.4v0.1L3.2,164.9L3.2,164.9z
				 M144,164.9h15v0.1L144,164.9L144,164.9z M144.4,164.9h14.7v0.1h-14.7V164.9z M3.3,164.9h58.9v0.1H3.3V164.9z M3.3,165.1h58.5
				v0.1L3.3,165.1L3.3,165.1z M144.7,165.1h14.5v0.1L144.7,165.1L144.7,165.1z M3.4,165.1h58v0.1h-58C3.4,165.2,3.4,165.1,3.4,165.1
				z M145.1,165.1h14.3v0.1h-14.3V165.1z M145.5,165.2h14v0.1h-14V165.2z M3.5,165.2H61v0.1H3.5V165.2z M3.5,165.4h57.2v0.1
				L3.5,165.4L3.5,165.4z M145.9,165.4h13.7v0.1L145.9,165.4L145.9,165.4z M146.3,165.4h13.4v0.1h-13.4V165.4z M3.6,165.4h56.7v0.1
				H3.6V165.4z M3.6,165.6H60v0.1L3.6,165.6L3.6,165.6z M146.6,165.6h13.2v0.1L146.6,165.6L146.6,165.6z M147,165.6h12.9v0.1H147
				V165.6z M3.7,165.6h55.9v0.1H3.7V165.6z M3.7,165.8h55.6v0.1H3.7V165.8z M147.4,165.8h12.7v0.1h-12.7V165.8z M3.8,165.9H59v0.1
				L3.8,165.9L3.8,165.9z M147.8,165.9h12.4v0.1L147.8,165.9L147.8,165.9z M148.2,165.9h12.1v0.1h-12.1V165.9z M3.9,165.9h54.7v0.1
				H3.9V165.9z M3.9,166.1h54.4v0.1L3.9,166.1L3.9,166.1z M148.5,166.1h11.9v0.1L148.5,166.1L148.5,166.1z M148.9,166.1h11.6v0.1
				h-11.6V166.1z M4,166.1h54v0.1H4V166.1z M4,166.2h53.6v0.1H4V166.2z M149.3,166.2h11.3v0.1h-11.3V166.2z M149.7,166.4h11.1v0.1
				L149.7,166.4L149.7,166.4z M4.1,166.4h53.2v0.1L4.1,166.4L4.1,166.4z M4.1,166.4h52.8v0.1H4.1V166.4z M150.1,166.4h10.8v0.1
				h-10.8V166.4z M4.2,166.6h52.4v0.1L4.2,166.6L4.2,166.6z M150.4,166.6H161v0.1L150.4,166.6L150.4,166.6z M150.7,166.6h10.4v0.1
				h-10.4V166.6z M4.3,166.6h52v0.1h-52C4.3,166.7,4.3,166.6,4.3,166.6z M4.3,166.8h51.6v0.1H4.3V166.8z M151,166.8h10.2v0.1H151
				V166.8z M151.4,166.9h9.9v0.1L151.4,166.9L151.4,166.9z M4.4,166.9h51.2v0.1L4.4,166.9L4.4,166.9z M4.4,166.9h50.9v0.1H4.4V166.9
				z M151.7,166.9h9.8v0.1h-9.8V166.9z M4.5,167.1h50.4v0.1L4.5,167.1L4.5,167.1z M152,167.1h9.6v0.1L152,167.1L152,167.1z
				 M152.3,167.1h9.4v0.1h-9.4V167.1z M4.6,167.1h50v0.1h-50C4.6,167.2,4.6,167.1,4.6,167.1z M4.6,167.2h49.6v0.1H4.6V167.2z
				 M152.6,167.2h9.2v0.1h-9.2V167.2z M152.9,167.4h9v0.1L152.9,167.4L152.9,167.4z M4.7,167.4h49.2v0.1L4.7,167.4L4.7,167.4z
				 M4.7,167.4h48.9v0.1H4.7V167.4z M153.3,167.4h8.7v0.1h-8.7V167.4z M153.6,167.6h8.6v0.1L153.6,167.6L153.6,167.6z M4.8,167.6
				h48.4v0.1L4.8,167.6L4.8,167.6z M4.8,167.6h48.1v0.1H4.8V167.6z M153.9,167.6h8.4v0.1h-8.4V167.6z M4.9,167.8h47.7v0.1H4.9V167.8
				z M154.2,167.8h8.2v0.1h-8.2V167.8z M154.5,167.9h8v0.1L154.5,167.9L154.5,167.9z M5,167.9h47.2v0.1L5,167.9L5,167.9z M5,167.9
				h46.9v0.1H5V167.9z M154.8,167.9h7.8v0.1h-7.8V167.9z M155.2,168.1h7.5v0.1L155.2,168.1L155.2,168.1z M5.1,168.1h46.6v0.1
				L5.1,168.1L5.1,168.1z M5.1,168.1h46.3v0.1H5.1V168.1z M155.5,168.1h7.4v0.1h-7.4V168.1z M155.8,168.2h7.2v0.1h-7.2V168.2z
				 M5.2,168.2h45.9v0.1H5.2V168.2z M5.2,168.4h45.6v0.1L5.2,168.4L5.2,168.4z M156.1,168.4h7v0.1L156.1,168.4L156.1,168.4z
				 M5.3,168.4h45.2v0.1H5.3V168.4z M156.4,168.4h6.8v0.1h-6.8V168.4z M156.7,168.6h6.7v0.1L156.7,168.6L156.7,168.6z M5.4,168.6
				h44.9v0.1L5.4,168.6L5.4,168.6z M5.4,168.6H50v0.1H5.4V168.6z M157.1,168.6h6.4v0.1h-6.4V168.6z M157.4,168.8h6.2v0.1h-6.2V168.8
				z M5.5,168.8h44.2v0.1H5.5V168.8z M5.5,168.9h43.9v0.1L5.5,168.9L5.5,168.9z M157.7,168.9h6v0.1L157.7,168.9L157.7,168.9z
				 M158,168.9h5.9v0.1H158V168.9z M5.6,168.9h43.5v0.1H5.6V168.9z M5.6,169.1h43.2v0.1L5.6,169.1L5.6,169.1z M158.3,169.1h5.7v0.1
				L158.3,169.1L158.3,169.1z M5.7,169.1h42.9v0.1H5.7V169.1z M158.6,169.1h5.5v0.1h-5.5V169.1z M159,169.2h5.2v0.1H159V169.2z
				 M5.8,169.2h42.5v0.1H5.8V169.2z M5.8,169.4H48v0.1L5.8,169.4L5.8,169.4z M159.3,169.4h5v0.1L159.3,169.4L159.3,169.4z
				 M159.5,169.4h5v0.1h-5V169.4z M5.9,169.4h41.8v0.1H5.9V169.4z M5.9,169.6h41.5v0.1L5.9,169.6L5.9,169.6z M159.8,169.6h4.8v0.1
				L159.8,169.6L159.8,169.6z M6,169.6h41.1v0.1H6V169.6z M160.1,169.6h4.6v0.1h-4.6V169.6z M160.4,169.8h4.4v0.1h-4.4V169.8z
				 M6.1,169.8h40.8v0.1H6.1V169.8z M6.1,169.9h40.5v0.1L6.1,169.9L6.1,169.9z M160.7,169.9h4.3v0.1L160.7,169.9L160.7,169.9z
				 M160.9,169.9h4.2v0.1h-4.2V169.9z M6.2,169.9h40.1v0.1H6.2V169.9z M6.2,170.1H46v0.1L6.2,170.1L6.2,170.1z M161.2,170.1h4v0.1
				L161.2,170.1L161.2,170.1z M161.5,170.1h3.8v0.1h-3.8V170.1z M6.3,170.1h39.4v0.1H6.3V170.1z M6.3,170.2h39.1v0.1H6.3V170.2z
				 M161.8,170.2h3.7v0.1h-3.7V170.2z M6.4,170.4h38.8v0.1L6.4,170.4L6.4,170.4z M162.1,170.4h3.5v0.1L162.1,170.4L162.1,170.4z
				 M162.3,170.4h3.4v0.1h-3.4V170.4z M6.5,170.4h38.4v0.1H6.5V170.4z M6.5,170.6h38.1v0.1L6.5,170.6L6.5,170.6z M162.6,170.6h3.2
				v0.1L162.6,170.6L162.6,170.6z M162.9,170.6h3.1v0.1h-3.1V170.6z M6.6,170.6h37.7v0.1H6.6V170.6z M6.6,170.8H44v0.1H6.6V170.8z
				 M163.2,170.8h2.9v0.1h-2.9V170.8z M163.4,170.9h2.8v0.1L163.4,170.9L163.4,170.9z M6.7,170.9h37.1v0.1L6.7,170.9L6.7,170.9z
				 M6.7,170.9h36.8v0.1H6.7V170.9z M163.7,170.9h2.6v0.1h-2.6V170.9z M6.8,171.1h36.4v0.1L6.8,171.1L6.8,171.1z M164,171.1h2.4v0.1
				L164,171.1L164,171.1z M164.3,171.1h2.3v0.1h-2.3V171.1z M6.9,171.1H43v0.1H6.9V171.1z M6.9,171.2h35.8v0.1H6.9V171.2z
				 M164.6,171.2h2.1v0.1h-2.1V171.2z M164.8,171.4h2v0.1L164.8,171.4L164.8,171.4z M7,171.4h35.5v0.1L7,171.4L7,171.4z M7,171.4
				h35.2v0.1H7V171.4z M165.1,171.4h1.8v0.1h-1.8V171.4z M165.4,171.6h1.7v0.1L165.4,171.6L165.4,171.6z M7.1,171.6H42v0.1
				L7.1,171.6L7.1,171.6z M7.1,171.6h34.6v0.1H7.1V171.6z M165.7,171.6h1.5v0.1h-1.5V171.6z M7.2,171.8h34.3v0.1H7.2V171.8z
				 M165.9,171.8h1.4v0.1h-1.4V171.8z M166.2,171.9h1.3v0.1L166.2,171.9L166.2,171.9z M7.3,171.9h34v0.1L7.3,171.9L7.3,171.9z
				 M7.3,171.9H41v0.1H7.3V171.9z M166.5,171.9h1.1v0.1h-1.1V171.9z M166.7,172.1h1v0.1L166.7,172.1L166.7,172.1z M7.4,172.1h33.4
				v0.1L7.4,172.1L7.4,172.1z M7.4,172.1h33.1v0.1H7.4V172.1z M167,172.1h0.8v0.1H167V172.1z M7.5,172.2h32.8v0.1H7.5V172.2z
				 M167.2,172.2h0.8v0.1h-0.8V172.2z M167.5,172.4h0.5v0.1L167.5,172.4L167.5,172.4z M7.6,172.4H40v0.1L7.6,172.4L7.6,172.4z
				 M7.6,172.4h32.2v0.1H7.6V172.4z M167.7,172.4h0.3v0.1h-0.3V172.4z M7.7,172.6h31.9v0.1L7.7,172.6L7.7,172.6z M7.7,172.6h31.6
				v0.1H7.7V172.6z M7.8,172.8h31.3v0.1H7.8V172.8z M7.8,172.9h31v0.1L7.8,172.9L7.8,172.9z M7.9,172.9h30.7v0.1H7.9V172.9z
				 M8,173.1h30.3v0.1L8,173.1L8,173.1z M8,173.1h30.1v0.1H8V173.1z M8.1,173.2h29.8v0.1H8.1V173.2z M8.1,173.4h29.5v0.1L8.1,173.4
				L8.1,173.4z M8.2,173.4h29.2v0.1H8.2V173.4z M8.2,173.6h28.9v0.1L8.2,173.6L8.2,173.6z M8.3,173.6h28.6v0.1H8.3V173.6z
				 M8.4,173.8h28.2v0.1H8.4V173.8z M8.4,173.9h28v0.1L8.4,173.9L8.4,173.9z M8.5,173.9h27.7v0.1H8.5V173.9z M8.5,174.1h27.4v0.1
				L8.5,174.1L8.5,174.1z M8.6,174.1h27.1v0.1H8.6V174.1z M8.6,174.2h26.8v0.1H8.6V174.2z M8.7,174.4h26.5v0.1L8.7,174.4L8.7,174.4z
				 M8.8,174.4h26.1v0.1H8.8V174.4z M8.8,174.6h25.9v0.1L8.8,174.6L8.8,174.6z M8.9,174.6h25.6v0.1H8.9V174.6z M8.9,174.8h25.3v0.1
				H8.9V174.8z M9,174.9h25v0.1L9,174.9L9,174.9z M9.1,174.9h24.7v0.1H9.1V174.9z M9.1,175.1h24.5v0.1L9.1,175.1L9.1,175.1z
				 M9.2,175.1h24.1v0.1H9.2V175.1z M9.2,175.2h23.9v0.1H9.2V175.2z M9.3,175.4h23.6v0.1L9.3,175.4L9.3,175.4z M9.3,175.4h23.4v0.1
				H9.3V175.4z M9.4,175.6h23.1v0.1L9.4,175.6L9.4,175.6z M9.5,175.6h22.8v0.1H9.5V175.6z M9.5,175.8H32v0.1H9.5V175.8z M9.6,175.9
				h22.2v0.1L9.6,175.9L9.6,175.9z M9.6,175.9h22v0.1h-22V175.9z M9.7,176.1h21.7v0.1L9.7,176.1L9.7,176.1z M9.7,176.1h21.5v0.1H9.7
				V176.1z M9.8,176.2h21.1v0.1H9.8V176.2z M9.9,176.4h20.8v0.1L9.9,176.4L9.9,176.4z M9.9,176.4h20.6v0.1H9.9V176.4z M10,176.6
				h20.3v0.1L10,176.6L10,176.6z M10,176.6h20.1v0.1H10V176.6z M10.1,176.8h19.8v0.1H10.1V176.8z M10.1,176.9h19.5v0.1L10.1,176.9
				L10.1,176.9z M10.2,176.9h19.2v0.1H10.2V176.9z M10.3,177.1h18.9v0.1L10.3,177.1L10.3,177.1z M10.3,177.1H29v0.1H10.3V177.1z
				 M10.4,177.2h18.4v0.1H10.4V177.2z M10.4,177.4h18.1v0.1L10.4,177.4L10.4,177.4z M10.5,177.4h17.8v0.1H10.5V177.4z M10.6,177.6
				h17.5v0.1L10.6,177.6L10.6,177.6z M10.6,177.6h17.3v0.1H10.6V177.6z M10.7,177.8h17v0.1h-17C10.7,177.9,10.7,177.8,10.7,177.8z
				 M10.7,177.9h16.8v0.1L10.7,177.9L10.7,177.9z M10.8,177.9h16.5v0.1H10.8V177.9z M10.8,178.1h16.3v0.1L10.8,178.1L10.8,178.1z
				 M10.9,178.1h16v0.1h-16V178.1z M11,178.2h15.7v0.1H11V178.2z M11,178.4h15.5v0.1L11,178.4L11,178.4z M11.1,178.4h15.2v0.1H11.1
				V178.4z M11.2,178.6h14.9v0.1L11.2,178.6L11.2,178.6z M11.2,178.6h14.6v0.1H11.2V178.6z M11.3,178.8h14.3v0.1H11.3V178.8z
				 M11.4,178.9h14v0.1L11.4,178.9L11.4,178.9z M11.4,178.9h13.8v0.1H11.4V178.9z M11.5,179.1H25v0.1L11.5,179.1L11.5,179.1z
				 M11.6,179.1h13.2v0.1H11.6V179.1z M11.6,179.2h13.1v0.1H11.6V179.2z M11.7,179.4h12.8v0.1L11.7,179.4L11.7,179.4z M11.8,179.4
				h12.5v0.1H11.8V179.4z M11.8,179.6h12.3v0.1L11.8,179.6L11.8,179.6z M11.9,179.6h12v0.1h-12V179.6z M12,179.8h11.7v0.1H12V179.8z
				 M12.1,179.9h11.4v0.1L12.1,179.9L12.1,179.9z M12.2,179.9h11.1v0.1H12.2V179.9z M12.3,180.1h10.8v0.1L12.3,180.1L12.3,180.1z
				 M12.4,180.1h10.5v0.1H12.4V180.1z M12.5,180.2h10.2v0.1H12.5V180.2z M12.5,180.4h10v0.1L12.5,180.4L12.5,180.4z M12.6,180.4h9.8
				v0.1h-9.8C12.6,180.5,12.6,180.4,12.6,180.4z M12.7,180.6h9.5v0.1L12.7,180.6L12.7,180.6z M12.8,180.6H22v0.1h-9.2V180.6z
				 M12.9,180.8h8.9v0.1h-8.9V180.8z M13,180.9h8.7v0.1L13,180.9L13,180.9z M13.1,180.9h8.4v0.1h-8.4V180.9z M13.2,181.1h8.1v0.1
				L13.2,181.1L13.2,181.1z M13.3,181.1h7.8v0.1h-7.8V181.1z M13.5,181.2h7.4v0.1h-7.4V181.2z M13.6,181.4h7.1v0.1L13.6,181.4
				L13.6,181.4z M13.8,181.4h6.7v0.1h-6.7V181.4z M13.9,181.6h6.4v0.1L13.9,181.6L13.9,181.6z M14.1,181.6h6v0.1h-6V181.6z
				 M14.2,181.8h5.7v0.1h-5.7V181.8z M14.3,181.9h5.3v0.1L14.3,181.9L14.3,181.9z M14.6,181.9h4.7v0.1h-4.7
				C14.6,182,14.6,181.9,14.6,181.9z M14.8,182.1H19v0.1L14.8,182.1L14.8,182.1z M15.1,182.1h3.6v0.1h-3.6V182.1z M15.4,182.2h3v0.1
				h-3V182.2z M15.6,182.4h2.2v0.1L15.6,182.4L15.6,182.4z M16.8,182.4h0.3v0.1h-0.3V182.4z"/>
		</defs>
		<clipPath id="SVGID_14_">
			<use xlink:href="#SVGID_13_"  style="overflow:visible;"/>
		</clipPath>
		<g class="st9">
			<g>
				<g>
					
						<linearGradient id="SVGID_15_" gradientUnits="userSpaceOnUse" x1="0" y1="31.9225" x2="168.4" y2="31.9225" gradientTransform="matrix(1 0 0 -1 0 188)">
						<stop  offset="1.173188e-02" style="stop-color:#A8CEDB"/>
						<stop  offset="0.3648" style="stop-color:#6291BD"/>
						<stop  offset="1" style="stop-color:#3C5E8F"/>
					</linearGradient>
					<path id="SVGID_22_" class="st10" d="M8.7,154.2c-0.6,0.3-8.7,5-8.7,5l10.8,18.7c3.2,5.6,6.4,5.4,10.4,3.3
						c0.3-0.2,0.6-0.5,4-2.1c48.4-24,95.1-25.2,143.2-6.3c-15.6-12.1-29.2-26-40.5-41.4c-9.6-1.2-18.8-1.8-27.9-1.8
						C68.7,129.4,40,137,8.7,154.2"/>
				</g>
			</g>
		</g>
	</g>
</g>
</svg>
